<?xml-stylesheet type="text/css" href="/css/style.css"?>
<svg xmlns="http://www.w3.org/2000/svg" viewBox="0 0 2000 2000">
	<path class="svgStroke" d="M791.4,1681.2c-9-112.1-107.1-195.6-219.2-186.7c-64.6,5.2-119.7,40-153.1,89.9l0,0
		C316,1704.8,186.4,1732.9,38.7,1697.2c0,0,0,0,0,0C87,1932,624.2,1984.9,751.4,1800.5C778.1,1762,794.5,1720.2,791.4,1681.2z"/>
	<path class="svgStroke" d="M673.8,1409.1l189.6,161.4c23.7,20.2,59.6,15.5,77.4-10.1l76.3-110l-249.2-212.2l-96.4,92.9
		C649,1352.7,650.1,1388.9,673.8,1409.1z"/>
	<polygon class="svgStroke" points="767.9,1238.2 1017.1,1450.4 1962.9,87.2 	"/>
</svg>
