<?xml version="1.0" encoding="utf-8"?>
<svg xmlns="http://www.w3.org/2000/svg" viewBox="0 0 7680 4320">
<style type="text/css">
	.st0{fill:url(#SVGID_1_);}
	.st1{display:none;fill:url(#SVGID_2_);}
	.st2{fill:url(#SVGID_3_);}
	.st3{fill:#AFD3E0;}
	.st4{fill:url(#SVGID_4_);}
	.st5{fill:url(#SVGID_5_);}
	.st6{fill:url(#SVGID_6_);}
	.st7{fill:url(#SVGID_7_);}
	.st8{fill:url(#SVGID_8_);}
	.st9{fill:url(#SVGID_9_);}
	.st10{fill:url(#SVGID_10_);}
	.st11{fill:url(#SVGID_11_);}
	.st12{fill:url(#SVGID_12_);}
	.st13{fill:url(#SVGID_13_);}
	.st14{fill:url(#SVGID_14_);}
	.st15{fill:url(#SVGID_15_);}
	.st16{fill:url(#SVGID_16_);}
	.st17{fill:url(#SVGID_17_);}
	.st18{fill:url(#SVGID_18_);}
	.st19{fill:url(#SVGID_19_);}
	.st20{fill:url(#SVGID_20_);}
	.st21{fill:url(#SVGID_21_);}
	.st22{fill:url(#SVGID_22_);}
	.st23{fill:url(#SVGID_23_);}
</style>
	<linearGradient id="SVGID_1_" gradientUnits="userSpaceOnUse" x1="3840" y1="4320" x2="3840" y2="-9.094947e-13">
		<stop  offset="1.108180e-06" style="stop-color:#C4E4EF"/>
		<stop  offset="0.4378" style="stop-color:#B2DCF5"/>
		<stop  offset="1" style="stop-color:#94CFFF"/>
	</linearGradient>
	<rect class="st0" width="7680" height="4320"/>
	<linearGradient id="SVGID_2_" gradientUnits="userSpaceOnUse" x1="3745.5" y1="4263" x2="3745.5" y2="1831">
		<stop  offset="1.631956e-07" style="stop-color:#6A56CC"/>
		<stop  offset="0.454" style="stop-color:#A59ADE"/>
		<stop  offset="0.819" style="stop-color:#CFCAEA"/>
		<stop  offset="1" style="stop-color:#DFDCEF"/>
	</linearGradient>
	<polygon class="st1" points="-72,2378 279,1962 553,2256 1374,2346 1766,1984 2130,2362 2412,2078 2867,2415 4471,2462 4902,2008 
		5098,2205 5500,1831 5980,2107 6372,2096 6583,1902 6983,2178 7592,2417 7583,4263 -101,4080 	"/>
	<linearGradient id="SVGID_3_" gradientUnits="userSpaceOnUse" x1="3796" y1="4263" x2="3796" y2="1831">
		<stop  offset="2.211033e-06" style="stop-color:#37778A"/>
		<stop  offset="1" style="stop-color:#99C6DB"/>
	</linearGradient>
	<path class="st2" d="M7592,2417l-1.72,353.43l-1.61,330.21l-2.43,498.36c0,0.01,0,0.01,0,0.01l-1.05,214.46L7583,4263
		l-1979.65-47.15l-31.47-0.75l-80.03-1.9l-58.11-1.39l-66.08-1.57l-87.19-2.08l-23.47-0.56l-747.81-17.8l-4.87-0.12l-856.28-20.39
		l-671.11-15.99L0,4082.41V2292.67L279,1962l239.07,256.52L553,2256l522.09,57.23l64.65,7.09l26.93,2.95L1374,2346l75.25-69.5
		L1766,1984l364,378l282-284l302.87,224.32L2867,2415l498.09,14.59l19.92,0.59l78.48,2.3L4471,2462l116.78-123.01L4902,2008l196,197
		l402-374l375,215.62l105,60.38l83.86-2.35L6372,2096l36.21-33.29L6583,1902l304.26,209.94L6983,2178l199.91,78.45l37.52,14.73
		l55.41,21.74L7592,2417z"/>
	<polygon class="st3" points="7495.37,3130.76 6597.54,3322.24 6595.32,3272.85 6594.87,3262.76 6692.38,3243.87 6638.19,2501.9 
		6586.72,2408.26 6594,2400.74 6599.04,2409.91 7197.76,1790.92 7208.11,1780.23 7192.16,2279.95 7268.54,2222.43 7492.95,3121.05 	
		"/>
	<linearGradient id="SVGID_4_" gradientUnits="userSpaceOnUse" x1="7430.75" y1="3123.1401" x2="7430.75" y2="1770">
		<stop  offset="1.331947e-07" style="stop-color:#5E94A8"/>
		<stop  offset="1" style="stop-color:#ADD1DE"/>
	</linearGradient>
	<path class="st4" d="M7680,2392.86v688.3l-91.33,19.48l-95.72,20.41l-9.79,2.09l-60.46-242.13c-0.01-0.02-0.01-0.03-0.02-0.05
		l-13.52-54.15c0-0.01,0-0.01,0-0.02l-2.18-8.72l-131.14-525.15l-13.34-53.42l-42.07,31.68l-38.93,29.32l1.41-44.05l14.85-465.53
		l10.35-10.69L7218,1770l176,355l120,29L7680,2392.86z"/>
	<polygon class="st3" points="6067.31,2187.31 5840.33,2625.24 5967.6,2556.43 5715.72,3443.23 5712.66,3454.01 5624.83,3471.02 
		5364.18,3521.51 5209.25,3037.2 5243.95,2966.84 5250.69,2975.77 5616,2235 5763,2220 5971,1898 6081.24,1886.57 6091.35,1885.52 	
		"/>
	<linearGradient id="SVGID_5_" gradientUnits="userSpaceOnUse" x1="6203.8599" y1="3509.9988" x2="6203.8599" y2="1864">
		<stop  offset="1.331947e-07" style="stop-color:#5E94A8"/>
		<stop  offset="1" style="stop-color:#ADD1DE"/>
	</linearGradient>
	<polygon class="st5" points="6703,3252 6605.24,3270.93 6595.32,3272.85 5715.72,3443.23 5704.72,3445.36 5951.5,2576.5 
		5816.5,2649.5 6057.5,2184.5 6081.24,1886.57 6091.35,1885.52 6299,1864 6594,2400.74 6599.04,2409.91 6648,2499 	"/>
	<polygon class="st3" points="1935.71,3049.96 1761.2,3338.72 1661.89,3326.38 1590.56,3317.51 1585.76,3306.84 1268.4,2601.09 
		1115.97,2564.75 1042.82,2204.61 1156.57,2323.45 1080.54,1847.41 1092.1,1856.4 1282,2004 1840.07,2913.25 1845.85,2903.55 	"/>
	<linearGradient id="SVGID_6_" gradientUnits="userSpaceOnUse" x1="798.69" y1="3328" x2="798.69" y2="1833">
		<stop  offset="1.331947e-07" style="stop-color:#5E94A8"/>
		<stop  offset="1" style="stop-color:#ADD1DE"/>
	</linearGradient>
	<polygon class="st6" points="1597.38,3308.28 1585.76,3306.84 0,3109.69 0,2838.01 404,2237 518.07,2218.52 657,2196 813,1874 
		1062,1833 1080.54,1847.41 1092.1,1856.4 1166.67,2323.27 1171.5,2353.5 1139.74,2320.32 1059.5,2236.5 1075.09,2313.23 
		1124.5,2556.5 1275.5,2592.5 1474.74,3035.56 1474.74,3035.57 	"/>
	<linearGradient id="SVGID_7_" gradientUnits="userSpaceOnUse" x1="2222" y1="3663" x2="2222" y2="2392">
		<stop  offset="1.331947e-07" style="stop-color:#5E94A8"/>
		<stop  offset="1" style="stop-color:#ADD1DE"/>
	</linearGradient>
	<polygon class="st7" points="2839,2707 2709.74,3622.32 2708.35,3632.23 2704,3663 2526.72,3605.73 2526.71,3605.73 
		2469.64,3587.3 2469.62,3587.29 2186.82,3495.94 2177.26,3492.85 1661.89,3326.38 1611.18,3310 1605,3308 1840.07,2913.25 
		1845.85,2903.55 1948,2732 2103,2703 2234,2474 2492,2392 2614.91,2503.57 2622.71,2510.65 	"/>
	<linearGradient id="SVGID_8_" gradientUnits="userSpaceOnUse" x1="3176.4041" y1="1500" x2="3176.4041" y2="1187">
		<stop  offset="0" style="stop-color:#C0DAF0"/>
		<stop  offset="0.3046" style="stop-color:#CAE3F5"/>
		<stop  offset="1" style="stop-color:#DCF5FF"/>
	</linearGradient>
	<path class="st8" d="M4196.808,1484.981c0,5.058-0.216,10.069-0.643,15.019H2162.536c-4.278-18.534-6.536-37.842-6.536-57.674
		c0-141.012,114.314-255.326,255.326-255.326c111.953,0,207.078,72.056,241.527,172.324c33.385-23.772,74.225-37.752,118.333-37.752
		c62.083,0,117.69,27.695,155.154,71.401c26.98-21.027,60.912-33.553,97.769-33.553c17.957,0,35.223,2.974,51.323,8.453
		c40.119-53.294,103.915-87.754,175.767-87.754c78.971,0,148.209,41.627,186.989,104.137c25.803-21.153,58.803-33.847,94.771-33.847
		c16.143,0,31.685,2.553,46.247,7.287c40.329-47.467,100.46-77.577,167.626-77.577c65.285,0,123.92,28.446,164.19,73.63
		c30.285-26.043,69.683-41.789,112.764-41.789C4119.345,1311.96,4196.808,1389.423,4196.808,1484.981z"/>
	<linearGradient id="SVGID_9_" gradientUnits="userSpaceOnUse" x1="4506.21" y1="730" x2="4506.21" y2="461">
		<stop  offset="0" style="stop-color:#C0DAF0"/>
		<stop  offset="0.3046" style="stop-color:#CAE3F5"/>
		<stop  offset="1" style="stop-color:#DCF5FF"/>
	</linearGradient>
	<path class="st9" d="M5137.419,714.465c0,5.257-0.311,10.441-0.916,15.535H3876.889c-1.243-7.584-1.889-15.367-1.889-23.302
		c0-79.024,64.061-143.085,143.085-143.085c62.966,0,116.434,40.673,135.563,97.175c23.123-11.439,48.809-18.47,75.966-19.995
		C4243.056,539.308,4329.921,461,4435.076,461c83.324,0,155.161,49.164,188.087,120.069c17.534-8.062,37.046-12.551,57.61-12.551
		c51.871,0,97.065,28.58,120.694,70.852c16.688-13.622,38.008-21.794,61.229-21.794c16.553,0,32.137,4.154,45.767,11.471
		c23.907-27.562,59.192-44.994,98.545-44.994C5079.033,584.053,5137.419,642.44,5137.419,714.465z"/>
	<linearGradient id="SVGID_10_" gradientUnits="userSpaceOnUse" x1="2907.1599" y1="3701.8398" x2="2907.1599" y2="1040.25">
		<stop  offset="2.004246e-06" style="stop-color:#9FC8D6"/>
		<stop  offset="1" style="stop-color:#BCDFEB"/>
	</linearGradient>
	<polygon class="st10" points="3439,2111.98 3376.39,2424.11 3515.64,2321.5 3220.39,3111.59 3186.11,3691.82 3185.52,3701.84 
		2708.35,3632.23 2526.72,3605.73 2526.71,3605.73 2151.53,3551 2177.26,3492.85 2614.91,2503.57 2622.71,2510.65 2742,2241 
		2959,2131 3238,1727 3431,1653 3627,1071 3651.72,1049.76 3662.79,1040.25 3575.23,1864.56 	"/>
	<linearGradient id="SVGID_11_" gradientUnits="userSpaceOnUse" x1="4465.0898" y1="4851.5654" x2="4465.0898" y2="1010">
		<stop  offset="2.663895e-07" style="stop-color:#578FA3"/>
		<stop  offset="1" style="stop-color:#ABD3E3"/>
	</linearGradient>
	<polygon class="st11" points="5754,3642 3722,3770 3186.11,3691.82 3176.18,3690.37 3210.5,3109.5 3494.5,2349.5 3361.5,2447.5 
		3429.5,2108.5 3565.5,1861.5 3651.72,1049.76 3662.79,1040.25 3698,1010 4507,1999 4617,2462 4923,2542 5243.95,2966.84 
		5250.69,2975.77 5618.12,3462.13 5624.83,3471.02 	"/>
		<linearGradient id="SVGID_12_" gradientUnits="userSpaceOnUse" x1="3840" y1="4251" x2="3840" y2="2754.5">
			<stop  offset="7.991684e-07" style="stop-color:#0E4E4A"/>
			<stop  offset="0.3512" style="stop-color:#145A5C"/>
			<stop  offset="1" style="stop-color:#227788"/>
		</linearGradient>
		<path class="st12" d="M7648.28,2913.22c-26.25-36.4-45.91-83.46-58-142.79c-1.07-5.21-2.07-10.52-3.021-15.93
			c-12.75,72.83-36.229,128.26-68.81,168.95c-9.75-25.71-17.53-54.61-23.19-86.95c-8.35,47.71-21.31,87.95-38.42,121.48
			c-13.54-22.17-24.98-47.72-34.14-76.97c-0.01-0.02-0.01-0.03-0.02-0.05c-5.27-16.82-9.79-34.85-13.52-54.15c0-0.01,0-0.01,0-0.02
			c-0.66-3.38-1.29-6.82-1.9-10.29c-0.09,0.52-0.18,1.05-0.28,1.57c-10.94,61.56-29.6,110.62-54.97,148.8
			c-13.35-30.1-23.7-65.06-30.75-105.37c-5.93,33.85-14.17,63.94-24.57,90.54c-16.13-32.73-28.41-71.68-36.43-117.54
			c-8.94,51.07-23.16,93.58-42.09,128.46c-15.87-32.5-27.98-71.1-35.91-116.46c-6.27,35.79-15.13,67.38-26.38,95.09
			c-13.29-30.04-23.59-64.91-30.62-105.09c-9.979,56.99-26.52,103.33-48.86,140.29c-5.63-18.62-10.36-38.68-14.14-60.29
			c-8.92,50.99-23.11,93.44-41.99,128.28c-28.04-39.42-48.45-91.18-60.01-157.28c-14.45,82.57-42.69,142.79-82.36,184.5h30.1
			c-6.9,10.46-14.33,20.19-22.22,29.24c-22.17-36.87-38.6-83.03-48.521-139.74c-3.8,21.68-8.55,41.81-14.21,60.48
			c-13.37-30.13-23.73-65.13-30.79-105.48c-13.41,76.64-38.71,134.01-74,175.21c-15.35-31.4-27.19-68.49-35.14-111.88
			c-0.29-1.58-0.58-3.18-0.86-4.78c-7.77,44.38-19.52,82.29-34.89,114.36c-15.98-32.6-28.16-71.35-36.13-116.91
			c-13.88,79.35-40.51,138.05-77.78,179.53c-19.5-35.26-34.11-78.44-43.22-130.53c-10.74,61.38-29.11,110.4-54.12,148.65
			c-21.84-36.68-38.05-82.49-47.88-138.65c-11.66,66.66-32.32,118.74-60.72,158.29c-11.68-28.24-20.85-60.54-27.28-97.29
			c-7.16,40.95-17.72,76.39-31.39,106.81c-22.49-37.04-39.15-83.55-49.17-140.81c-11.61,66.32-32.12,118.21-60.29,157.68
			c-22.77-37.19-39.61-83.97-49.71-141.68c-9.84,56.22-26.08,102.07-47.95,138.78c-13.02-29.74-23.12-64.19-30.05-103.78
			c-9.06,51.77-23.54,94.74-42.86,129.89c-28.62-39.62-49.42-91.9-61.14-158.89c-14.45,82.57-42.69,142.79-82.36,184.5h30.1
			c-6.03,9.15-12.46,17.73-19.25,25.79c-21.14-36.28-36.88-81.33-46.49-136.29c-5.83,33.32-13.91,63-24.08,89.29
			c-5.27-9.9-10.17-20.4-14.67-31.53c-11.2-27.62-20.01-59.1-26.25-94.76c-9.26,52.92-24.2,96.65-44.17,132.22
			c-24.86-38.2-43.13-87.07-53.83-148.22c-14.45,82.57-42.69,142.79-82.36,184.5h30.1c-10.73,16.27-22.69,30.79-35.81,43.68
			c-14.41-31.16-25.5-67.71-32.93-110.18c-5.78,33.07-13.79,62.55-23.86,88.69c-2.75,7.17-5.67,14.08-8.73,20.75
			c-14.34-22.83-26.4-49.36-35.97-79.92v-0.01c-6.21-19.79-11.37-41.26-15.44-64.51c-2.1,12-4.49,23.52-7.17,34.59
			c-10.28,42.55-24.77,78.29-43.05,107.9c-21.79-36.66-37.97-82.41-47.78-138.49c-8.18,46.72-20.77,86.28-37.34,119.38
			c-12.73,25.41-27.79,47.01-45.02,65.12h30.1c-10.41,15.79-21.98,29.91-34.65,42.52c-21.95-36.75-38.23-82.68-48.09-139.02
			c-8.23,47.01-20.93,86.77-37.66,120c-25.13-38.31-43.57-87.44-54.34-149c-11.2,63.99-30.68,114.55-57.35,153.48
			c-25.29-38.38-43.84-87.66-54.65-149.48c-14.45,82.57-42.69,142.79-82.36,184.5h30.1c-6.12,9.28-12.64,17.99-19.55,26.16
			c-18.98-34.92-33.24-77.49-42.19-128.66c-7.5,42.85-18.72,79.67-33.32,111.01c-22.25-36.91-38.74-83.16-48.68-140.01
			c-9.12,52.1-23.73,95.29-43.23,130.56c-24.33-37.95-42.23-86.29-52.77-146.56c-14.45,82.57-42.69,142.79-82.36,184.5h30.1
			c-7.79,11.82-16.23,22.72-25.3,32.75c-22.63-37.12-39.38-83.76-49.44-141.25c-7.71,44.06-19.35,81.75-34.55,113.67
			c-25.7-38.55-44.52-88.21-55.45-150.67c-14.45,82.57-42.69,142.79-82.36,184.5h30.1c-8.11,12.31-16.94,23.61-26.44,33.97
			c-20.04-35.62-35.02-79.42-44.3-132.47c-7.1,40.55-17.53,75.7-31,105.93c-24.44-38-42.42-86.47-53-146.93
			c-8.94,51.06-23.15,93.57-42.08,128.44c-10.56-26.82-18.93-57.2-24.92-91.44c-5.94,33.95-14.22,64.11-24.65,90.76
			c-28.21-39.48-48.74-91.4-60.35-157.76c-14.45,82.57-42.69,142.79-82.36,184.5h30.1c-6.35,9.64-13.14,18.66-20.34,27.09
			c-29.27-39.82-50.51-92.63-62.4-160.59c-9.68,55.34-25.57,100.62-46.93,137.04c-38.47-41.61-65.91-101.07-80.07-182.04
			c-14.45,82.57-42.69,142.79-82.36,184.5h30.1c-7.18,10.9-14.94,20.99-23.2,30.36c-32.97-40.78-56.7-96.49-69.54-169.86
			c-12.88,73.61-36.73,129.44-69.86,170.25c-13.55-13.15-25.86-28.03-36.88-44.75h30.1c-39.67-41.71-67.91-101.93-82.36-184.5
			c-14.45,82.57-42.69,142.79-82.36,184.5h30.1c-12.51,18.98-26.69,35.6-42.46,50h34.62c-11.37,15-23.96,28.5-37.68,40.62
			c-34.36-41.04-59.04-97.77-72.22-173.12c-8.28,47.29-21.08,87.23-37.96,120.58c-36.35-41.36-62.37-99.47-76.04-177.58
			c-14.45,82.57-42.69,142.79-82.36,184.5h30.1c-9.56,14.49-20.09,27.6-31.55,39.41c-6.68-7.96-13-16.41-18.93-25.41h30.1
			c-10.49-11.03-20.18-23.36-29.03-37.05c-24.61-38.07-42.7-86.72-53.33-147.45c-12.87,73.57-36.71,129.38-69.81,170.18
			c-14.35-13.62-27.36-29.13-38.93-46.68h30.1c-39.67-41.71-67.91-101.93-82.36-184.5c-10.89,62.22-29.61,111.75-55.16,150.23
			c-33.12-40.8-56.96-96.63-69.84-170.23c-14.45,82.57-42.69,142.79-82.36,184.5h30.1c-12.51,18.98-26.69,35.6-42.46,50h34.62
			c-8.18,10.79-17.01,20.8-26.41,30.09c-12.11-12.24-23.22-25.9-33.23-41.09h30.1c-10.44-10.98-20.09-23.24-28.9-36.85
			c-24.68-38.1-42.81-86.81-53.46-147.65c-9.01,51.48-23.38,94.26-42.53,129.3c-10.36-26.54-18.57-56.55-24.47-90.3
			c-5.08,29.02-11.87,55.26-20.25,78.93c-35.16-41.18-60.37-98.47-73.75-174.93c-11.34,64.79-31.17,115.81-58.35,154.93
			c-29.39-39.86-50.73-92.77-62.65-160.93c-5.41,30.93-12.76,58.73-21.92,83.59c-24.99-38.25-43.35-87.24-54.08-148.59
			c-11.94,68.25-33.32,121.22-62.78,161.1c-3.18-5.57-6.23-11.34-9.16-17.32c-15.95-32.56-28.1-71.27-36.06-116.78
			c-7.35,41.99-18.27,78.18-32.44,109.12c-21.68-36.6-37.78-82.24-47.56-138.12c-7.24,41.35-17.93,77.09-31.79,107.71
			c-8.55-9.6-16.55-19.98-23.95-31.21h30.1c-39.67-41.71-67.91-101.93-82.36-184.5c-10.77,61.56-29.22,110.69-54.34,149
			c-33.41-38.68-57.94-91.74-71.99-161.77c0,0,0,0,0-0.01c-0.94-4.66-1.83-9.4-2.67-14.22c-1.68,9.6-3.55,18.9-5.6,27.9v0.01
			c-7.11,31.23-16.42,58.88-27.78,83.24c-4.08-5.69-8-11.64-11.74-17.85c-22.36-36.96-38.91-83.3-48.88-140.3
			c-9.66,55.22-25.5,100.43-46.8,136.81c-10.51-19.64-19.54-41.68-27-66.27c-5.65-18.67-10.4-38.83-14.2-60.54
			c-6.95,39.72-17.1,74.25-30.17,104.05c-14.21-13.54-27.1-28.94-38.57-46.34h30.1c-39.67-41.71-67.91-101.93-82.36-184.5
			c-12.4,70.89-34.98,125.28-66.22,165.66c-14.56-31.32-25.76-68.09-33.24-110.87c-3.63,20.74-8.14,40.07-13.48,58.06v0.01
			c-7.35,24.81-16.3,47.05-26.73,66.88c-7.64-8.83-14.84-18.29-21.53-28.45h30.09c-39.67-41.71-67.91-101.93-82.35-184.5
			c-14.18,81.03-41.65,140.52-80.17,182.14c-31.56-40.45-54.35-95.11-66.83-166.46c-7.33,41.85-18.2,77.96-32.3,108.82
			c-27.03-39.06-46.75-89.95-58.05-154.5c-14.44,82.57-42.69,142.79-82.36,184.5h30.1c-7.67,11.64-15.98,22.39-24.9,32.29
			c-38.34-41.59-65.7-100.98-79.84-181.79c-6.79,38.82-16.63,72.7-29.28,102.03c-17.75-34.03-31.16-75.1-39.72-124.03
			c-7.93,45.34-20.03,83.93-35.89,116.42c-28.08-39.44-48.53-91.24-60.11-157.42c-10.53,60.18-28.39,108.48-52.67,146.4
			c-11.7-28.26-20.89-60.6-27.33-97.4c-10.1,57.75-26.96,104.55-49.75,141.75c-24.06-37.82-41.78-85.91-52.25-145.75
			c-4.48,25.65-10.31,49.13-17.38,70.58c-18.7-34.71-32.76-76.94-41.62-127.58c-13.54,77.38-39.19,135.14-75.02,176.42
			c-20.88-36.14-36.44-80.9-45.98-135.42c-11.77,67.27-32.7,119.7-61.5,159.38c-28.8-39.68-49.73-92.11-61.5-159.38
			c-6.58,37.61-16.03,70.57-28.11,99.27c-26.95-39.03-46.62-89.85-57.89-154.27c-13.34,76.25-38.45,133.42-73.46,174.58
			c-18.16-34.33-31.85-75.91-40.54-125.58c-8.86,50.64-22.92,92.86-41.61,127.58c-29.26-39.82-50.5-92.63-62.39-160.58
			c-6.17,35.26-14.85,66.44-25.87,93.85v1225.32L2827,4251l95.74-9.53l725.3-72.18l734.04-73.06l1.61-0.16l77.64-7.73l69.61-6.92
			l88.2-8.78l23.44-2.33l108.73-10.83l57.72-5.74l31.92-3.18l102.19-10.17l16.31-1.62l119.65-11.91l4.71-0.47l100.53-10l19.81-1.98
			L6193,3916l1392.19-102.53l94.81-6.98v-947.27C7670.79,2879.42,7660.18,2897.37,7648.28,2913.22z M7535,2939
			c-2.02,3.06-4.1,6.04-6.21,8.99c-1.38-2.95-2.73-5.94-4.05-8.99H7535z M6740,3101c-3.05,4.62-6.2,9.09-9.44,13.43
			c-2.6-4.34-5.12-8.83-7.56-13.43H6740z M6558.98,3157c-3.87,5.87-7.92,11.49-12.11,16.92c-3.67-5.42-7.21-11.05-10.6-16.92
			H6558.98z M5586.58,3336c-4.86,6.4-9.95,12.52-15.24,18.39c-3.39-5.9-6.63-12.03-9.73-18.39H5586.58z M5283.58,3423
			c-3.86,5.09-7.87,10-12.01,14.76c-3.5-4.73-6.89-9.65-10.16-14.76H5283.58z M4075.79,3578c-3.78,4.94-7.69,9.72-11.73,14.34
			c-3.49-4.62-6.86-9.4-10.12-14.34H4075.79z M3953.3,3533c-4,6.67-8.19,13.03-12.56,19.1c-4.8-6.08-9.41-12.44-13.8-19.1H3953.3z
			 M3814.58,3583c-4.88,6.43-9.99,12.57-15.31,18.47c-4.84-5.88-9.48-12.03-13.93-18.47H3814.58z M3785.27,3578
			c-0.67,0.65-1.36,1.27-2.03,1.91c-0.43-0.64-0.87-1.26-1.3-1.91H3785.27z M3655.44,3569c-2.65,3.09-5.36,6.09-8.12,9h30.1
			c-5.52,8.38-11.39,16.27-17.56,23.74c-10.42-10.02-20.13-20.92-29.08-32.74H3655.44z M3483.04,3621c-0.63-0.66-1.24-1.33-1.86-2
			h20.38c-8.91,10.23-18.5,19.75-28.68,28.63c-7.06-8.3-13.71-17.17-19.94-26.63H3483.04z M3359.11,3564
			c-2.91,5.4-5.92,10.61-9.05,15.65c-3.83-5.04-7.55-10.24-11.12-15.65H3359.11z M3226.58,3614c-2.09,2.76-4.24,5.45-6.41,8.11
			c-2.69-2.63-5.31-5.34-7.9-8.11H3226.58z M3215.25,3628c-4.04,4.68-8.22,9.19-12.52,13.55c-3.77-4.37-7.42-8.89-10.95-13.55
			H3215.25z M3059.14,3567c-3.2,3.8-6.46,7.47-9.82,11h30.1c-5.51,8.35-11.35,16.22-17.5,23.66c-11.2-10.55-21.6-22.07-31.14-34.66
			H3059.14z M2776.56,3597c-5.51,6.33-11.29,12.37-17.3,18.17c-5.78-5.77-11.34-11.83-16.67-18.17H2776.56z M2749.76,3586
			c-3.11,2.8-6.31,5.5-9.54,8.16c-2.18-2.68-4.34-5.39-6.44-8.16H2749.76z M2582.9,3479c-2.1,5.47-4.3,10.8-6.58,15.98
			c-3.93-5.14-7.73-10.45-11.38-15.98H2582.9z M1959.52,3271c-2.8,3.92-5.67,7.73-8.62,11.41c-2.72-3.71-5.38-7.5-7.96-11.41
			H1959.52z M1676.89,3157.21c-3.42,7.56-7.03,14.8-10.82,21.74c-6.4-6.88-12.51-14.11-18.29-21.74H1676.89z M1535.42,3107.21
			c-0.8,1.21-1.63,2.39-2.44,3.58c-0.67-1.19-1.34-2.37-2.01-3.58H1535.42z M1435.49,3124c-0.18,0.27-0.36,0.55-0.53,0.82
			c-0.21-0.28-0.43-0.54-0.64-0.82H1435.49z M1309.57,3089.68c-4.71-4.96-9.26-10.19-13.65-15.68h26.03
			c-8.55,12.98-17.91,24.83-28,35.65c-5.05-6.34-9.88-12.99-14.47-19.97H1309.57z M1076.77,3094c-5.38,7.1-11.03,13.87-16.95,20.32
			c-5.95-6.41-11.64-13.17-17.06-20.32H1076.77z M1057.22,3079c-4.75,5.12-9.64,10.02-14.71,14.67c-3.58-4.73-7.04-9.61-10.38-14.67
			H1057.22z M521.61,3004c-2.97,4.51-6.04,8.87-9.2,13.12c-2.99-4.23-5.89-8.6-8.7-13.12H521.61z M191.61,2990
			c-2.71,4.11-5.51,8.09-8.38,11.98c-2.51-3.89-4.96-7.87-7.33-11.98H191.61z"/>
		<linearGradient id="SVGID_13_" gradientUnits="userSpaceOnUse" x1="5290.1797" y1="4320" x2="5290.1797" y2="3407.5">
			<stop  offset="4.538878e-07" style="stop-color:#115B56"/>
			<stop  offset="0.3512" style="stop-color:#176768"/>
			<stop  offset="1" style="stop-color:#258394"/>
		</linearGradient>
		<path class="st13" d="M7651.63,3636.35c-18.5-34.58-32.43-76.56-41.23-126.85c-5.84,33.41-13.95,63.16-24.16,89.5
			c0,0.01,0,0.01,0,0.01c-6.01,15.51-12.75,29.83-20.18,43.03c-9.5-25.36-17.1-53.79-22.66-85.54
			c-7.23,41.35-17.92,77.09-31.78,107.71c-24.04-37.82-41.75-85.9-52.22-145.71c-7.43,42.49-18.53,79.05-32.95,110.23
			c-19.41-35.21-33.96-78.29-43.05-130.23c-12.74,72.84-36.22,128.27-68.81,168.96c-15.51-32.19-27.37-70.3-35.19-114.96
			c-6.51,37.22-15.83,69.89-27.74,98.38c-20.01-35.6-34.98-79.38-44.26-132.38c-11.37,65.02-31.31,116.18-58.64,155.36
			c-17.08-33.51-30.02-73.7-38.36-121.36c-7.18,41.06-17.78,76.59-31.5,107.07c-13.71-30.48-24.31-66.01-31.5-107.07
			c-2.86,16.36-6.27,31.83-10.2,46.46c-8.63-24.06-15.61-50.81-20.8-80.46c-13.98,79.93-40.89,138.91-78.58,180.44
			c-17.6-33.92-30.9-74.8-39.42-123.44c-11,62.91-30.02,112.82-56,151.48c-25.97-38.66-44.99-88.57-56-151.48
			c-8.77,50.16-22.65,92.05-41.07,126.58c-28.51-39.58-49.23-91.76-60.93-158.58c-14.44,82.57-42.68,142.79-82.36,184.5h30.1
			c-5.37,8.16-11.08,15.86-17.07,23.15c-30.44-40.16-52.47-93.94-64.67-163.65c-4.87,27.88-11.33,53.2-19.26,76.14
			c-16.77-33.26-29.5-73.06-37.74-120.14c-6.95,39.74-17.1,74.28-30.18,104.09c-14.84-31.58-26.229-68.75-33.82-112.09
			c-8.5,48.6-21.78,89.44-39.36,123.34c-7.19-21.66-13.1-45.39-17.64-71.34c-5.73,32.78-13.65,62.02-23.58,87.99
			c-12.23-28.87-21.78-62.06-28.42-99.99c-8.63,49.34-22.19,90.69-40.17,124.89c-11.08-11.54-21.29-24.31-30.56-38.39h30.09
			c-39.67-41.71-67.91-101.93-82.36-184.5c-11.57,66.18-32.02,117.98-60.1,157.42c-15.86-32.49-27.96-71.08-35.9-116.42
			c-9.9,56.6-26.28,102.69-48.39,139.52c-28.86-39.69-49.82-92.17-61.61-159.52c-8.91,50.97-23.09,93.41-41.97,128.25
			c-35.3-41.2-60.61-98.59-74.03-175.25c-12.76,72.96-36.3,128.46-68.98,169.17c-19.4-35.2-33.93-78.26-43.02-130.17
			c-7.93,45.35-20.03,83.93-35.9,116.42v0.01c-1.84,3.78-3.73,7.48-5.68,11.09c-6.51-12.99-12.41-26.97-17.67-42v-0.01
			c-8.16-23.28-14.77-49.07-19.75-77.51c-2.45,14-5.3,27.35-8.53,40.08c-1.65,6.5-3.4,12.84-5.25,19.02
			c-10.54-18.47-19.71-39.17-27.4-62.24c-3.82-11.44-7.27-23.46-10.35-36.08c-2.8-11.43-5.29-23.35-7.47-35.78
			c-2.3,13.15-4.95,25.72-7.95,37.75c-0.08,0.35-0.16,0.71-0.26,1.06c-9.72,38.77-23.01,71.79-39.52,99.59
			c-1.91-8.54-3.68-17.33-5.27-26.4c-3.19,18.26-7.07,35.43-11.59,51.55c-4.84,6.4-9.91,12.45-15.18,18.17
			c-20.49-32.22-36.38-71.89-47.1-119.92c-1.87-8.34-3.58-16.94-5.13-25.8c-1.68,9.59-3.54,18.88-5.59,27.87
			c-8.21,36.09-19.37,67.42-33.22,94.39c-18.4-21.71-34.06-47.86-46.7-78.91c-11.31-27.76-20.2-59.45-26.49-95.35
			c-4.83,27.61-11.2,52.73-19.04,75.49c-15.57,45.29-36.91,81.25-63.32,109.01h30.1c-12.51,18.98-26.69,35.6-42.45,50h34.61
			c-7.81,10.3-16.19,19.91-25.11,28.84c-1.23,1.22-2.46,2.44-3.71,3.64c-0.65-1.09-1.3-2.19-1.93-3.29
			c-20.97-36.18-36.58-81.04-46.15-135.69c-9.43,53.94-24.76,98.33-45.31,134.27c-33.56-40.9-57.7-97.05-70.69-171.27
			c-12.05,68.91-33.73,122.25-63.63,162.26c-18.07-34.27-31.7-75.74-40.37-125.26c-7.91,45.26-19.99,83.79-35.8,116.25
			c-26.59-38.9-46.02-89.39-57.2-153.25c-8.16,46.67-20.74,86.19-37.29,119.27c-28.39-39.54-49.04-91.62-60.71-158.27
			c-14.44,82.57-42.68,142.79-82.36,184.5h30.1c-11,16.7-23.31,31.57-36.84,44.71c-23.88-37.74-41.48-85.66-51.9-145.21
			c-8.26,47.24-21.05,87.16-37.91,120.49c-31.17-40.36-53.7-94.7-66.09-165.49c-5.93,33.94-14.21,64.1-24.64,90.75
			c-21.58-36.53-37.61-82.05-47.36-137.75c-14.44,82.57-42.68,142.79-82.36,184.5h30.1c-6.1,9.25-12.6,17.94-19.48,26.09
			c-21.53-36.51-37.52-81.98-47.26-137.59c-9.87,56.45-26.2,102.45-48.22,139.23c-16.79-33.28-29.53-73.11-37.78-120.23
			c-10.78,61.62-29.24,110.79-54.41,149.11c-6.71-20.78-12.271-43.44-16.59-68.11c-7.82,44.7-19.68,82.85-35.22,115.06
			c-5.14,10.67-10.69,20.69-16.63,30.08c-5.65-8.78-10.97-18.12-15.91-28.03c-16.53-33.04-29.09-72.51-37.24-119.11
			c-7.51,42.96-18.77,79.86-33.42,111.26c-24.23-37.9-42.06-86.15-52.58-146.26c-12.44,71.12-35.12,125.66-66.52,166.07
			c-5.05,6.51-10.33,12.65-15.83,18.43h30.09c-10.3,15.64-21.76,29.65-34.29,42.16c-12.75-16.65-24.04-35.66-33.78-57.2
			c-13.8-30.56-24.46-66.22-31.67-107.46c-7.54,43.1-18.84,80.11-33.56,111.57c-7.22,15.45-15.28,29.56-24.12,42.41
			c-7.1-12.22-13.59-25.42-19.44-39.67c-11.5-27.99-20.52-59.99-26.88-96.31c-6.62,37.83-16.13,70.97-28.32,99.79
			c-14.4,34.08-32.54,62.11-54.03,84.71h30.09c-5.37,8.15-11.07,15.84-17.05,23.13c-26.67-28.99-48.01-66.6-63.28-114.06
			c-6.64-20.63-12.13-43.12-16.41-67.57c-3.96,22.65-8.96,43.63-14.96,63c-11.5,37.16-26.64,68.42-45.09,94.34
			c-15.86-29.78-28.33-65.03-37.08-106.33c-1.39-6.52-2.68-13.19-3.87-20.01c-1.13,6.44-2.33,12.74-3.63,18.91
			c-7.87,37.57-18.83,70.16-32.6,98.2c-19.38-29.79-34.75-66.08-45.64-109.61c-3.07-12.26-5.78-25.08-8.13-38.5
			c-2.2,12.58-4.72,24.65-7.56,36.21c-15.75,64.29-41.17,112.94-74.79,148.29h30.09c-12.51,18.98-26.69,35.6-42.45,50h34.61
			c-9.7,12.8-20.29,24.53-31.72,35.22c-2.49,2.35-5.03,4.64-7.61,6.87c-0.71,0.63-1.43,1.25-2.15,1.86
			c-17.6-33.92-30.9-74.8-39.42-123.45c-8.24,47.14-20.99,86.98-37.79,120.25c-2.25,4.45-4.56,8.78-6.95,12.99
			c-10.96-11.83-21.03-25.11-30.15-39.92c-22.98-37.28-39.95-84.28-50.11-142.32c-10.75,61.47-29.15,110.56-54.23,148.84
			c-8.6,13.14-17.99,25-28.12,35.66h30.09c-12.51,18.98-26.69,35.6-42.45,50h34.61c-7.9,10.42-16.4,20.11-25.44,29.13
			c-26.72-38.95-46.24-89.56-57.46-153.63c-14.44,82.57-42.68,142.79-82.35,184.5h30.09c-12.51,18.98-26.69,35.6-42.45,50h34.61
			c-2.4,3.17-4.85,6.27-7.37,9.3c-5.2,6.31-10.64,12.34-16.31,18.09L2936,4185l-1,9l10.63,29.47c-7.32,6.33-14.94,12.33-22.89,18
			c-1.19,0.85-2.39,1.69-3.6,2.53h33.89l3.05,8.47c-16.79,15.49-35.4,29.31-55.72,41.53H2953c-10.63,9.22-21.96,17.89-33.96,26H7680
			v-782.26C7673.32,3575.11,7663.79,3607.85,7651.63,3636.35z M6964.14,3703c-4.24,6.44-8.7,12.59-13.33,18.5
			c-3.77-5.91-7.38-12.08-10.83-18.5H6964.14z M6273.79,3712c-2.29,3.93-4.65,7.75-7.07,11.48c-3.15-3.73-6.229-7.54-9.21-11.48
			H6273.79z M5935.51,3686h1.59c-0.25,0.36-0.49,0.73-0.74,1.09C5936.08,3686.72,5935.79,3686.37,5935.51,3686z M5944.2,3636
			c-2.52,4.28-5.11,8.45-7.79,12.49c-2.99-4.05-5.92-8.2-8.74-12.49H5944.2z M5823.14,3636c-1.28,1.94-2.59,3.84-3.9,5.74
			c-1.271-1.89-2.521-3.8-3.75-5.74H5823.14z M5554.37,3608c-0.77,2.3-1.55,4.56-2.35,6.81c-1.56-2.23-3.09-4.5-4.6-6.81H5554.37z
			 M5449.08,3592c-2.29,4.08-4.65,8.06-7.08,11.92c-2.85-3.87-5.64-7.83-8.33-11.92H5449.08z M4644.03,3683
			c-0.53,0.88-1.061,1.73-1.6,2.6c-0.58-0.87-1.18-1.72-1.76-2.6H4644.03z M4747.74,3694h25.56c-2.67,3.52-5.4,6.94-8.21,10.29
			c-1.77,2.12-3.57,4.2-5.39,6.26c-1.45-1.85-2.89-3.74-4.3-5.65C4752.78,3701.37,4750.23,3697.73,4747.74,3694z M3989.3,3822
			c-3.1,4.1-6.31,8.06-9.59,11.94c-3.64-3.82-7.17-7.8-10.61-11.94H3989.3z M3979.65,3834c-5.38,6.36-11.02,12.43-16.88,18.21
			c-4.55-5.82-8.93-11.87-13.1-18.21H3979.65z M3721.73,3878c-4.54,5.38-9.26,10.5-14.13,15.4c-3.77-4.95-7.42-10.07-10.93-15.4
			H3721.73z M3384.29,3978c-4.92,5.64-10.06,11.07-15.37,16.3c-0.86,0.85-1.73,1.69-2.6,2.53c-3.92-6.01-7.69-12.28-11.27-18.83
			H3384.29z M3266.38,3984c-3.97,6.86-8.13,13.41-12.48,19.66c-4.96-6.25-9.71-12.8-14.23-19.66H3266.38z M3118.29,4084
			c-0.08,0.1-0.17,0.19-0.26,0.28c-0.08-0.09-0.15-0.19-0.24-0.28H3118.29z M3100.59,4094l-2.85,1.58
			c-0.36-0.53-0.72-1.05-1.07-1.58H3100.59z"/>
		<linearGradient id="SVGID_14_" gradientUnits="userSpaceOnUse" x1="2828.5701" y1="4320" x2="2828.5701" y2="3549">
			<stop  offset="4.538878e-07" style="stop-color:#136862"/>
			<stop  offset="0.3464" style="stop-color:#197374"/>
			<stop  offset="1" style="stop-color:#288FA1"/>
		</linearGradient>
		<path class="st14" d="M5603.35,4215.85c-6.39-20.16-11.69-42.08-15.85-65.85c-4.11,23.48-9.33,45.15-15.62,65.1
			c-8.84,28.06-19.77,52.72-32.66,74.23c-18.54-20.91-34.42-46.15-47.37-76.13c-12.68-29.38-22.54-63.3-29.35-102.2
			c-6.7,38.28-16.36,71.76-28.76,100.81c-11.84,27.78-26.18,51.51-42.81,71.54c-5.3-6.61-10.36-13.55-15.17-20.85h30.1
			c-14.25-14.98-27.01-32.34-38.2-52.26c-19.97-35.57-34.9-79.31-44.16-132.24c-8.41,48.07-21.51,88.56-38.8,122.24
			c-13.96-13.4-26.64-28.6-37.94-45.74h30.1c-32.18-33.83-56.84-79.84-72.71-140.09c-3.7-14.02-6.92-28.82-9.65-44.41
			c-2.85,16.33-6.25,31.78-10.16,46.39c-13.99,52.15-34.62,93.54-61.05,125.52c-17.23-31.9-30.54-70.18-39.48-115.52
			c-0.81-4.07-1.58-8.2-2.31-12.39c-0.76,4.35-1.56,8.64-2.4,12.86c-11.89,60.04-31.45,107.65-57.66,144.49
			c-27.25-33.52-48.23-77.21-61.99-132.58c-3-12.03-5.65-24.62-7.95-37.77c-2.4,13.75-5.19,26.87-8.36,39.39
			c-11.56,45.86-28.1,83.64-49.09,114.24c-22.06-27.64-39.93-62.05-53.1-104.07c-6.21-19.8-11.38-41.29-15.45-64.56
			c-4.29,24.52-9.8,47.06-16.47,67.74c-9.26,28.76-20.75,53.9-34.32,75.69c-7.8-8.97-15.13-18.58-21.95-28.93h30.1
			c-11.5-12.09-22.03-25.73-31.55-41.02c-23.33-37.46-40.55-84.84-50.81-143.48c-11.27,64.45-30.96,115.27-57.92,154.31
			c-4.49,6.49-9.17,12.66-14.05,18.51c-3.25-5.2-6.38-10.59-9.39-16.18c-18.71-34.72-32.78-76.96-41.64-127.64
			c-9.63,55.02-25.38,100.12-46.56,136.42c-10.6,18.18-22.56,34.16-35.8,48.08h30.1c-5.8,8.8-11.98,17.08-18.49,24.88
			c-17.42-18.34-32.62-40.24-45.42-66.04c-16.33-32.89-28.74-72.11-36.83-118.34c-8.74,49.92-22.51,91.65-40.81,126.07
			c-0.21,0.41-0.43,0.82-0.65,1.23c-0.33-0.36-0.65-0.71-0.96-1.07c-9.08-10.02-17.53-20.91-25.32-32.73h30.1
			c-39.67-41.71-67.91-101.93-82.36-184.5c-14.45,82.57-42.69,142.79-82.36,184.5h30.1c-8.86,13.44-18.57,25.67-29.08,36.8
			c-29.91-40.02-51.6-93.36-63.66-162.3c-7.75,44.32-19.49,82.19-34.83,114.23c-39.04-41.66-66.87-101.49-81.17-183.23
			c-14.45,82.57-42.69,142.79-82.36,184.5h30.1c-5.25,7.97-10.81,15.49-16.65,22.64c-39-41.66-66.8-101.46-81.09-183.14
			c-14.45,82.57-42.69,142.79-82.36,184.5h30.1c-8.6,13.05-18.02,24.96-28.17,35.83c-26.26-38.78-45.48-88.97-56.57-152.33
			c-9.55,54.6-25.14,99.42-46.07,135.58c-28.51-39.58-49.24-91.76-60.93-158.58c-9.75,55.7-25.78,101.22-47.35,137.75
			c-32.5-40.67-55.93-96.04-68.65-168.75c-11.4,65.15-31.39,116.38-58.81,155.59c-14.05-30.82-24.89-66.84-32.19-108.59
			c-8.62,49.27-22.16,90.58-40.1,124.75c-13.56-24.26-24.79-52.3-33.48-84.45c-1.44-5.32-2.81-10.75-4.11-16.3
			c-1.13-4.84-2.21-9.76-3.23-14.78c-1.09-5.3-2.12-10.71-3.08-16.22c-1.38,7.9-2.89,15.6-4.53,23.09
			c-7.15,32.82-16.69,61.78-28.44,87.17c-20.45-23.87-37.55-53.17-50.92-88.51c-9.72-25.65-17.47-54.49-23.11-86.75
			c-3.75,21.43-8.43,41.34-13.99,59.82c-13.53,44.93-32.3,81.36-55.73,110.26c-20.27-28-36.62-62.34-48.61-103.74
			c-4.99-17.21-9.22-35.64-12.67-55.34c-6.84,39.1-16.78,73.17-29.55,102.66c-29.29-39.83-50.55-92.66-62.45-160.66
			c-14.45,82.57-42.69,142.79-82.36,184.5h30.1c-12.51,18.98-26.69,35.6-42.45,50h34.61c-6.38,8.42-13.16,16.34-20.29,23.84
			c-37.17-41.46-63.75-100.11-77.61-179.34c-12.18,69.63-34.18,123.37-64.56,163.52c-9.38-9.28-18.18-19.26-26.34-30.02h34.61
			c-15.76-14.4-29.94-31.02-42.45-50h30.1c-39.67-41.71-67.91-101.93-82.36-184.5c-14.45,82.57-42.69,142.79-82.36,184.5h30.1
			c-12.51,18.98-26.69,35.6-42.45,50h34.61c-12.77,16.85-27.06,31.82-42.78,45.05c-24-37.79-41.67-85.82-52.12-145.55
			c-9.75,55.7-25.78,101.22-47.35,137.76c-12.96-12.79-24.78-27.17-35.39-43.26h30.1c-39.67-41.71-67.91-101.93-82.36-184.5
			c-14.45,82.57-42.69,142.79-82.36,184.5h30.1c-8.09,12.27-16.89,23.54-26.35,33.88c-38.63-41.62-66.18-101.19-80.39-182.38
			c-11.14,63.69-30.5,114.07-56.97,152.92c-6.99-8.24-13.59-17.04-19.77-26.42h30.1c-39.67-41.71-67.91-101.93-82.36-184.5
			c-14.45,82.57-42.69,142.79-82.36,184.5h30.1c-5.65,8.57-11.66,16.64-17.98,24.26c-22.79-37.2-39.66-84.01-49.76-141.76
			c-5.55,31.72-13.14,60.13-22.63,85.47c-12.06-12.21-23.13-25.83-33.11-40.97h30.1c-39.67-41.71-67.91-101.93-82.36-184.5
			c-14.45,82.57-42.69,142.79-82.36,184.5h30.1c-12.51,18.98-26.69,35.6-42.45,50h34.61c-9.03,11.91-18.82,22.89-29.34,32.98
			c-18.67-34.69-32.71-76.88-41.56-127.48c-7.91,45.18-19.95,83.66-35.73,116.08c-15.58-14.3-29.62-30.78-42.01-49.58h30.1
			c-39.67-41.71-67.91-101.93-82.36-184.5c-14.45,82.57-42.69,142.79-82.36,184.5h30.1c-4.49,6.8-9.19,13.29-14.11,19.5
			c-13.66-12.09-26.2-25.55-37.53-40.5h34.61c-15.76-14.4-29.94-31.02-42.45-50h30.1c-39.67-41.71-67.91-101.93-82.36-184.5
			c-14.45,82.57-42.69,142.79-82.36,184.5h30.1c-11.21,17-23.76,32.09-37.58,45.41c-28.63-39.62-49.44-91.91-61.16-158.91
			c-7.83,44.73-19.71,82.88-35.25,115.1c-35.68-41.26-61.24-98.91-74.75-176.1c-11.07,63.25-30.24,113.38-56.43,152.12
			c-21.69-36.6-37.79-82.23-47.57-138.12c-10.49,59.96-28.26,108.12-52.4,145.98c-6.08-7.39-11.88-15.2-17.34-23.48h30.1
			c-39.67-41.71-67.91-101.93-82.36-184.5c-14.45,82.57-42.69,142.79-82.36,184.5h30.1c-12.51,18.98-26.69,35.6-42.45,50h34.61
			c-12.19,16.08-25.78,30.46-40.67,43.24c-8.56-9.62-16.56-20-23.97-31.24h30.1c-39.67-41.71-67.91-101.93-82.36-184.5
			c-12.26,70.08-34.47,124.06-65.16,164.29c-8.41-9.49-16.29-19.73-23.58-30.79h30.1c-39.67-41.71-67.91-101.93-82.36-184.5
			c-9.55,54.6-25.14,99.42-46.08,135.59c-12.61-11.46-24.24-24.13-34.82-38.09h34.61c-15.76-14.4-29.94-31.02-42.45-50h30.1
			c-39.67-41.71-67.91-101.93-82.36-184.5c-14.45,82.57-42.69,142.79-82.36,184.5h30.1c-11.08,16.81-23.48,31.76-37.12,44.97
			c-19.2-35.07-33.6-77.91-42.62-129.47c-4.21,24.05-9.6,46.2-16.09,66.55c-31.6-40.46-54.42-95.14-66.91-166.55
			c-14.45,82.57-42.69,142.79-82.36,184.5h30.1c-9.37,14.22-19.69,27.12-30.9,38.75c-15.35-32.04-27.08-69.92-34.84-114.25
			c-6.27,35.81-15.13,67.41-26.39,95.13c-28.34-39.53-48.96-91.56-60.61-158.13c-11.47,65.55-31.64,117-59.31,156.3
			C36.2,3720.85,14.87,3681.25,0,3631.19V4320h5657.14C5634.81,4292.42,5616.71,4257.98,5603.35,4215.85z M4506.65,4154.5
			c-5.36,6.41-10.94,12.48-16.77,18.23c-4.55-5.83-8.94-11.88-13.12-18.23H4506.65z M4124.06,4053.5
			c-3.77,7.78-7.75,15.2-11.94,22.29c-5.73-7.04-11.19-14.45-16.36-22.29H4124.06z M3973.47,4077.5
			c-4.95,5.98-10.11,11.68-15.46,17.09c-4.24-5.47-8.34-11.15-12.25-17.09H3973.47z M2943.09,4098.5
			c-3.98,3.98-8.07,7.83-12.27,11.54c-2.75-3.75-5.45-7.58-8.06-11.54H2943.09z M2818.24,4098.5c-3.93,5.97-8.05,11.68-12.31,17.18
			c-5.69-5.5-11.17-11.21-16.41-17.18H2818.24z M2789.07,4097.5c-0.08,0.08-0.15,0.17-0.23,0.25c-0.07-0.09-0.15-0.17-0.22-0.25
			H2789.07z M2650.38,4097.5c-5.51,6.33-11.29,12.37-17.3,18.17c-4.6-5.76-9.01-11.81-13.24-18.17H2650.38z M2513.05,4091.5
			c-3.41,5.43-6.96,10.65-10.64,15.67c-4.42-5.04-8.7-10.25-12.81-15.67H2513.05z M2348.91,4077.5c-4.56,4.87-9.26,9.56-14.12,14
			h34.61c-5.82,7.68-11.98,14.96-18.42,21.88c-10.18-10.88-19.6-22.81-28.22-35.88H2348.91z M1995.36,3996.5
			c-2.4,5.93-4.91,11.69-7.52,17.27c-4.93-5.53-9.69-11.27-14.24-17.27H1995.36z M1746.57,4018.5c-4.16,8.52-8.57,16.62-13.24,24.31
			c-7.29-7.64-14.22-15.72-20.73-24.31H1746.57z M1578.23,3997.5c-3.35,3.85-6.78,7.58-10.31,11.18c-3.51-3.64-6.97-7.35-10.3-11.18
			H1578.23z M1428.4,3947.5c-4.21,5.55-8.6,10.87-13.13,16.02c-4.56-5.08-8.98-10.41-13.22-16.02H1428.4z M1410.81,3968.5
			c-3.98,4.31-8.08,8.47-12.3,12.49c-3-4.05-5.92-8.2-8.75-12.49H1410.81z M1298.05,3907.5c-2.59,4.99-5.27,9.82-8.05,14.5
			c-3.52-4.67-6.94-9.5-10.24-14.5H1298.05z M772.24,3921.5c-0.26,0.39-0.52,0.76-0.78,1.14l-1.47-1.14H772.24z M482.4,3783.5
			c-4.8,6.34-9.84,12.39-15.07,18.21c-3.95-5.81-7.75-11.88-11.38-18.21H482.4z M388.24,3733.5c-1,2.67-2.02,5.31-3.05,7.92
			c-1.84-2.6-3.66-5.23-5.43-7.92H388.24z M267.4,3783.5c-3.32,4.38-6.75,8.61-10.26,12.74c-2.45-4.13-4.83-8.38-7.14-12.74H267.4z
			 M70.24,3779.5c-2.24,3.4-4.55,6.69-6.89,9.94c-2.89-3.22-5.71-6.54-8.47-9.94H70.24z M58.69,3757.5
			c-3.44,4.59-6.98,9-10.64,13.24c-3.19-4.28-6.29-8.69-9.29-13.24H58.69z M49.11,3807.5c-0.44,0.51-0.89,1.01-1.33,1.51
			c-0.39-0.51-0.79-1-1.18-1.51H49.11z M4506.94,4192.47c-0.88-0.92-1.76-1.85-2.62-2.79c-3.06-3.29-6.05-6.69-8.97-10.18h22.05
			c-2.67,3.52-5.41,6.95-8.21,10.3C4508.45,4190.7,4507.7,4191.59,4506.94,4192.47z M5270.98,4224.18
			c-4.84-5.31-9.51-10.83-13.98-16.58c-0.81-1.02-1.61-2.06-2.4-3.1h27.86c-0.66,1.23-1.32,2.45-1.99,3.66
			C5277.43,4213.69,5274.26,4219.03,5270.98,4224.18z M5525.28,4310.36c-3.63-4.79-7.14-9.73-10.521-14.86h20.66
			C5532.15,4300.64,5528.77,4305.59,5525.28,4310.36z"/>
	<linearGradient id="SVGID_15_" gradientUnits="userSpaceOnUse" x1="6120.2549" y1="1411" x2="6120.2549" y2="1010">
		<stop  offset="0" style="stop-color:#C0DAF0"/>
		<stop  offset="0.3046" style="stop-color:#CAE3F5"/>
		<stop  offset="1" style="stop-color:#DCF5FF"/>
	</linearGradient>
	<path class="st15" d="M7441.51,1377.213c0,11.47-0.818,22.753-2.4,33.787H4801.081c-1.378-11.07-2.081-22.344-2.081-33.787
		c0-150.753,122.211-272.965,272.964-272.965c39.602,0,77.23,8.429,111.195,23.607C5257.98,1054.928,5360.222,1010,5472.964,1010
		c174.262,0,323.441,107.345,385.04,259.512c36.57-17.587,77.577-27.448,120.878-27.448c35.565,0,69.575,6.651,100.854,18.77
		c36.508-125.901,152.691-217.936,290.365-217.936c101.61,0,191.511,50.129,246.308,127.004
		c43.47-19.339,91.599-30.088,142.244-30.088c98.027,0,186.656,40.269,250.229,105.158
		c42.501-62.906,114.476-104.269,196.117-104.269C7335.623,1140.703,7441.51,1246.59,7441.51,1377.213z"/>
	<linearGradient id="SVGID_16_" gradientUnits="userSpaceOnUse" x1="1458.5" y1="730" x2="1458.5" y2="149.87">
		<stop  offset="0" style="stop-color:#C0DAF0"/>
		<stop  offset="0.3046" style="stop-color:#CAE3F5"/>
		<stop  offset="1" style="stop-color:#DCF5FF"/>
	</linearGradient>
	<path class="st16" d="M2917,730H0V379.85c55.28-40.47,123.47-64.37,197.23-64.37c148.34,0,274.13,96.65,317.79,230.41
		c35.28-58.67,99.56-97.93,173.01-97.93c89.1,0,164.7,57.76,191.42,137.87c22.73-23.52,52.94-39.74,86.81-44.83
		c65.33-225.93,273.73-391.13,520.71-391.13c226.47,0,420.51,138.91,501.54,336.16c50.82-30.54,110.33-48.1,173.95-48.1
		c78.23,0,150.27,26.55,207.57,71.16c58.09-55.88,137.04-90.23,224.01-90.23C2768.5,418.86,2910.68,557.08,2917,730z"/>
		<linearGradient id="SVGID_17_" gradientUnits="userSpaceOnUse" x1="4373.9092" y1="1382.8536" x2="4373.9092" y2="1337.022" gradientTransform="matrix(0.9992 -0.0391 0.0391 0.9992 -77.6375 227.3456)">
		<stop  offset="5.381067e-07" style="stop-color:#3E4C66"/>
		<stop  offset="1" style="stop-color:#556975"/>
	</linearGradient>
	<path class="st17" d="M4384.075,1390.78c-13.808,0.54-26.79,5.049-38.425,12.726c-12.2-6.745-25.495-10.225-39.303-9.684
		c-22.28,0.872-42.418,12.078-58.202,30.252c10.851-5.061,22.449-8.008,34.558-8.482c23.208-0.908,45.25,7.38,64.3,22.506
		c17.81-16.568,39.138-26.554,62.345-27.462c12.109-0.474,23.902,1.558,35.115,5.755
		C4427.308,1399.506,4406.355,1389.908,4384.075,1390.78z"/>
	
		<linearGradient id="SVGID_18_" gradientUnits="userSpaceOnUse" x1="3614.1714" y1="909.5563" x2="3614.1714" y2="858.6321" gradientTransform="matrix(0.996 -0.0891 0.0891 0.996 -93.4867 384.747)">
		<stop  offset="5.381067e-07" style="stop-color:#3E4C66"/>
		<stop  offset="1" style="stop-color:#556975"/>
	</linearGradient>
	<path class="st18" d="M3625.86,914.076c-15.293,1.368-29.449,7.094-41.933,16.261c-13.913-6.806-28.861-9.928-44.154-8.56
		c-24.676,2.208-46.4,15.764-62.905,36.81c11.76-6.22,24.466-10.136,37.878-11.336c25.703-2.299,50.626,5.671,72.608,21.396
		c18.841-19.377,41.954-31.645,67.657-33.945c13.412-1.2,26.611,0.398,39.288,4.432
		C3674.321,921.353,3650.536,911.868,3625.86,914.076z"/>
	
		<linearGradient id="SVGID_19_" gradientUnits="userSpaceOnUse" x1="2909.3384" y1="1823.5911" x2="2909.3384" y2="1777.7593" gradientTransform="matrix(0.9841 0.1776 -0.1776 0.9841 356.5933 -375.7913)">
		<stop  offset="5.381067e-07" style="stop-color:#3E4C66"/>
		<stop  offset="1" style="stop-color:#556975"/>
	</linearGradient>
	<path class="st19" d="M2942.33,1897.195c-13.599-2.454-27.249-0.854-40.267,4.13c-10.456-9.219-22.686-15.488-36.285-17.942
		c-21.943-3.959-44.026,2.635-63.361,16.972c11.688-2.599,23.648-2.972,35.574-0.821c22.856,4.124,42.59,16.975,57.925,35.858
		c20.967-12.333,43.948-17.478,66.804-13.354c11.926,2.152,23.002,6.681,33.044,13.201
		C2982.659,1915.049,2964.273,1901.153,2942.33,1897.195z"/>
	
		<linearGradient id="SVGID_20_" gradientUnits="userSpaceOnUse" x1="2706.2749" y1="1713.8547" x2="2706.2749" y2="1662.9305" gradientTransform="matrix(0.9841 0.1776 -0.1776 0.9841 356.5933 -375.7913)">
		<stop  offset="5.381067e-07" style="stop-color:#3E4C66"/>
		<stop  offset="1" style="stop-color:#556975"/>
	</linearGradient>
	<path class="st20" d="M2767.135,1748.903c-15.11-2.726-30.276-0.949-44.741,4.589c-11.617-10.244-25.207-17.209-40.316-19.935
		c-24.381-4.399-48.917,2.928-70.401,18.858c12.986-2.888,26.276-3.302,39.527-0.912c25.396,4.582,47.322,18.862,64.361,39.842
		c23.296-13.703,48.831-19.419,74.226-14.838c13.251,2.391,25.558,7.424,36.716,14.668
		C2811.945,1768.741,2791.516,1753.302,2767.135,1748.903z"/>
	
		<linearGradient id="SVGID_21_" gradientUnits="userSpaceOnUse" x1="1343.4751" y1="925.9438" x2="1343.4751" y2="880.1121" gradientTransform="matrix(0.9981 -0.0623 0.0623 0.9981 -97.0079 259.5761)">
		<stop  offset="5.381067e-07" style="stop-color:#3E4C66"/>
		<stop  offset="1" style="stop-color:#556975"/>
	</linearGradient>
	<path class="st21" d="M1337.51,1051.85c-13.792,0.861-26.666,5.67-38.12,13.615c-12.353-6.459-25.725-9.63-39.517-8.769
		c-22.254,1.389-42.126,13.06-57.484,31.596c10.73-5.312,22.257-8.527,34.352-9.282c23.18-1.447,45.41,6.327,64.806,21.006
		c17.42-16.978,38.51-27.456,61.69-28.903c12.095-0.755,23.932,1.002,35.239,4.938
		C1380.934,1059.57,1359.764,1050.461,1337.51,1051.85z"/>
	
		<linearGradient id="SVGID_22_" gradientUnits="userSpaceOnUse" x1="4633.3198" y1="1481.7054" x2="4633.3198" y2="1430.7813" gradientTransform="matrix(0.9992 -0.0391 0.0391 0.9992 -77.6375 227.3456)">
		<stop  offset="5.381067e-07" style="stop-color:#3E4C66"/>
		<stop  offset="1" style="stop-color:#556975"/>
	</linearGradient>
	<path class="st22" d="M4651.271,1474.155c-15.342,0.6-29.767,5.61-42.695,14.14c-13.555-7.494-28.327-11.361-43.669-10.76
		c-24.756,0.969-47.131,13.42-64.669,33.613c12.057-5.623,24.943-8.898,38.398-9.424c25.786-1.009,50.278,8.2,71.445,25.006
		c19.788-18.409,43.486-29.504,69.272-30.513c13.455-0.527,26.558,1.731,39.017,6.395
		C4699.308,1483.85,4676.027,1473.186,4651.271,1474.155z"/>
	
		<linearGradient id="SVGID_23_" gradientUnits="userSpaceOnUse" x1="6468.002" y1="780.2222" x2="6468.002" y2="734.3904" gradientTransform="matrix(0.9978 0.0668 -0.0668 0.9978 12.1292 -456.8034)">
		<stop  offset="5.381067e-07" style="stop-color:#3E4C66"/>
		<stop  offset="1" style="stop-color:#556975"/>
	</linearGradient>
	<path class="st23" d="M6455.386,710.869c-13.788-0.924-27.174,2.186-39.556,8.589c-11.417-7.997-24.27-12.865-38.058-13.788
		c-22.247-1.49-43.458,7.522-61.076,23.924c11.325-3.885,23.17-5.588,35.261-4.778c23.173,1.552,44.216,12.126,61.559,29.183
		c19.462-14.591,41.728-22.264,64.901-20.711c12.091,0.81,23.603,4.078,34.309,9.438
		C6497.453,724.12,6477.633,712.359,6455.386,710.869z"/>
</svg>
