<?xml version="1.0" encoding="utf-8"?>
<svg xmlns="http://www.w3.org/2000/svg" viewBox="0 0 7680 4320">
<style type="text/css">
	.st0{fill:url(#SVGID_1_);}
	.st1{fill:#D4DDF4;}
	.st2{opacity:0.15;fill:url(#SVGID_2_);}
	.st3{opacity:0.15;fill:url(#SVGID_3_);}
	.st4{fill:url(#SVGID_4_);}
	.st5{fill:url(#SVGID_5_);}
	.st6{fill:url(#SVGID_6_);}
	.st7{fill:url(#SVGID_7_);}
	.st8{fill:url(#SVGID_8_);}
	.st9{fill:url(#SVGID_9_);}
	.st10{fill:url(#SVGID_10_);}
	.st11{fill:url(#SVGID_11_);}
	.st12{fill:#A3B6C2;}
	.st13{fill:url(#SVGID_12_);}
	.st14{fill:url(#SVGID_13_);}
	.st15{fill:url(#SVGID_14_);}
	.st16{fill:url(#SVGID_15_);}
	.st17{fill:url(#SVGID_16_);}
	.st18{fill:url(#SVGID_17_);}
	.st19{fill:url(#SVGID_18_);}
	.st20{fill:url(#SVGID_19_);}
	.st21{opacity:0.6;fill-rule:evenodd;clip-rule:evenodd;fill:url(#SVGID_20_);}
	.st22{opacity:0.6;fill-rule:evenodd;clip-rule:evenodd;fill:url(#SVGID_21_);}
	.st23{fill:url(#SVGID_22_);}
	.st24{fill:url(#SVGID_23_);}
	.st25{fill:url(#SVGID_24_);}
	.st26{fill:url(#SVGID_25_);}
	.st27{fill:url(#SVGID_26_);}
	.st28{fill:url(#SVGID_27_);}
	.st29{fill:url(#SVGID_28_);}
	.st30{fill:url(#SVGID_29_);}
	.st31{opacity:0.6;fill-rule:evenodd;clip-rule:evenodd;fill:url(#SVGID_30_);}
	.st32{opacity:0.6;fill-rule:evenodd;clip-rule:evenodd;fill:url(#SVGID_31_);}
	.st33{opacity:0.6;fill-rule:evenodd;clip-rule:evenodd;fill:url(#SVGID_32_);}
</style>
	<linearGradient id="SVGID_1_" gradientUnits="userSpaceOnUse" x1="3840" y1="4320" x2="3840" y2="-9.094947e-13">
		<stop  offset="6.527824e-07" style="stop-color:#1E1A30"/>
		<stop  offset="0.9962" style="stop-color:#202045"/>
		<stop  offset="1" style="stop-color:#202045"/>
	</linearGradient>
	<rect class="st0" width="7680" height="4320"/>
	<circle class="st1" cx="2272.6" cy="207.5" r="24.2"/>
	<circle class="st1" cx="3406.6" cy="213.5" r="24.2"/>
	<circle class="st1" cx="1908.2" cy="948.7" r="24.2"/>
	<circle class="st1" cx="5196.2" cy="948.7" r="24.2"/>
	<circle class="st1" cx="373.2" cy="795.7" r="24.2"/>
	<circle class="st1" cx="1764.4" cy="1825" r="24.2"/>
	<circle class="st1" cx="1317.4" cy="591.7" r="24.2"/>
	<circle class="st1" cx="251" cy="1630.8" r="24.2"/>
	<circle class="st1" cx="1187.7" cy="1199.8" r="24.2"/>
	<circle class="st1" cx="888.4" cy="409.2" r="24.2"/>
	<circle class="st1" cx="7447.1" cy="441" r="24.2"/>
	<circle class="st1" cx="7330.5" cy="1632.6" r="24.2"/>
	<circle class="st1" cx="7187.2" cy="936.6" r="24.2"/>
	<circle class="st1" cx="5994.7" cy="1467.1" r="24.2"/>
	<circle class="st1" cx="6231.8" cy="532" r="24.2"/>
	<circle class="st1" cx="5168" cy="188.2" r="24.2"/>
		<radialGradient id="SVGID_2_" cx="3840" cy="2160" r="1936.5" gradientUnits="userSpaceOnUse">
			<stop  offset="0" style="stop-color:#C2DBEA"/>
			<stop  offset="1" style="stop-color:#CEE0EA"/>
		</radialGradient>
		<circle class="st2" cx="3840" cy="2160" r="1936.5"/>
		<radialGradient id="SVGID_3_" cx="3840" cy="2160" r="1613.75" gradientUnits="userSpaceOnUse">
			<stop  offset="0" style="stop-color:#ACD2EA"/>
			<stop  offset="1" style="stop-color:#C5DDEA"/>
		</radialGradient>
		<circle class="st3" cx="3840" cy="2160" r="1613.8"/>
		<radialGradient id="SVGID_4_" cx="3840" cy="2160" r="1291" gradientUnits="userSpaceOnUse">
			<stop  offset="0" style="stop-color:#C2DBEA"/>
			<stop  offset="1" style="stop-color:#CEE0EA"/>
		</radialGradient>
		<circle class="st4" cx="3840" cy="2160" r="1291"/>
	<linearGradient id="SVGID_5_" gradientUnits="userSpaceOnUse" x1="4439.5996" y1="1547.5995" x2="4698.4004" y2="1806.4005">
		<stop  offset="2.549931e-07" style="stop-color:#B5CDE0"/>
		<stop  offset="1" style="stop-color:#C6DAE6"/>
	</linearGradient>
	<circle class="st5" cx="4569" cy="1677" r="183"/>
	<linearGradient id="SVGID_6_" gradientUnits="userSpaceOnUse" x1="3261.687" y1="1580.687" x2="3453.313" y2="1772.313">
		<stop  offset="2.549931e-07" style="stop-color:#B5CDE0"/>
		<stop  offset="1" style="stop-color:#C6DAE6"/>
	</linearGradient>
	<circle class="st6" cx="3357.5" cy="1676.5" r="135.5"/>
	<linearGradient id="SVGID_7_" gradientUnits="userSpaceOnUse" x1="3761.4106" y1="2267.4106" x2="3898.5894" y2="2404.5894">
		<stop  offset="2.549931e-07" style="stop-color:#B5CDE0"/>
		<stop  offset="1" style="stop-color:#C6DAE6"/>
	</linearGradient>
	<circle class="st7" cx="3830" cy="2336" r="97"/>
	<linearGradient id="SVGID_8_" gradientUnits="userSpaceOnUse" x1="3871.4106" y1="1117.4106" x2="4008.5894" y2="1254.5894">
		<stop  offset="2.549931e-07" style="stop-color:#B5CDE0"/>
		<stop  offset="1" style="stop-color:#C6DAE6"/>
	</linearGradient>
	<circle class="st8" cx="3940" cy="1186" r="97"/>
	<linearGradient id="SVGID_9_" gradientUnits="userSpaceOnUse" x1="2874.2097" y1="1817.2096" x2="2971.7903" y2="1914.7904">
		<stop  offset="2.549931e-07" style="stop-color:#B5CDE0"/>
		<stop  offset="1" style="stop-color:#C6DAE6"/>
	</linearGradient>
	<circle class="st9" cx="2923" cy="1866" r="69"/>
	<linearGradient id="SVGID_10_" gradientUnits="userSpaceOnUse" x1="3796" y1="4263" x2="3796" y2="1831">
		<stop  offset="1.611557e-06" style="stop-color:#3E5D78"/>
		<stop  offset="1" style="stop-color:#889CB4"/>
	</linearGradient>
	<path class="st10" d="M7592,2417l-1.7,353.4l-1.6,330.2l-2.4,498.4c0,0,0,0,0,0l-1.1,214.5L7583,4263l-1979.6-47.1l-31.5-0.8
		l-80-1.9l-58.1-1.4l-66.1-1.6l-87.2-2.1l-23.5-0.6l-747.8-17.8l-4.9-0.1l-856.3-20.4l-671.1-16L0,4082.4V2292.7L279,1962
		l239.1,256.5L553,2256l522.1,57.2l64.6,7.1l26.9,2.9L1374,2346l75.3-69.5L1766,1984l364,378l282-284l302.9,224.3L2867,2415
		l498.1,14.6l19.9,0.6l78.5,2.3L4471,2462l116.8-123l314.2-331l196,197l402-374l375,215.6l105,60.4l83.9-2.4l308.1-8.6l36.2-33.3
		L6583,1902l304.3,209.9l95.7,66.1l199.9,78.4l37.5,14.7l55.4,21.7L7592,2417z"/>
		<linearGradient id="SVGID_11_" gradientUnits="userSpaceOnUse" x1="4023.3655" y1="2472.1267" x2="4023.3655" y2="1818.6538">
			<stop  offset="1.631956e-06" style="stop-color:#DDE3EB"/>
			<stop  offset="1" style="stop-color:#C5DCEB"/>
		</linearGradient>
		<polygon class="st11" points="1573.6,2160.3 1765.2,1983.1 1766,1982.4 1766.8,1983.2 2131.1,2361 2128.9,2360.9 2410.9,2076.9 
			2411.8,2075.9 2413,2076.7 2868,2413.6 2867.1,2413.3 4471.1,2460.1 4469.6,2460.7 4900.7,2006.8 4902,2005.5 4903.2,2006.8 
			5099.2,2203.8 5096.8,2203.8 5498.9,1829.8 5499.8,1829.1 5500.8,1829.6 5980.7,2105.8 5980,2105.7 6372,2094.9 6371.3,2095.2 
			6471.8,2002.9 6473.1,2004.4 6374,2098.1 6373.2,2098.9 6372.1,2098.9 6274.1,2102.9 6176.1,2106.8 6078.2,2110.6 5980.2,2114.3 
			5978.2,2114.4 5976.3,2113.4 5855.7,2045.5 5735.1,1977.5 5494.1,1841.3 5508.1,1839.7 5408.3,1933.9 5308.3,2028 5108.3,2216 
			5097.7,2226 5087.3,2215.6 4890.5,2019.4 4913.8,2019.2 4698.9,2246.8 4483.8,2474.2 4478.4,2479.9 4470.5,2479.7 4069.5,2468.2 
			3668.5,2456.2 3267.5,2443.7 3067,2437.3 2866.5,2430.6 2861.6,2430.5 2857.7,2427.6 2631,2258 2404.4,2088.2 2421,2087 
			2136.9,2368.9 2129.8,2375.9 2123,2368.8 2077.9,2321.1 2032.8,2273.4 1942.7,2178.1 1852.7,2082.7 1762.8,1987.1 1769,1987.3 
			1720.6,2031 1672.1,2074.6 1575,2161.8 		"/>
		<polygon class="st12" points="7495.4,3130.8 6597.5,3322.2 6595.3,3272.9 6594.9,3262.8 6692.4,3243.9 6638.2,2501.9 
			6586.7,2408.3 6594,2400.7 6599,2409.9 7197.8,1790.9 7208.1,1780.2 7192.2,2279.9 7268.5,2222.4 7419.2,2825.6 7419.2,2825.6 
			7432.1,2877.3 7432.1,2877.3 7493,3121.1 		"/>
		<linearGradient id="SVGID_12_" gradientUnits="userSpaceOnUse" x1="7430.75" y1="3123.1401" x2="7430.75" y2="1770">
			<stop  offset="3.356507e-07" style="stop-color:#566B8F"/>
			<stop  offset="1" style="stop-color:#A5BEC4"/>
		</linearGradient>
		<path class="st13" d="M7680,2392.9v688.3l-91.3,19.5l-95.7,20.4l-9.8,2.1l-60.5-242.1c0,0,0,0,0-0.1l-13.5-54.1c0,0,0,0,0,0
			l-2.2-8.7l-131.1-525.2l-13.3-53.4l-42.1,31.7l-38.9,29.3l1.4-44.1l14.8-465.5l10.4-10.7v0l9.9-10.2l176,355l120,29L7680,2392.9z"
			/>
		<linearGradient id="SVGID_13_" gradientUnits="userSpaceOnUse" x1="6424.146" y1="2179.9614" x2="7287.0151" y2="2179.9614">
			<stop  offset="3.263912e-07" style="stop-color:#C5DCEB"/>
			<stop  offset="1" style="stop-color:#DDE3EB"/>
		</linearGradient>
		<path class="st14" d="M6430.8,2591l96.1-104.8l48.1-52.4c8-8.7,16-17.5,24.1-26.1l24.7-25.6l197.5-204.6l49.4-51.1l49.5-51
			l99-102.1l198-204.2l1.4-1.4l0.9,1.8l59.7,121.3l-1.8,0.9c-5.8-9.7-11.3-19.5-17-29.3c-2.8-4.9-5.6-9.8-8.4-14.7l-8.3-14.7
			l-8.3-14.7l-4.2-7.4l-4.1-7.4l-16.3-29.6l13.3,2.1l-11.8,13.3c-3.9,4.4-7.9,8.9-11.8,13.3l-23.8,26.4
			c-15.9,17.6-31.7,35.3-47.8,52.7c-32,35-64.3,69.7-96.6,104.3c-64.8,69.2-130.4,137.6-196.6,205.4c-66.2,67.8-133,135-200.8,201.4
			l-25.4,24.9c-8.4,8.4-16.7,16.8-25,25.2l-25,25.3c-4.2,4.2-8.3,8.4-12.5,12.6l-12.6,12.5l-25.2,25.1c-4.2,4.2-8.4,8.4-12.6,12.5
			l-12.7,12.4c-8.5,8.3-17,16.6-25.5,24.8c-8.6,8.2-17.1,16.5-25.8,24.6L6430.8,2591z"/>
		<polygon class="st12" points="6067.3,2187.3 5840.3,2625.2 5967.6,2556.4 5715.7,3443.2 5704.7,3445.4 5371,3510 5220,3038 
			5616,2235 5763,2220 5971,1898 6081.2,1886.6 6091.4,1885.5 		"/>
		<linearGradient id="SVGID_14_" gradientUnits="userSpaceOnUse" x1="6203.8599" y1="3445.3599" x2="6203.8599" y2="1864">
			<stop  offset="3.356507e-07" style="stop-color:#566B8F"/>
			<stop  offset="1" style="stop-color:#A5BEC4"/>
		</linearGradient>
		<polygon class="st15" points="6703,3252 6605.2,3270.9 6595.3,3272.9 5715.7,3443.2 5704.7,3445.4 5951.5,2576.5 5816.5,2649.5 
			6057.5,2184.5 6081.2,1886.6 6091.4,1885.5 6299,1864 6594,2400.7 6599,2409.9 6648,2499 		"/>
		<linearGradient id="SVGID_15_" gradientUnits="userSpaceOnUse" x1="5209.2446" y1="2496.9146" x2="6364.4141" y2="2496.9146">
			<stop  offset="3.263912e-07" style="stop-color:#C5DCEB"/>
			<stop  offset="1" style="stop-color:#DDE3EB"/>
		</linearGradient>
		<path class="st16" d="M5248.7,3131.1l-29.9-92.8l-0.1-0.5l0.2-0.4l98.7-200.9l98.9-200.8l197.7-401.6l0.5-1l1.1-0.1l147-14.9
			l-1.4,0.9l208.2-321.9l0.4-0.7l0.8-0.1l164-16.9l164-16.7l0.8-0.1l0.4,0.7l56.4,103.2l-1.8,1c-5.1-8.4-10.2-16.8-15.3-25.2
			l-15.2-25.2l-15.1-25.3l-15-25.3l5.4,2.8c-27.2,3.8-54.5,7.3-81.7,11c-27.3,3.6-54.5,7.3-81.8,10.7l-81.8,10.3
			c-27.3,3.5-54.6,6.8-81.8,10.1l10-6.1c-16.8,27.2-33.8,54.2-50.8,81.3l-25.5,40.6l-25.5,40.5l-25.6,40.5l-25.7,40.5
			c-17.1,27-34.4,53.9-51.5,80.8l-4.5,7.1l-8.5,0.9l-36.7,3.9l-36.7,3.8l-73.5,7.6l14.3-9.9l-49.6,100.3l-50,100.2l-50.3,100
			l-50.7,99.8c-17,33.2-33.9,66.5-51.1,99.6l-12.8,24.9c-4.3,8.3-8.6,16.6-12.9,24.8l-25.9,49.6l-25.9,49.6l-6.5,12.4l-6.5,12.4
			l-13.1,24.7l-26.2,49.5c-4.3,8.3-8.8,16.5-13.2,24.7l-13.2,24.7l0.3-3.6l6.6,23.5c2.2,7.8,4.4,15.7,6.5,23.5l6.5,23.5l6.4,23.5
			L5248.7,3131.1z"/>
		<polygon class="st12" points="1935.7,3050 1761.2,3338.7 1661.9,3326.4 1590.6,3317.5 1585.8,3306.8 1464.7,3037.7 1464.7,3037.7 
			1268.4,2601.1 1116,2564.8 1065.3,2315.2 1042.8,2204.6 1156.6,2323.4 1080.5,1847.4 1092.1,1856.4 1282,2004 1840.1,2913.3 
			1845.8,2903.6 		"/>
		<linearGradient id="SVGID_16_" gradientUnits="userSpaceOnUse" x1="798.69" y1="3308.28" x2="798.69" y2="1833">
			<stop  offset="3.356507e-07" style="stop-color:#566B8F"/>
			<stop  offset="1" style="stop-color:#A5BEC4"/>
		</linearGradient>
		<polygon class="st17" points="1597.4,3308.3 1585.8,3306.8 1585.8,3306.8 0,3109.7 0,2838 404,2237 518.1,2218.5 657,2196 
			813,1874 1062,1833 1080.5,1847.4 1092.1,1856.4 1166.7,2323.3 1171.5,2353.5 1139.7,2320.3 1059.5,2236.5 1075.1,2313.2 
			1124.5,2556.5 1275.5,2592.5 1474.7,3035.6 1474.7,3035.6 		"/>
		<linearGradient id="SVGID_17_" gradientUnits="userSpaceOnUse" x1="773.0721" y1="2482.2146" x2="1935.7086" y2="2482.2146">
			<stop  offset="3.263912e-07" style="stop-color:#C5DCEB"/>
			<stop  offset="1" style="stop-color:#DDE3EB"/>
		</linearGradient>
		<path class="st18" d="M781.2,1937.4l30.8-63.9l0.3-0.5l0.6-0.1l248.9-41.4l0.7-0.1l0.5,0.4l220.1,170.8l0.3,0.2l0.2,0.3
			l160.7,261.4l160.4,261.6l160.3,261.6l80.2,130.8l80,130.9l0.4,0.6l-0.4,0.6l-50.1,82.5l-1.7-1l11.6-21.2l11.6-21.2
			c3.9-7.1,7.7-14.1,11.7-21.1l11.7-21.1l0,5l-21.2-32l-21-32.1l-42-64.2l-41.6-64.5l-20.8-32.2l-10.4-16.1l-10.3-16.2
			c-55.1-86.2-109.8-172.6-163.9-259.4l-20.3-32.5l-20.2-32.6l-40.4-65.2c-26.8-43.5-53.7-87-80.3-130.7
			c-53.4-87.2-106.3-174.7-158.9-262.5l3.8,4.3l-54.5-43.4l-54.4-43.6l-54.2-43.7c-18.1-14.6-36-29.3-54.1-44l8.8,2.2l-62.5,8.8
			l-15.6,2.2l-15.6,2.1l-31.3,4.2l-62.6,8.4l-62.6,8l2.9-2.2c-5.5,10.5-11.2,20.9-16.7,31.3l-8.4,15.6l-8.5,15.6L781.2,1937.4z"/>
	<linearGradient id="SVGID_18_" gradientUnits="userSpaceOnUse" x1="2222" y1="3663" x2="2222" y2="2392">
		<stop  offset="3.356507e-07" style="stop-color:#566B8F"/>
		<stop  offset="1" style="stop-color:#A5BEC4"/>
	</linearGradient>
	<polygon class="st19" points="2839,2707 2704,3663 1661.9,3326.4 1611.2,3310 1605,3308 1840.1,2913.3 1845.8,2903.6 1948,2732 
		2103,2703 2234,2474 2492,2392 	"/>
		<linearGradient id="SVGID_19_" gradientUnits="userSpaceOnUse" x1="2149.7422" y1="2657.3279" x2="2849.6421" y2="2657.3279">
			<stop  offset="3.263912e-07" style="stop-color:#C5DCEB"/>
			<stop  offset="1" style="stop-color:#DDE3EB"/>
		</linearGradient>
		<path class="st20" d="M2157.6,2605.6l75.1-132.4l0.3-0.5l0.6-0.2l257.9-82.3l1-0.3l0.8,0.7l86.8,78.6l86.7,78.8l173.3,157.7
			l0.6,0.6l-0.1,0.8L2825,2816l-15.7,108.7l-2-0.3c0.5-9.2,1.2-18.3,1.8-27.5c0.6-9.2,1.4-18.3,2.1-27.4l2.2-27.4l2.5-27.4l2.5-27.4
			c0.8-9.1,1.8-18.2,2.7-27.4l5.5-54.7l4,11c-29.8-25.3-59.5-50.7-88.9-76.4l-22.1-19.3l-22-19.4l-22-19.4l-21.9-19.5
			c-14.6-13-29.2-26-43.6-39.1l-21.7-19.6l-10.9-9.8l-10.8-9.9l-43.2-39.5l-43-39.8l16.8,3.7l-32.4,9.8c-10.8,3.3-21.6,6.5-32.4,9.7
			l-32.5,9.6c-10.8,3.2-21.7,6.3-32.5,9.4c-21.7,6.3-43.4,12.4-65.1,18.6l-65.3,17.9l5.6-4.5l-5.1,8.1l-5.1,8l-10.3,16
			c-6.9,10.7-13.7,21.4-20.6,32l-20.9,31.9l-10.6,15.8l-5.3,7.9l-5.4,7.9L2157.6,2605.6z"/>
	<linearGradient id="SVGID_20_" gradientUnits="userSpaceOnUse" x1="1142.8899" y1="963" x2="1142.8899" y2="628">
		<stop  offset="7.458905e-07" style="stop-color:#E8FAFF"/>
		<stop  offset="1" style="stop-color:#B1CFE6"/>
	</linearGradient>
	<path class="st21" d="M2047.4,933.4c0,10.2-1.2,20.1-3.5,29.6H246.1c-5-17.3-7.7-35.6-7.7-54.5c0-107.6,87.2-194.8,194.8-194.8
		c35.9,0,69.5,9.7,98.4,26.7C577.8,688.6,645,656,719.9,656c99.5,0,185.6,57.6,226.7,141.3c23.4-18.2,52.3-29.7,83.7-31.8
		c51.4-82.6,143-137.5,247.5-137.5c102.4,0,192.5,52.9,244.5,132.8c35.6-29.4,81.2-47.1,131-47.1c82.9,0,154.3,49.1,186.9,119.7
		c21.8-17.4,49.5-27.8,79.5-27.8C1990.2,805.6,2047.4,862.8,2047.4,933.4z"/>
	<linearGradient id="SVGID_21_" gradientUnits="userSpaceOnUse" x1="4568.5215" y1="1442" x2="4568.5215" y2="1010">
		<stop  offset="7.458905e-07" style="stop-color:#E8FAFF"/>
		<stop  offset="1" style="stop-color:#B1CFE6"/>
	</linearGradient>
	<path class="st22" d="M5768.3,1399.5c0,14.5-1.2,28.7-3.6,42.5h-2383c-8.4-26.9-12.9-55.4-12.9-85.1c0-157,127.3-284.3,284.3-284.3
		c129.8,0,239.3,87,273.3,205.9c34.7-31.9,81-51.4,131.8-51.4c43.2,0,83.1,14.1,115.4,37.8c44.2-133.8,170.3-230.3,318.9-230.3
		c79.9,0,153.3,27.9,210.9,74.6c72.1-61.8,165.7-99.2,268.1-99.2c155.9,0,291.5,86.6,361.5,214.3c46-47.9,110.8-77.8,182.4-77.8
		C5655,1146.5,5768.3,1259.8,5768.3,1399.5z"/>
	<linearGradient id="SVGID_22_" gradientUnits="userSpaceOnUse" x1="2914.395" y1="3691.8201" x2="2914.395" y2="1040.25">
		<stop  offset="2.663895e-07" style="stop-color:#9DB3C2"/>
		<stop  offset="1" style="stop-color:#ADC5D6"/>
	</linearGradient>
	<polygon class="st23" points="3439,2112 3376.4,2424.1 3515.6,2321.5 3220.4,3111.6 3186.1,3691.8 3176.2,3690.4 2166,3543 
		2742,2241 2959,2131 3238,1727 3431,1653 3627,1071 3651.7,1049.8 3662.8,1040.3 3575.2,1864.6 	"/>
	<linearGradient id="SVGID_23_" gradientUnits="userSpaceOnUse" x1="4465.0898" y1="4851.5654" x2="4465.0898" y2="1010">
		<stop  offset="1.805351e-06" style="stop-color:#57718A"/>
		<stop  offset="1" style="stop-color:#9DB6CF"/>
	</linearGradient>
	<polygon class="st24" points="5754,3642 3722,3770 3186.1,3691.8 3176.2,3690.4 3210.5,3109.5 3494.5,2349.5 3361.5,2447.5 
		3429.5,2108.5 3565.5,1861.5 3651.7,1049.8 3662.8,1040.3 3698,1010 4507,1999 4617,2462 4923,2542 	"/>
		<linearGradient id="SVGID_24_" gradientUnits="userSpaceOnUse" x1="3660.2783" y1="2512.0571" x2="3660.2783" y2="995.7389">
			<stop  offset="3.263912e-07" style="stop-color:#C5DCEB"/>
			<stop  offset="1" style="stop-color:#DDE3EB"/>
		</linearGradient>
		<path class="st25" d="M4697.1,2484l-40.4-9.6l-40.4-9.7l-1.6-0.4l-0.4-1.7c-10-38.4-19.8-76.8-29.7-115.2l-14.8-57.6l-14.6-57.7
			l-29.2-115.3c-9.8-38.4-19.4-76.9-29-115.4l2.1,4.2l-102.6-122.4l-51.2-61.3l-51.1-61.3c-68.1-81.8-136.1-163.8-204-245.8
			l-101.7-123.1l-101.6-123.3l-101.4-123.4l-101.2-123.5l25.6,2.3l-71,61l5.3-7.9l-49.1,145.5l-49.3,145.4l-24.7,72.7l-24.8,72.6
			l-49.7,145.3l-2.5,7.3l-7.1,2.7l-96.7,36.4l-96.8,36.3l6.9-5.5l-70.5,100.5l-70.7,100.4l-35.4,50.1l-35.5,50.1l-70.9,100.2
			l-1.5,2.2l-2.2,1.1l-54.6,26.8l-54.7,26.7l-109.3,53.4l3.1-3.2c-10.1,22.1-20.5,44.2-30.7,66.2l-30.7,66.2
			c-10.2,22.1-20.6,44.1-30.9,66.2l-31,66.1l-1.8-0.8l117.8-267.1l0.2-0.4l0.4-0.2l216.9-110.2l-0.6,0.5l278.9-404.1l0.3-0.4
			l0.5-0.2l193-74.1l-1,1.1l195.8-582.1l0.2-0.5l0.4-0.4l71-61l1.5-1.3l1.3,1.6l808.6,989.3l0.2,0.3l0.1,0.3l109.6,463.1l-0.8-0.8
			l80.3,21.1L4697.1,2484z"/>
		<linearGradient id="SVGID_25_" gradientUnits="userSpaceOnUse" x1="3840" y1="4251" x2="3840" y2="2754.5">
			<stop  offset="7.853789e-07" style="stop-color:#0B323B"/>
			<stop  offset="0.3834" style="stop-color:#113C4D"/>
			<stop  offset="1" style="stop-color:#1D5073"/>
		</linearGradient>
		<path class="st26" d="M7648.3,2913.2c-26.3-36.4-45.9-83.5-58-142.8c-1.1-5.2-2.1-10.5-3-15.9c-12.8,72.8-36.2,128.3-68.8,168.9
			c-9.8-25.7-17.5-54.6-23.2-86.9c-8.3,47.7-21.3,87.9-38.4,121.5c-13.5-22.2-25-47.7-34.1-77c0,0,0,0,0-0.1
			c-5.3-16.8-9.8-34.9-13.5-54.1c0,0,0,0,0,0c-0.7-3.4-1.3-6.8-1.9-10.3c-0.1,0.5-0.2,1.1-0.3,1.6c-10.9,61.6-29.6,110.6-55,148.8
			c-13.3-30.1-23.7-65.1-30.8-105.4c-5.9,33.9-14.2,63.9-24.6,90.5c-16.1-32.7-28.4-71.7-36.4-117.5c-8.9,51.1-23.2,93.6-42.1,128.5
			c-15.9-32.5-28-71.1-35.9-116.5c-6.3,35.8-15.1,67.4-26.4,95.1c-13.3-30-23.6-64.9-30.6-105.1c-10,57-26.5,103.3-48.9,140.3
			c-5.6-18.6-10.4-38.7-14.1-60.3c-8.9,51-23.1,93.4-42,128.3c-28-39.4-48.5-91.2-60-157.3c-14.4,82.6-42.7,142.8-82.4,184.5h30.1
			c-6.9,10.5-14.3,20.2-22.2,29.2c-22.2-36.9-38.6-83-48.5-139.7c-3.8,21.7-8.5,41.8-14.2,60.5c-13.4-30.1-23.7-65.1-30.8-105.5
			c-13.4,76.6-38.7,134-74,175.2c-15.3-31.4-27.2-68.5-35.1-111.9c-0.3-1.6-0.6-3.2-0.9-4.8c-7.8,44.4-19.5,82.3-34.9,114.4
			c-16-32.6-28.2-71.3-36.1-116.9c-13.9,79.4-40.5,138.1-77.8,179.5c-19.5-35.3-34.1-78.4-43.2-130.5
			c-10.7,61.4-29.1,110.4-54.1,148.6c-21.8-36.7-38.1-82.5-47.9-138.6c-11.7,66.7-32.3,118.7-60.7,158.3
			c-11.7-28.2-20.9-60.5-27.3-97.3c-7.2,40.9-17.7,76.4-31.4,106.8c-22.5-37-39.1-83.6-49.2-140.8c-11.6,66.3-32.1,118.2-60.3,157.7
			c-22.8-37.2-39.6-84-49.7-141.7c-9.8,56.2-26.1,102.1-48,138.8c-13-29.7-23.1-64.2-30-103.8c-9.1,51.8-23.5,94.7-42.9,129.9
			c-28.6-39.6-49.4-91.9-61.1-158.9c-14.5,82.6-42.7,142.8-82.4,184.5h30.1c-6,9.1-12.5,17.7-19.3,25.8
			c-21.1-36.3-36.9-81.3-46.5-136.3c-5.8,33.3-13.9,63-24.1,89.3c-5.3-9.9-10.2-20.4-14.7-31.5c-11.2-27.6-20-59.1-26.3-94.8
			c-9.3,52.9-24.2,96.6-44.2,132.2c-24.9-38.2-43.1-87.1-53.8-148.2c-14.5,82.6-42.7,142.8-82.4,184.5h30.1
			c-10.7,16.3-22.7,30.8-35.8,43.7c-14.4-31.2-25.5-67.7-32.9-110.2c-5.8,33.1-13.8,62.6-23.9,88.7c-2.8,7.2-5.7,14.1-8.7,20.8
			c-14.3-22.8-26.4-49.4-36-79.9v0c-6.2-19.8-11.4-41.3-15.4-64.5c-2.1,12-4.5,23.5-7.2,34.6c-10.3,42.6-24.8,78.3-43,107.9
			c-21.8-36.7-38-82.4-47.8-138.5c-8.2,46.7-20.8,86.3-37.3,119.4c-12.7,25.4-27.8,47-45,65.1h30.1c-10.4,15.8-22,29.9-34.6,42.5
			c-22-36.8-38.2-82.7-48.1-139c-8.2,47-20.9,86.8-37.7,120c-25.1-38.3-43.6-87.4-54.3-149c-11.2,64-30.7,114.6-57.4,153.5
			c-25.3-38.4-43.8-87.7-54.6-149.5c-14.5,82.6-42.7,142.8-82.4,184.5h30.1c-6.1,9.3-12.6,18-19.5,26.2
			c-19-34.9-33.2-77.5-42.2-128.7c-7.5,42.9-18.7,79.7-33.3,111c-22.3-36.9-38.7-83.2-48.7-140c-9.1,52.1-23.7,95.3-43.2,130.6
			c-24.3-38-42.2-86.3-52.8-146.6c-14.5,82.6-42.7,142.8-82.4,184.5h30.1c-7.8,11.8-16.2,22.7-25.3,32.8
			c-22.6-37.1-39.4-83.8-49.4-141.3c-7.7,44.1-19.4,81.8-34.6,113.7c-25.7-38.5-44.5-88.2-55.4-150.7
			c-14.5,82.6-42.7,142.8-82.4,184.5h30.1c-8.1,12.3-16.9,23.6-26.4,34c-20-35.6-35-79.4-44.3-132.5c-7.1,40.6-17.5,75.7-31,105.9
			c-24.4-38-42.4-86.5-53-146.9c-8.9,51.1-23.1,93.6-42.1,128.4c-10.6-26.8-18.9-57.2-24.9-91.4c-5.9,33.9-14.2,64.1-24.6,90.8
			c-28.2-39.5-48.7-91.4-60.4-157.8c-14.5,82.6-42.7,142.8-82.4,184.5h30.1c-6.3,9.6-13.1,18.7-20.3,27.1
			c-29.3-39.8-50.5-92.6-62.4-160.6c-9.7,55.3-25.6,100.6-46.9,137c-38.5-41.6-65.9-101.1-80.1-182
			c-14.4,82.6-42.7,142.8-82.4,184.5h30.1c-7.2,10.9-14.9,21-23.2,30.4c-33-40.8-56.7-96.5-69.5-169.9
			c-12.9,73.6-36.7,129.4-69.9,170.3c-13.6-13.1-25.9-28-36.9-44.8h30.1c-39.7-41.7-67.9-101.9-82.4-184.5
			c-14.4,82.6-42.7,142.8-82.4,184.5h30.1c-12.5,19-26.7,35.6-42.5,50h34.6c-11.4,15-24,28.5-37.7,40.6c-34.4-41-59-97.8-72.2-173.1
			c-8.3,47.3-21.1,87.2-38,120.6c-36.3-41.4-62.4-99.5-76-177.6c-14.4,82.6-42.7,142.8-82.4,184.5h30.1
			c-9.6,14.5-20.1,27.6-31.5,39.4c-6.7-8-13-16.4-18.9-25.4h30.1c-10.5-11-20.2-23.4-29-37.1c-24.6-38.1-42.7-86.7-53.3-147.4
			c-12.9,73.6-36.7,129.4-69.8,170.2c-14.4-13.6-27.4-29.1-38.9-46.7h30.1c-39.7-41.7-67.9-101.9-82.4-184.5
			c-10.9,62.2-29.6,111.8-55.2,150.2c-33.1-40.8-57-96.6-69.8-170.2c-14.4,82.6-42.7,142.8-82.4,184.5h30.1
			c-12.5,19-26.7,35.6-42.5,50h34.6c-8.2,10.8-17,20.8-26.4,30.1c-12.1-12.2-23.2-25.9-33.2-41.1h30.1c-10.4-11-20.1-23.2-28.9-36.9
			c-24.7-38.1-42.8-86.8-53.5-147.6c-9,51.5-23.4,94.3-42.5,129.3c-10.4-26.5-18.6-56.6-24.5-90.3c-5.1,29-11.9,55.3-20.3,78.9
			c-35.2-41.2-60.4-98.5-73.8-174.9c-11.3,64.8-31.2,115.8-58.3,154.9c-29.4-39.9-50.7-92.8-62.7-160.9
			c-5.4,30.9-12.8,58.7-21.9,83.6c-25-38.3-43.4-87.2-54.1-148.6c-11.9,68.3-33.3,121.2-62.8,161.1c-3.2-5.6-6.2-11.3-9.2-17.3
			c-15.9-32.6-28.1-71.3-36.1-116.8c-7.3,42-18.3,78.2-32.4,109.1c-21.7-36.6-37.8-82.2-47.6-138.1c-7.2,41.4-17.9,77.1-31.8,107.7
			c-8.6-9.6-16.6-20-24-31.2h30.1c-39.7-41.7-67.9-101.9-82.4-184.5c-10.8,61.6-29.2,110.7-54.3,149c-33.4-38.7-57.9-91.7-72-161.8
			c0,0,0,0,0,0c-0.9-4.7-1.8-9.4-2.7-14.2c-1.7,9.6-3.5,18.9-5.6,27.9v0c-7.1,31.2-16.4,58.9-27.8,83.2c-4.1-5.7-8-11.6-11.7-17.8
			c-22.4-37-38.9-83.3-48.9-140.3c-9.7,55.2-25.5,100.4-46.8,136.8c-10.5-19.6-19.5-41.7-27-66.3c-5.7-18.7-10.4-38.8-14.2-60.5
			c-6.9,39.7-17.1,74.3-30.2,104.1c-14.2-13.5-27.1-28.9-38.6-46.3h30.1c-39.7-41.7-67.9-101.9-82.4-184.5
			c-12.4,70.9-35,125.3-66.2,165.7c-14.6-31.3-25.8-68.1-33.2-110.9c-3.6,20.7-8.1,40.1-13.5,58.1v0c-7.3,24.8-16.3,47.1-26.7,66.9
			c-7.6-8.8-14.8-18.3-21.5-28.4h30.1c-39.7-41.7-67.9-101.9-82.4-184.5c-14.2,81-41.6,140.5-80.2,182.1
			c-31.6-40.5-54.4-95.1-66.8-166.5c-7.3,41.9-18.2,78-32.3,108.8c-27-39.1-46.8-89.9-58-154.5c-14.4,82.6-42.7,142.8-82.4,184.5
			h30.1c-7.7,11.6-16,22.4-24.9,32.3c-38.3-41.6-65.7-101-79.8-181.8c-6.8,38.8-16.6,72.7-29.3,102c-17.8-34-31.2-75.1-39.7-124
			c-7.9,45.3-20,83.9-35.9,116.4c-28.1-39.4-48.5-91.2-60.1-157.4c-10.5,60.2-28.4,108.5-52.7,146.4c-11.7-28.3-20.9-60.6-27.3-97.4
			c-10.1,57.8-27,104.6-49.8,141.8c-24.1-37.8-41.8-85.9-52.3-145.8c-4.5,25.6-10.3,49.1-17.4,70.6c-18.7-34.7-32.8-76.9-41.6-127.6
			c-13.5,77.4-39.2,135.1-75,176.4c-20.9-36.1-36.4-80.9-46-135.4c-11.8,67.3-32.7,119.7-61.5,159.4
			c-28.8-39.7-49.7-92.1-61.5-159.4c-6.6,37.6-16,70.6-28.1,99.3c-27-39-46.6-89.9-57.9-154.3c-13.3,76.3-38.5,133.4-73.5,174.6
			c-18.2-34.3-31.8-75.9-40.5-125.6c-8.9,50.6-22.9,92.9-41.6,127.6c-29.3-39.8-50.5-92.6-62.4-160.6c-6.2,35.3-14.8,66.4-25.9,93.9
			v1225.3L2827,4251l95.7-9.5l725.3-72.2l734-73.1l1.6-0.2l77.6-7.7l69.6-6.9l88.2-8.8l23.4-2.3l108.7-10.8l57.7-5.7l31.9-3.2
			l102.2-10.2l16.3-1.6l119.6-11.9l4.7-0.5l100.5-10l19.8-2L6193,3916l1392.2-102.5l94.8-7v-947.3
			C7670.8,2879.4,7660.2,2897.4,7648.3,2913.2z M7535,2939c-2,3.1-4.1,6-6.2,9c-1.4-2.9-2.7-5.9-4-9H7535z M6740,3101
			c-3,4.6-6.2,9.1-9.4,13.4c-2.6-4.3-5.1-8.8-7.6-13.4H6740z M6559,3157c-3.9,5.9-7.9,11.5-12.1,16.9c-3.7-5.4-7.2-11-10.6-16.9
			H6559z M5586.6,3336c-4.9,6.4-10,12.5-15.2,18.4c-3.4-5.9-6.6-12-9.7-18.4H5586.6z M5283.6,3423c-3.9,5.1-7.9,10-12,14.8
			c-3.5-4.7-6.9-9.7-10.2-14.8H5283.6z M4075.8,3578c-3.8,4.9-7.7,9.7-11.7,14.3c-3.5-4.6-6.9-9.4-10.1-14.3H4075.8z M3953.3,3533
			c-4,6.7-8.2,13-12.6,19.1c-4.8-6.1-9.4-12.4-13.8-19.1H3953.3z M3814.6,3583c-4.9,6.4-10,12.6-15.3,18.5
			c-4.8-5.9-9.5-12-13.9-18.5H3814.6z M3785.3,3578c-0.7,0.6-1.4,1.3-2,1.9c-0.4-0.6-0.9-1.3-1.3-1.9H3785.3z M3655.4,3569
			c-2.6,3.1-5.4,6.1-8.1,9h30.1c-5.5,8.4-11.4,16.3-17.6,23.7c-10.4-10-20.1-20.9-29.1-32.7H3655.4z M3483,3621
			c-0.6-0.7-1.2-1.3-1.9-2h20.4c-8.9,10.2-18.5,19.8-28.7,28.6c-7.1-8.3-13.7-17.2-19.9-26.6H3483z M3359.1,3564
			c-2.9,5.4-5.9,10.6-9,15.6c-3.8-5-7.6-10.2-11.1-15.6H3359.1z M3226.6,3614c-2.1,2.8-4.2,5.4-6.4,8.1c-2.7-2.6-5.3-5.3-7.9-8.1
			H3226.6z M3215.3,3628c-4,4.7-8.2,9.2-12.5,13.6c-3.8-4.4-7.4-8.9-10.9-13.6H3215.3z M3059.1,3567c-3.2,3.8-6.5,7.5-9.8,11h30.1
			c-5.5,8.4-11.3,16.2-17.5,23.7c-11.2-10.6-21.6-22.1-31.1-34.7H3059.1z M2776.6,3597c-5.5,6.3-11.3,12.4-17.3,18.2
			c-5.8-5.8-11.3-11.8-16.7-18.2H2776.6z M2749.8,3586c-3.1,2.8-6.3,5.5-9.5,8.2c-2.2-2.7-4.3-5.4-6.4-8.2H2749.8z M2582.9,3479
			c-2.1,5.5-4.3,10.8-6.6,16c-3.9-5.1-7.7-10.4-11.4-16H2582.9z M1959.5,3271c-2.8,3.9-5.7,7.7-8.6,11.4c-2.7-3.7-5.4-7.5-8-11.4
			H1959.5z M1676.9,3157.2c-3.4,7.6-7,14.8-10.8,21.7c-6.4-6.9-12.5-14.1-18.3-21.7H1676.9z M1535.4,3107.2
			c-0.8,1.2-1.6,2.4-2.4,3.6c-0.7-1.2-1.3-2.4-2-3.6H1535.4z M1435.5,3124c-0.2,0.3-0.4,0.6-0.5,0.8c-0.2-0.3-0.4-0.5-0.6-0.8
			H1435.5z M1309.6,3089.7c-4.7-5-9.3-10.2-13.7-15.7h26c-8.5,13-17.9,24.8-28,35.6c-5-6.3-9.9-13-14.5-20H1309.6z M1076.8,3094
			c-5.4,7.1-11,13.9-16.9,20.3c-6-6.4-11.6-13.2-17.1-20.3H1076.8z M1057.2,3079c-4.8,5.1-9.6,10-14.7,14.7
			c-3.6-4.7-7-9.6-10.4-14.7H1057.2z M521.6,3004c-3,4.5-6,8.9-9.2,13.1c-3-4.2-5.9-8.6-8.7-13.1H521.6z M191.6,2990
			c-2.7,4.1-5.5,8.1-8.4,12c-2.5-3.9-5-7.9-7.3-12H191.6z"/>
		<linearGradient id="SVGID_26_" gradientUnits="userSpaceOnUse" x1="5290.1797" y1="4320" x2="5290.1797" y2="3407.5">
			<stop  offset="7.088809e-07" style="stop-color:#0D3E47"/>
			<stop  offset="0.3776" style="stop-color:#134759"/>
			<stop  offset="1" style="stop-color:#205A80"/>
		</linearGradient>
		<path class="st27" d="M7651.6,3636.4c-18.5-34.6-32.4-76.6-41.2-126.9c-5.8,33.4-13.9,63.2-24.2,89.5c0,0,0,0,0,0
			c-6,15.5-12.8,29.8-20.2,43c-9.5-25.4-17.1-53.8-22.7-85.5c-7.2,41.4-17.9,77.1-31.8,107.7c-24-37.8-41.8-85.9-52.2-145.7
			c-7.4,42.5-18.5,79.1-32.9,110.2c-19.4-35.2-34-78.3-43.1-130.2c-12.7,72.8-36.2,128.3-68.8,169c-15.5-32.2-27.4-70.3-35.2-115
			c-6.5,37.2-15.8,69.9-27.7,98.4c-20-35.6-35-79.4-44.3-132.4c-11.4,65-31.3,116.2-58.6,155.4c-17.1-33.5-30-73.7-38.4-121.4
			c-7.2,41.1-17.8,76.6-31.5,107.1c-13.7-30.5-24.3-66-31.5-107.1c-2.9,16.4-6.3,31.8-10.2,46.5c-8.6-24.1-15.6-50.8-20.8-80.5
			c-14,79.9-40.9,138.9-78.6,180.4c-17.6-33.9-30.9-74.8-39.4-123.4c-11,62.9-30,112.8-56,151.5c-26-38.7-45-88.6-56-151.5
			c-8.8,50.2-22.6,92.1-41.1,126.6c-28.5-39.6-49.2-91.8-60.9-158.6c-14.4,82.6-42.7,142.8-82.4,184.5h30.1
			c-5.4,8.2-11.1,15.9-17.1,23.1c-30.4-40.2-52.5-93.9-64.7-163.6c-4.9,27.9-11.3,53.2-19.3,76.1c-16.8-33.3-29.5-73.1-37.7-120.1
			c-6.9,39.7-17.1,74.3-30.2,104.1c-14.8-31.6-26.2-68.8-33.8-112.1c-8.5,48.6-21.8,89.4-39.4,123.3c-7.2-21.7-13.1-45.4-17.6-71.3
			c-5.7,32.8-13.6,62-23.6,88c-12.2-28.9-21.8-62.1-28.4-100c-8.6,49.3-22.2,90.7-40.2,124.9c-11.1-11.5-21.3-24.3-30.6-38.4h30.1
			c-39.7-41.7-67.9-101.9-82.4-184.5c-11.6,66.2-32,118-60.1,157.4c-15.9-32.5-28-71.1-35.9-116.4c-9.9,56.6-26.3,102.7-48.4,139.5
			c-28.9-39.7-49.8-92.2-61.6-159.5c-8.9,51-23.1,93.4-42,128.3c-35.3-41.2-60.6-98.6-74-175.3c-12.8,73-36.3,128.5-69,169.2
			c-19.4-35.2-33.9-78.3-43-130.2c-7.9,45.4-20,83.9-35.9,116.4v0c-1.8,3.8-3.7,7.5-5.7,11.1c-6.5-13-12.4-27-17.7-42v0
			c-8.2-23.3-14.8-49.1-19.8-77.5c-2.4,14-5.3,27.4-8.5,40.1c-1.7,6.5-3.4,12.8-5.3,19c-10.5-18.5-19.7-39.2-27.4-62.2
			c-3.8-11.4-7.3-23.5-10.3-36.1c-2.8-11.4-5.3-23.4-7.5-35.8c-2.3,13.1-4.9,25.7-7.9,37.8c-0.1,0.4-0.2,0.7-0.3,1.1
			c-9.7,38.8-23,71.8-39.5,99.6c-1.9-8.5-3.7-17.3-5.3-26.4c-3.2,18.3-7.1,35.4-11.6,51.6c-4.8,6.4-9.9,12.4-15.2,18.2
			c-20.5-32.2-36.4-71.9-47.1-119.9c-1.9-8.3-3.6-16.9-5.1-25.8c-1.7,9.6-3.5,18.9-5.6,27.9c-8.2,36.1-19.4,67.4-33.2,94.4
			c-18.4-21.7-34.1-47.9-46.7-78.9c-11.3-27.8-20.2-59.5-26.5-95.4c-4.8,27.6-11.2,52.7-19,75.5c-15.6,45.3-36.9,81.3-63.3,109h30.1
			c-12.5,19-26.7,35.6-42.5,50h34.6c-7.8,10.3-16.2,19.9-25.1,28.8c-1.2,1.2-2.5,2.4-3.7,3.6c-0.6-1.1-1.3-2.2-1.9-3.3
			c-21-36.2-36.6-81-46.1-135.7c-9.4,53.9-24.8,98.3-45.3,134.3c-33.6-40.9-57.7-97.1-70.7-171.3c-12,68.9-33.7,122.3-63.6,162.3
			c-18.1-34.3-31.7-75.7-40.4-125.3c-7.9,45.3-20,83.8-35.8,116.3c-26.6-38.9-46-89.4-57.2-153.3c-8.2,46.7-20.7,86.2-37.3,119.3
			c-28.4-39.5-49-91.6-60.7-158.3c-14.4,82.6-42.7,142.8-82.4,184.5h30.1c-11,16.7-23.3,31.6-36.8,44.7
			c-23.9-37.7-41.5-85.7-51.9-145.2c-8.3,47.2-21,87.2-37.9,120.5c-31.2-40.4-53.7-94.7-66.1-165.5c-5.9,33.9-14.2,64.1-24.6,90.8
			c-21.6-36.5-37.6-82.1-47.4-137.8c-14.4,82.6-42.7,142.8-82.4,184.5h30.1c-6.1,9.3-12.6,17.9-19.5,26.1
			c-21.5-36.5-37.5-82-47.3-137.6c-9.9,56.4-26.2,102.4-48.2,139.2c-16.8-33.3-29.5-73.1-37.8-120.2
			c-10.8,61.6-29.2,110.8-54.4,149.1c-6.7-20.8-12.3-43.4-16.6-68.1c-7.8,44.7-19.7,82.9-35.2,115.1c-5.1,10.7-10.7,20.7-16.6,30.1
			c-5.6-8.8-11-18.1-15.9-28c-16.5-33-29.1-72.5-37.2-119.1c-7.5,43-18.8,79.9-33.4,111.3c-24.2-37.9-42.1-86.2-52.6-146.3
			c-12.4,71.1-35.1,125.7-66.5,166.1c-5,6.5-10.3,12.6-15.8,18.4h30.1c-10.3,15.6-21.8,29.6-34.3,42.2c-12.8-16.6-24-35.7-33.8-57.2
			c-13.8-30.6-24.5-66.2-31.7-107.5c-7.5,43.1-18.8,80.1-33.6,111.6c-7.2,15.4-15.3,29.6-24.1,42.4c-7.1-12.2-13.6-25.4-19.4-39.7
			c-11.5-28-20.5-60-26.9-96.3c-6.6,37.8-16.1,71-28.3,99.8c-14.4,34.1-32.5,62.1-54,84.7h30.1c-5.4,8.1-11.1,15.8-17.1,23.1
			c-26.7-29-48-66.6-63.3-114.1c-6.6-20.6-12.1-43.1-16.4-67.6c-4,22.6-9,43.6-15,63c-11.5,37.2-26.6,68.4-45.1,94.3
			c-15.9-29.8-28.3-65-37.1-106.3c-1.4-6.5-2.7-13.2-3.9-20c-1.1,6.4-2.3,12.7-3.6,18.9c-7.9,37.6-18.8,70.2-32.6,98.2
			c-19.4-29.8-34.8-66.1-45.6-109.6c-3.1-12.3-5.8-25.1-8.1-38.5c-2.2,12.6-4.7,24.6-7.6,36.2c-15.8,64.3-41.2,112.9-74.8,148.3
			h30.1c-12.5,19-26.7,35.6-42.5,50h34.6c-9.7,12.8-20.3,24.5-31.7,35.2c-2.5,2.4-5,4.6-7.6,6.9c-0.7,0.6-1.4,1.3-2.1,1.9
			c-17.6-33.9-30.9-74.8-39.4-123.4c-8.2,47.1-21,87-37.8,120.3c-2.3,4.4-4.6,8.8-6.9,13c-11-11.8-21-25.1-30.1-39.9
			c-23-37.3-39.9-84.3-50.1-142.3c-10.8,61.5-29.1,110.6-54.2,148.8c-8.6,13.1-18,25-28.1,35.7h30.1c-12.5,19-26.7,35.6-42.5,50
			h34.6c-7.9,10.4-16.4,20.1-25.4,29.1c-26.7-38.9-46.2-89.6-57.5-153.6c-14.4,82.6-42.7,142.8-82.3,184.5h30.1
			c-12.5,19-26.7,35.6-42.5,50h34.6c-2.4,3.2-4.9,6.3-7.4,9.3c-5.2,6.3-10.6,12.3-16.3,18.1L2936,4185l-1,9l10.6,29.5
			c-7.3,6.3-14.9,12.3-22.9,18c-1.2,0.9-2.4,1.7-3.6,2.5h33.9l3.1,8.5c-16.8,15.5-35.4,29.3-55.7,41.5h52.6c-10.6,9.2-22,17.9-34,26
			h4761v-782.3C7673.3,3575.1,7663.8,3607.9,7651.6,3636.4z M6964.1,3703c-4.2,6.4-8.7,12.6-13.3,18.5c-3.8-5.9-7.4-12.1-10.8-18.5
			H6964.1z M6273.8,3712c-2.3,3.9-4.6,7.8-7.1,11.5c-3.1-3.7-6.2-7.5-9.2-11.5H6273.8z M5935.5,3686h1.6c-0.3,0.4-0.5,0.7-0.7,1.1
			C5936.1,3686.7,5935.8,3686.4,5935.5,3686z M5944.2,3636c-2.5,4.3-5.1,8.4-7.8,12.5c-3-4.1-5.9-8.2-8.7-12.5H5944.2z M5823.1,3636
			c-1.3,1.9-2.6,3.8-3.9,5.7c-1.3-1.9-2.5-3.8-3.8-5.7H5823.1z M5554.4,3608c-0.8,2.3-1.6,4.6-2.4,6.8c-1.6-2.2-3.1-4.5-4.6-6.8
			H5554.4z M5449.1,3592c-2.3,4.1-4.6,8.1-7.1,11.9c-2.9-3.9-5.6-7.8-8.3-11.9H5449.1z M4644,3683c-0.5,0.9-1.1,1.7-1.6,2.6
			c-0.6-0.9-1.2-1.7-1.8-2.6H4644z M4747.7,3694h25.6c-2.7,3.5-5.4,6.9-8.2,10.3c-1.8,2.1-3.6,4.2-5.4,6.3c-1.5-1.9-2.9-3.7-4.3-5.7
			C4752.8,3701.4,4750.2,3697.7,4747.7,3694z M3989.3,3822c-3.1,4.1-6.3,8.1-9.6,11.9c-3.6-3.8-7.2-7.8-10.6-11.9H3989.3z
			 M3979.6,3834c-5.4,6.4-11,12.4-16.9,18.2c-4.6-5.8-8.9-11.9-13.1-18.2H3979.6z M3721.7,3878c-4.5,5.4-9.3,10.5-14.1,15.4
			c-3.8-4.9-7.4-10.1-10.9-15.4H3721.7z M3384.3,3978c-4.9,5.6-10.1,11.1-15.4,16.3c-0.9,0.8-1.7,1.7-2.6,2.5
			c-3.9-6-7.7-12.3-11.3-18.8H3384.3z M3266.4,3984c-4,6.9-8.1,13.4-12.5,19.7c-5-6.3-9.7-12.8-14.2-19.7H3266.4z M3118.3,4084
			c-0.1,0.1-0.2,0.2-0.3,0.3c-0.1-0.1-0.2-0.2-0.2-0.3H3118.3z M3100.6,4094l-2.9,1.6c-0.4-0.5-0.7-1.1-1.1-1.6H3100.6z"/>
		<linearGradient id="SVGID_27_" gradientUnits="userSpaceOnUse" x1="2828.5701" y1="4320" x2="2828.5701" y2="3549">
			<stop  offset="6.476826e-07" style="stop-color:#0F4754"/>
			<stop  offset="0.3834" style="stop-color:#165166"/>
			<stop  offset="1" style="stop-color:#23648C"/>
		</linearGradient>
		<path class="st28" d="M5603.4,4215.9c-6.4-20.2-11.7-42.1-15.9-65.9c-4.1,23.5-9.3,45.1-15.6,65.1c-8.8,28.1-19.8,52.7-32.7,74.2
			c-18.5-20.9-34.4-46.1-47.4-76.1c-12.7-29.4-22.5-63.3-29.4-102.2c-6.7,38.3-16.4,71.8-28.8,100.8c-11.8,27.8-26.2,51.5-42.8,71.5
			c-5.3-6.6-10.4-13.6-15.2-20.9h30.1c-14.3-15-27-32.3-38.2-52.3c-20-35.6-34.9-79.3-44.2-132.2c-8.4,48.1-21.5,88.6-38.8,122.2
			c-14-13.4-26.6-28.6-37.9-45.7h30.1c-32.2-33.8-56.8-79.8-72.7-140.1c-3.7-14-6.9-28.8-9.6-44.4c-2.9,16.3-6.3,31.8-10.2,46.4
			c-14,52.1-34.6,93.5-61,125.5c-17.2-31.9-30.5-70.2-39.5-115.5c-0.8-4.1-1.6-8.2-2.3-12.4c-0.8,4.4-1.6,8.6-2.4,12.9
			c-11.9,60-31.5,107.6-57.7,144.5c-27.3-33.5-48.2-77.2-62-132.6c-3-12-5.7-24.6-8-37.8c-2.4,13.8-5.2,26.9-8.4,39.4
			c-11.6,45.9-28.1,83.6-49.1,114.2c-22.1-27.6-39.9-62-53.1-104.1c-6.2-19.8-11.4-41.3-15.5-64.6c-4.3,24.5-9.8,47.1-16.5,67.7
			c-9.3,28.8-20.8,53.9-34.3,75.7c-7.8-9-15.1-18.6-22-28.9h30.1c-11.5-12.1-22-25.7-31.5-41c-23.3-37.5-40.6-84.8-50.8-143.5
			c-11.3,64.4-31,115.3-57.9,154.3c-4.5,6.5-9.2,12.7-14,18.5c-3.3-5.2-6.4-10.6-9.4-16.2c-18.7-34.7-32.8-77-41.6-127.6
			c-9.6,55-25.4,100.1-46.6,136.4c-10.6,18.2-22.6,34.2-35.8,48.1h30.1c-5.8,8.8-12,17.1-18.5,24.9c-17.4-18.3-32.6-40.2-45.4-66
			c-16.3-32.9-28.7-72.1-36.8-118.3c-8.7,49.9-22.5,91.6-40.8,126.1c-0.2,0.4-0.4,0.8-0.6,1.2c-0.3-0.4-0.6-0.7-1-1.1
			c-9.1-10-17.5-20.9-25.3-32.7h30.1c-39.7-41.7-67.9-101.9-82.4-184.5c-14.5,82.6-42.7,142.8-82.4,184.5h30.1
			c-8.9,13.4-18.6,25.7-29.1,36.8c-29.9-40-51.6-93.4-63.7-162.3c-7.8,44.3-19.5,82.2-34.8,114.2c-39-41.7-66.9-101.5-81.2-183.2
			c-14.4,82.6-42.7,142.8-82.4,184.5h30.1c-5.3,8-10.8,15.5-16.6,22.6c-39-41.7-66.8-101.5-81.1-183.1
			c-14.4,82.6-42.7,142.8-82.4,184.5h30.1c-8.6,13.1-18,25-28.2,35.8c-26.3-38.8-45.5-89-56.6-152.3c-9.6,54.6-25.1,99.4-46.1,135.6
			c-28.5-39.6-49.2-91.8-60.9-158.6c-9.8,55.7-25.8,101.2-47.4,137.8c-32.5-40.7-55.9-96-68.6-168.8
			c-11.4,65.1-31.4,116.4-58.8,155.6c-14-30.8-24.9-66.8-32.2-108.6c-8.6,49.3-22.2,90.6-40.1,124.8c-13.6-24.3-24.8-52.3-33.5-84.4
			c-1.4-5.3-2.8-10.8-4.1-16.3c-1.1-4.8-2.2-9.8-3.2-14.8c-1.1-5.3-2.1-10.7-3.1-16.2c-1.4,7.9-2.9,15.6-4.5,23.1
			c-7.1,32.8-16.7,61.8-28.4,87.2c-20.4-23.9-37.6-53.2-50.9-88.5c-9.7-25.6-17.5-54.5-23.1-86.8c-3.8,21.4-8.4,41.3-14,59.8
			c-13.5,44.9-32.3,81.4-55.7,110.3c-20.3-28-36.6-62.3-48.6-103.7c-5-17.2-9.2-35.6-12.7-55.3c-6.8,39.1-16.8,73.2-29.6,102.7
			c-29.3-39.8-50.6-92.7-62.4-160.7c-14.4,82.6-42.7,142.8-82.4,184.5h30.1c-12.5,19-26.7,35.6-42.4,50h34.6
			c-6.4,8.4-13.2,16.3-20.3,23.8c-37.2-41.5-63.8-100.1-77.6-179.3c-12.2,69.6-34.2,123.4-64.6,163.5c-9.4-9.3-18.2-19.3-26.3-30
			h34.6c-15.8-14.4-29.9-31-42.4-50h30.1c-39.7-41.7-67.9-101.9-82.4-184.5c-14.4,82.6-42.7,142.8-82.4,184.5h30.1
			c-12.5,19-26.7,35.6-42.4,50h34.6c-12.8,16.9-27.1,31.8-42.8,45.1c-24-37.8-41.7-85.8-52.1-145.6c-9.8,55.7-25.8,101.2-47.4,137.8
			c-13-12.8-24.8-27.2-35.4-43.3h30.1c-39.7-41.7-67.9-101.9-82.4-184.5c-14.4,82.6-42.7,142.8-82.4,184.5h30.1
			c-8.1,12.3-16.9,23.5-26.3,33.9c-38.6-41.6-66.2-101.2-80.4-182.4c-11.1,63.7-30.5,114.1-57,152.9c-7-8.2-13.6-17-19.8-26.4h30.1
			c-39.7-41.7-67.9-101.9-82.4-184.5c-14.4,82.6-42.7,142.8-82.4,184.5h30.1c-5.6,8.6-11.7,16.6-18,24.3
			c-22.8-37.2-39.7-84-49.8-141.8c-5.6,31.7-13.1,60.1-22.6,85.5c-12.1-12.2-23.1-25.8-33.1-41h30.1
			c-39.7-41.7-67.9-101.9-82.4-184.5c-14.4,82.6-42.7,142.8-82.4,184.5h30.1c-12.5,19-26.7,35.6-42.4,50h34.6
			c-9,11.9-18.8,22.9-29.3,33c-18.7-34.7-32.7-76.9-41.6-127.5c-7.9,45.2-19.9,83.7-35.7,116.1c-15.6-14.3-29.6-30.8-42-49.6h30.1
			c-39.7-41.7-67.9-101.9-82.4-184.5c-14.4,82.6-42.7,142.8-82.4,184.5h30.1c-4.5,6.8-9.2,13.3-14.1,19.5
			c-13.7-12.1-26.2-25.6-37.5-40.5h34.6c-15.8-14.4-29.9-31-42.4-50h30.1c-39.7-41.7-67.9-101.9-82.4-184.5
			c-14.4,82.6-42.7,142.8-82.4,184.5h30.1c-11.2,17-23.8,32.1-37.6,45.4c-28.6-39.6-49.4-91.9-61.2-158.9
			c-7.8,44.7-19.7,82.9-35.3,115.1c-35.7-41.3-61.2-98.9-74.8-176.1c-11.1,63.3-30.2,113.4-56.4,152.1
			c-21.7-36.6-37.8-82.2-47.6-138.1c-10.5,60-28.3,108.1-52.4,146c-6.1-7.4-11.9-15.2-17.3-23.5h30.1
			c-39.7-41.7-67.9-101.9-82.4-184.5c-14.5,82.6-42.7,142.8-82.4,184.5h30.1c-12.5,19-26.7,35.6-42.5,50h34.6
			c-12.2,16.1-25.8,30.5-40.7,43.2c-8.6-9.6-16.6-20-24-31.2h30.1c-39.7-41.7-67.9-101.9-82.4-184.5
			c-12.3,70.1-34.5,124.1-65.2,164.3c-8.4-9.5-16.3-19.7-23.6-30.8h30.1c-39.7-41.7-67.9-101.9-82.4-184.5
			c-9.5,54.6-25.1,99.4-46.1,135.6c-12.6-11.5-24.2-24.1-34.8-38.1h34.6c-15.8-14.4-29.9-31-42.5-50h30.1
			c-39.7-41.7-67.9-101.9-82.4-184.5c-14.5,82.6-42.7,142.8-82.4,184.5h30.1c-11.1,16.8-23.5,31.8-37.1,45
			c-19.2-35.1-33.6-77.9-42.6-129.5c-4.2,24.1-9.6,46.2-16.1,66.6c-31.6-40.5-54.4-95.1-66.9-166.6
			c-14.5,82.6-42.7,142.8-82.4,184.5h30.1c-9.4,14.2-19.7,27.1-30.9,38.8c-15.4-32-27.1-69.9-34.8-114.3
			c-6.3,35.8-15.1,67.4-26.4,95.1c-28.3-39.5-49-91.6-60.6-158.1c-11.5,65.6-31.6,117-59.3,156.3c-27-30.4-48.3-70.1-63.2-120.1
			V4320h5657.1C5634.8,4292.4,5616.7,4258,5603.4,4215.9z M4506.6,4154.5c-5.4,6.4-10.9,12.5-16.8,18.2c-4.5-5.8-8.9-11.9-13.1-18.2
			H4506.6z M4124.1,4053.5c-3.8,7.8-7.8,15.2-11.9,22.3c-5.7-7-11.2-14.5-16.4-22.3H4124.1z M3973.5,4077.5
			c-4.9,6-10.1,11.7-15.5,17.1c-4.2-5.5-8.3-11.1-12.3-17.1H3973.5z M2943.1,4098.5c-4,4-8.1,7.8-12.3,11.5
			c-2.8-3.8-5.4-7.6-8.1-11.5H2943.1z M2818.2,4098.5c-3.9,6-8.1,11.7-12.3,17.2c-5.7-5.5-11.2-11.2-16.4-17.2H2818.2z
			 M2789.1,4097.5c-0.1,0.1-0.2,0.2-0.2,0.3c-0.1-0.1-0.2-0.2-0.2-0.3H2789.1z M2650.4,4097.5c-5.5,6.3-11.3,12.4-17.3,18.2
			c-4.6-5.8-9-11.8-13.2-18.2H2650.4z M2513.1,4091.5c-3.4,5.4-7,10.6-10.6,15.7c-4.4-5-8.7-10.3-12.8-15.7H2513.1z M2348.9,4077.5
			c-4.6,4.9-9.3,9.6-14.1,14h34.6c-5.8,7.7-12,15-18.4,21.9c-10.2-10.9-19.6-22.8-28.2-35.9H2348.9z M1995.4,3996.5
			c-2.4,5.9-4.9,11.7-7.5,17.3c-4.9-5.5-9.7-11.3-14.2-17.3H1995.4z M1746.6,4018.5c-4.2,8.5-8.6,16.6-13.2,24.3
			c-7.3-7.6-14.2-15.7-20.7-24.3H1746.6z M1578.2,3997.5c-3.3,3.9-6.8,7.6-10.3,11.2c-3.5-3.6-7-7.3-10.3-11.2H1578.2z
			 M1428.4,3947.5c-4.2,5.6-8.6,10.9-13.1,16c-4.6-5.1-9-10.4-13.2-16H1428.4z M1410.8,3968.5c-4,4.3-8.1,8.5-12.3,12.5
			c-3-4.1-5.9-8.2-8.8-12.5H1410.8z M1298.1,3907.5c-2.6,5-5.3,9.8-8.1,14.5c-3.5-4.7-6.9-9.5-10.2-14.5H1298.1z M772.2,3921.5
			c-0.3,0.4-0.5,0.8-0.8,1.1l-1.5-1.1H772.2z M482.4,3783.5c-4.8,6.3-9.8,12.4-15.1,18.2c-4-5.8-7.8-11.9-11.4-18.2H482.4z
			 M388.2,3733.5c-1,2.7-2,5.3-3,7.9c-1.8-2.6-3.7-5.2-5.4-7.9H388.2z M267.4,3783.5c-3.3,4.4-6.8,8.6-10.3,12.7
			c-2.5-4.1-4.8-8.4-7.1-12.7H267.4z M70.2,3779.5c-2.2,3.4-4.5,6.7-6.9,9.9c-2.9-3.2-5.7-6.5-8.5-9.9H70.2z M58.7,3757.5
			c-3.4,4.6-7,9-10.6,13.2c-3.2-4.3-6.3-8.7-9.3-13.2H58.7z M49.1,3807.5c-0.4,0.5-0.9,1-1.3,1.5c-0.4-0.5-0.8-1-1.2-1.5H49.1z
			 M4506.9,4192.5c-0.9-0.9-1.8-1.8-2.6-2.8c-3.1-3.3-6-6.7-9-10.2h22c-2.7,3.5-5.4,7-8.2,10.3
			C4508.5,4190.7,4507.7,4191.6,4506.9,4192.5z M5271,4224.2c-4.8-5.3-9.5-10.8-14-16.6c-0.8-1-1.6-2.1-2.4-3.1h27.9
			c-0.7,1.2-1.3,2.5-2,3.7C5277.4,4213.7,5274.3,4219,5271,4224.2z M5525.3,4310.4c-3.6-4.8-7.1-9.7-10.5-14.9h20.7
			C5532.1,4300.6,5528.8,4305.6,5525.3,4310.4z"/>
		<linearGradient id="SVGID_28_" gradientUnits="userSpaceOnUse" x1="-2.3196" y1="3031.1355" x2="2059.7063" y2="3031.1355">
			<stop  offset="1.631956e-07" style="stop-color:#9AB8AB"/>
			<stop  offset="1" style="stop-color:#A2B8B2"/>
		</linearGradient>
		<path class="st29" d="M2057.5,3233.8c-9.5-18.8-17.2-38.6-23.4-58.7c-6.2-20.2-11-40.8-14.7-61.5h0.5
			c-4.6,26.2-10.8,52.2-19.6,77.4c-8.7,25.1-20,49.5-34.6,71.9l-0.4,0.6l-0.4-0.5c-9.8-11.3-18.5-23.5-26.2-36.3
			c-7.7-12.8-14.4-26.2-20.3-39.9c-11.7-27.5-19.9-56.4-25.9-85.7l0-0.1v-0.1l0,0l0,0.2l-2.7-14.2l1.5,0c-1.6,9.4-3.5,18.7-5.6,27.9
			l0-0.2v0v0.1l0,0.1c-6.5,28.6-15.4,56.8-27.7,83.5l-0.7,1.5l-1-1.3c-8.4-11.6-15.7-23.9-22.2-36.6c-6.5-12.7-12.2-25.8-17.1-39.2
			c-9.8-26.8-16.8-54.6-21.7-82.7h2.4c-4.2,23.9-9.7,47.6-17.3,70.7c-7.6,23.1-17.2,45.5-29.5,66.6l-1.2,2.1l-1.1-2.1
			c-10.6-19.8-19-40.6-25.8-62c-6.7-21.4-11.8-43.2-15.7-65.2l2.9,0c-3.1,17.9-7,35.6-12,53.1c-4.9,17.5-10.9,34.7-18.2,51.3l-0.9,2
			l-1.6-1.5c-14.7-14-27.7-29.7-38.8-46.6l-1.6-2.5l3,0l30.1,0l-1.2,2.8c-11.8-12.5-22.3-26.2-31.4-40.8
			c-9.1-14.6-16.9-29.9-23.5-45.8c-6.6-15.8-12.1-32.1-16.7-48.6c-4.6-16.5-8.3-33.3-11.3-50.1h3.6c-5.2,29.6-12.5,59-23.2,87.3
			c-5.3,14.1-11.5,27.9-18.7,41.2c-7.2,13.3-15.3,26.1-24.5,38.1l-2,2.6l-1.4-2.9c-8.2-17.7-14.9-36-20.4-54.6
			c-5.5-18.6-9.8-37.6-13.1-56.7l4.1,0c-3.4,19.6-7.8,39.2-13.5,58.3l0.1-0.6v0v0.3l-0.1,0.3c-6.9,23.2-15.6,45.8-26.9,67.3
			l-1.5,2.8l-2.1-2.4c-7.9-9.1-15.1-18.6-21.7-28.7l-2.2-3.4l4,0l30.1,0l-1.6,3.7c-11.8-12.5-22.3-26.3-31.5-40.9
			c-9.1-14.6-16.9-30-23.6-45.8c-6.6-15.9-12.1-32.2-16.7-48.7c-4.6-16.5-8.3-33.3-11.3-50.2l4.5,0c-5.9,33.2-14.4,66.1-27.3,97.4
			c-6.4,15.6-14,30.8-22.9,45.3c-8.9,14.4-19,28.1-30.5,40.6l-1.9,2l-1.7-2.2c-18.7-24.1-33-51.3-43.8-79.7
			c-10.8-28.4-18.2-58-23.5-87.8l4.7,0c-3.3,18.8-7.5,37.4-12.8,55.7c-5.3,18.3-11.8,36.3-19.7,53.7l-1.8,3.9l-2.4-3.5
			c-15.9-23.1-28.1-48.4-37.5-74.6c-9.4-26.3-16.1-53.4-20.9-80.8l4.8,0c-3,16.9-6.7,33.7-11.2,50.2c-4.6,16.5-10,32.9-16.7,48.7
			c-6.6,15.9-14.4,31.3-23.6,45.9c-9.1,14.6-19.6,28.4-31.5,40.9l-1.8-4.2l30.1,0l4.6,0l-2.5,3.9c-7.5,11.5-15.9,22.4-25.1,32.6
			l-1.8,2l-1.8-2c-11.5-12.5-21.6-26.2-30.4-40.6c-8.8-14.4-16.4-29.6-22.8-45.2c-12.9-31.3-21.3-64.1-27.2-97.2h4.9
			c-3.1,17.5-6.9,35-11.7,52.1c-4.8,17.2-10.7,34.1-17.7,50.5l-2.1,4.8l-2.4-4.6c-10.1-19.5-18.2-40-24.7-60.9
			c-6.5-20.9-11.4-42.3-15.2-63.9l4.8,0c-3.5,20.1-8.1,40.1-14,59.8c-5.9,19.6-13.2,38.9-22.1,57.3l-1.8,3.7l-2.4-3.3
			c-16.5-23.3-29.3-49.2-39-75.9c-9.7-26.8-16.6-54.5-21.5-82.5h4.7c-4.6,25.8-10.7,51.4-19.3,76.2c-8.6,24.8-19.6,48.9-33.8,71.1
			l-2.4,3.8l-1.7-4.2c-13-31.5-21.6-64.5-27.4-97.9l4.5,0c-4.4,24.9-10.3,49.6-18.4,73.6c-8.1,24-18.5,47.3-31.7,69l-1.9,3.1l-1.9-3
			c-14-22.1-24.9-46.1-33.4-70.8c-8.5-24.7-14.6-50.1-19.1-75.8l4.3,0c-4.2,24-9.9,47.7-17.5,70.9l-1.6,4.7l-2.3-4.4
			c-10.7-19.9-19.2-41-26-62.5c-6.8-21.5-11.9-43.5-15.8-65.7l4,0c-5.7,31.9-13.8,63.6-25.9,93.7c-6.1,15.1-13.1,29.8-21.4,43.8
			c-8.2,14-17.7,27.4-28.3,39.7l-1.7,2l-1.3-2.3c-12-20.9-21.5-43.2-28.9-66.1c-7.5-22.9-13-46.3-17.1-70h3.4
			c-5,28.3-12,56.4-22,83.5c-10,27-23,53.1-40,76.5l-1.3,1.8l-1.3-1.8c-16.9-23.5-29.9-49.5-39.8-76.6
			c-9.9-27.1-16.8-55.2-21.8-83.5h2.8c-6,34-14.9,67.6-28.3,99.5l-0.9,2.3l-1.4-2c-15.7-23-27.9-48.2-37.2-74.3
			c-9.3-26.2-15.9-53.2-20.7-80.5h2.3c-5.6,31.5-13.6,62.7-25.5,92.4c-5.9,14.9-12.8,29.4-20.9,43.2c-8,13.9-17.2,27.1-27.6,39.3
			l-0.8,1l-0.6-1.1c-10.3-19.6-18.5-40.3-25.1-61.4c-6.6-21.1-11.5-42.7-15.3-64.5h1.3c-3.9,22.1-9.1,44.1-15.9,65.5
			c-6.8,21.4-15.3,42.4-26,62.2l-0.4,0.7l-0.5-0.6c-17.1-23.5-30.3-49.6-40.2-76.8c-10-27.2-16.9-55.5-21.9-84h0.4
			c-5.7,32-13.9,63.6-26.1,93.8c12-30.2,20.1-61.9,25.7-93.9l0.2-1l0.2,1c5.1,28.5,12.1,56.7,22.2,83.8
			c10.1,27.1,23.3,53.2,40.4,76.5l-0.8,0.1c10.6-19.8,19-40.7,25.7-62.1c6.7-21.4,11.8-43.3,15.6-65.4l0.7-3.8l0.7,3.8
			c3.9,21.7,8.9,43.2,15.5,64.3c6.6,21,14.9,41.6,25.2,61l-1.4-0.2c10.3-12.2,19.3-25.3,27.3-39.1c8-13.8,14.8-28.2,20.6-43
			c11.7-29.6,19.6-60.7,25.1-92.1l1.1-6.4l1.1,6.4c4.8,27.2,11.5,54.1,20.8,80.1c9.3,25.9,21.4,51,37,73.7l-2.3,0.2
			c13.3-31.7,22-65.2,27.9-99l1.4-7.9l1.4,7.9c5,28.2,11.9,56.1,21.8,82.9c9.9,26.8,22.8,52.6,39.5,75.8h-2.5
			c16.7-23.2,29.6-49,39.4-75.8c9.8-26.9,16.7-54.8,21.7-82.9l1.7-9.6l1.7,9.6c4.2,23.5,9.7,46.8,17.1,69.5
			c7.4,22.7,16.9,44.7,28.8,65.3l-3-0.3c10.5-12.2,19.7-25.3,27.9-39.2c8.1-13.9,15.1-28.4,21-43.3c11.9-29.9,19.9-61.3,25.5-93
			l2-11.3l2,11.3c3.9,22,9,43.9,15.7,65.2c6.8,21.3,15.2,42.1,25.7,61.7l-3.9,0.3c7.5-22.9,13.1-46.5,17.3-70.3l2.1-12.1l2.1,12.1
			c4.5,25.5,10.6,50.7,19,75.1c8.4,24.4,19.2,48,33,69.8l-3.8,0c13-21.3,23.2-44.4,31.2-68.1c8-23.7,13.8-48.2,18.2-72.9l2.3-12.8
			l2.3,12.8c5.8,33.1,14.4,65.9,27.2,96.9l-4.1-0.4c13.9-21.8,24.8-45.6,33.2-70.1c8.4-24.5,14.5-49.9,19.1-75.5l2.4-13.4l2.4,13.4
			c4.9,27.8,11.7,55.2,21.3,81.7c9.6,26.4,22.2,51.8,38.4,74.7l-4.2,0.3c8.8-18.2,16-37.2,21.8-56.6c5.8-19.4,10.3-39.2,13.8-59.2
			l2.4-13.7l2.4,13.7c3.8,21.4,8.7,42.5,15.1,63.2c6.4,20.7,14.4,40.9,24.4,60.1l-4.4,0.2c7-16.2,12.7-32.9,17.5-49.9
			c4.8-17,8.6-34.2,11.6-51.6l2.4-13.8l2.5,13.8c5.9,32.9,14.3,65.4,26.9,96.2c6.3,15.4,13.8,30.3,22.5,44.5
			c8.7,14.2,18.6,27.6,29.8,39.8l-3.7,0c9-10,17.3-20.7,24.7-32l2.1,3.9l-30.1,0l-5.8,0l4-4.2c11.6-12.3,21.9-25.8,30.9-40.1
			c9-14.3,16.7-29.5,23.2-45.2c6.5-15.7,12-31.8,16.5-48.1c4.5-16.4,8.2-33,11.2-49.7l2.4-13.6l2.4,13.6c4.8,27.2,11.4,54.1,20.7,80
			c9.3,25.9,21.4,50.9,36.9,73.5l-4.2,0.4c7.8-17.1,14.2-34.9,19.5-53c5.3-18.1,9.4-36.6,12.7-55.2l2.4-13.4l2.4,13.4
			c5.2,29.6,12.6,58.9,23.2,86.9c5.3,14,11.5,27.7,18.6,40.9c7.1,13.2,15.3,25.8,24.4,37.6l-3.6-0.2c11.3-12.3,21.3-25.7,30-39.9
			c8.7-14.2,16.2-29.2,22.6-44.6c12.8-30.9,21.2-63.5,27.1-96.4l2.2-12.6l2.2,12.6c3,16.8,6.6,33.4,11.1,49.8
			c4.5,16.4,9.9,32.5,16.5,48.2c6.5,15.7,14.2,30.8,23.2,45.2c9,14.4,19.3,27.9,30.9,40.2l3.5,3.7l-5.1,0l-30.1,0l1.8-3.4
			c6.5,9.9,13.6,19.3,21.3,28.2l-3.5,0.4c11.1-21.1,19.8-43.5,26.6-66.5l-0.1,0.6v0v-0.3l0.1-0.3c5.6-19,10-38.3,13.5-57.8l2-11.6
			l2,11.6c3.3,19,7.5,37.8,12.9,56.3c5.4,18.5,12,36.6,20.1,54.1l-3.3-0.4c18.2-23.6,32.2-50.3,42.8-78.2
			c10.6-27.9,17.9-57.1,23.2-86.5l1.8-10l1.8,10c3,16.8,6.6,33.4,11.1,49.8c4.5,16.4,9.9,32.6,16.5,48.3
			c6.5,15.7,14.2,30.9,23.2,45.3c9,14.4,19.3,28,30.9,40.3l2.6,2.8l-3.8,0l-30.1,0l1.3-2.5c11,16.7,23.8,32.3,38.3,46.1l-2.5,0.5
			c7.2-16.5,13.2-33.6,18.1-50.9c4.9-17.4,8.9-35,12-52.8l1.4-8.2l1.4,8.2c3.8,21.9,8.8,43.7,15.5,64.9c6.7,21.2,15,41.9,25.5,61.5
			l-2.3,0c12.2-20.8,21.8-43.1,29.4-66c7.6-22.9,13.2-46.5,17.4-70.3l1.2-6.7l1.2,6.7c4.9,28,11.7,55.7,21.4,82.3
			c4.8,13.3,10.4,26.4,16.9,39.1c6.4,12.6,13.7,24.9,22,36.4l-1.6,0.2c12.4-26.5,21.3-54.5,27.8-83l0,0.2v0v-0.1l0-0.1
			c2.1-9.2,4-18.5,5.6-27.9l0.8-4.3l0.8,4.3l2.6,14.2l0,0.1v0.1l0,0l0-0.2c5.9,29.2,14,58,25.5,85.5c5.8,13.7,12.4,27.1,20.1,39.9
			c7.7,12.8,16.3,24.9,26,36.3l-0.8,0.1c14.6-22.2,25.9-46.5,34.7-71.6c8.8-25.1,15.1-51,19.8-77.2l0.2-1.4l0.2,1.4
			c3.6,20.8,8.3,41.4,14.4,61.5C2040.4,3195.2,2048,3214.9,2057.5,3233.8z"/>
		<linearGradient id="SVGID_29_" gradientUnits="userSpaceOnUse" x1="5799.6191" y1="3021.7144" x2="7681.9849" y2="3021.7144">
			<stop  offset="1.825751e-06" style="stop-color:#A2B8B2"/>
			<stop  offset="1" style="stop-color:#9AB8AB"/>
		</linearGradient>
		<path class="st30" d="M7679.7,2859.8c-8.6,18.8-18.9,36.9-31.3,53.4l-0.1,0.1l-0.1-0.1c-8.3-11.6-15.8-23.9-22.4-36.6
			c-6.6-12.7-12.2-25.9-17.2-39.3c-4.9-13.4-9.2-27.1-12.7-40.9c-0.9-3.5-1.8-6.9-2.6-10.4c-0.4-1.7-0.8-3.5-1.2-5.2l-1.1-5.2
			l-1.1-5.2l-1-5.3l-2-10.5l0.9,0c-5.3,30.3-12.8,60.2-23.8,89c-5.5,14.4-11.9,28.4-19.3,41.9c-7.4,13.5-15.9,26.4-25.5,38.5l-0.8,1
			l-0.5-1.2c-10.7-28.1-18.1-57.4-23.4-87.1h1.7c-3.7,21-8.4,41.9-14.7,62.3c-6.2,20.4-14,40.4-23.7,59.5l-0.9,1.7l-1-1.6
			c-14.8-24.1-25.9-50.3-34.4-77.2l0.1,0.2l0-0.1l-0.1-0.1l0,0c-5.6-17.8-10.1-36-13.6-54.3l0-0.1v-0.1v0l0,0.2l-1.9-10.3l2.5,0
			c-2.4,13.3-5.1,26.5-8.4,39.5c-3.3,13.1-7.1,26-11.6,38.7c-8.9,25.4-20.5,50.1-35.4,72.6l-1.4,2.2l-1.1-2.4
			c-7.5-16.8-13.6-34.2-18.7-51.9c-5.1-17.7-9.1-35.7-12.3-53.8l3,0c-5.4,30.9-13.2,61.5-24.6,90.9l-1.3,3.4l-1.6-3.3
			c-9.1-18.6-16.5-37.9-22.5-57.7c-6-19.8-10.6-39.9-14.2-60.3l3.4,0c-3.9,22.3-9.1,44.5-15.9,66.2c-6.9,21.7-15.4,42.8-26.3,62.9
			l-1.7,3.2l-1.6-3.2c-9-18.4-16.3-37.6-22.2-57.2c-5.9-19.6-10.5-39.6-14-59.7l3.9,0c-5.7,32.5-14,64.8-26.4,95.5l-1.8,4.5l-2-4.4
			c-7.4-16.8-13.6-34.2-18.6-51.9c-5.1-17.7-9-35.6-12.2-53.7l4.2,0c-4.3,24.6-10.1,49-18.1,72.7c-7.9,23.7-18.1,46.8-31,68.3
			l-2.6,4.3l-1.4-4.8c-6-19.9-10.6-40.1-14.2-60.5h4.4c-3.9,22.3-9.1,44.5-15.9,66.1c-6.9,21.6-15.4,42.8-26.3,62.8l-1.8,3.3l-2.1-3
			c-16.5-23.3-29.2-49.1-39-75.8c-9.7-26.8-16.6-54.4-21.5-82.4l4.7,0c-3,16.9-6.7,33.7-11.2,50.2c-4.6,16.5-10,32.9-16.7,48.7
			c-6.6,15.9-14.4,31.3-23.6,45.9c-9.1,14.6-19.6,28.4-31.5,40.9l-1.8-4.1l30.1,0l4.5,0l-2.5,3.8c-6.8,10.3-14.3,20.2-22.4,29.5
			l-2.2,2.5l-1.7-2.9c-12.9-21.5-22.9-44.5-30.8-68.1c-7.9-23.7-13.7-48-18-72.5l4.8,0c-3.6,20.5-8.2,40.8-14.3,60.8l-1.9,6.4
			l-2.7-6.1c-7.5-16.9-13.6-34.4-18.7-52.1c-5.1-17.7-9.1-35.8-12.3-53.9h4.9c-5.6,31.7-13.6,63.1-25.6,93.1
			c-6,15-12.9,29.6-21.1,43.6c-8.1,14-17.4,27.3-27.9,39.7l-2.5,2.9l-1.7-3.4c-9-18.5-16.3-37.8-22.2-57.4c-3-9.8-5.6-19.8-7.9-29.7
			c-2.3-10-4.3-20.1-6.1-30.1l4.9,0c-3.5,19.8-7.9,39.4-13.7,58.7c-5.7,19.3-12.8,38.2-21.5,56.3l-2.2,4.6l-2.2-4.6
			c-9.1-18.5-16.4-37.9-22.3-57.6c-5.9-19.7-10.5-39.8-14-60h4.8c-5.8,32.6-14.1,65-26.7,95.8c-6.3,15.4-13.6,30.4-22.2,44.7
			c-8.6,14.3-18.4,27.8-29.5,40.3l-2.3,2.5l-1.6-3c-11.2-20.3-20.1-41.9-27.1-63.9c-7.1-22.1-12.3-44.6-16.3-67.4l4.6,0
			c-4.7,26.2-11,52.2-19.8,77.4c-8.8,25.2-20.2,49.6-34.8,72l-2,3.1l-1.9-3.1c-12.6-21.3-22.5-44.1-30.3-67.6
			c-7.8-23.5-13.5-47.5-17.8-71.8l4.3,0c-5,28.1-11.9,56-21.7,83c-9.8,26.9-22.7,52.8-39.4,76.2l-2.2,3.1l-1.5-3.5
			c-12.9-31.4-21.5-64.4-27.3-97.7h4c-3.2,18.4-7.3,36.6-12.5,54.6c-5.2,17.9-11.5,35.6-19.1,52.7l-1.5,3.4l-1.9-3.1
			c-13-21.6-23.2-44.7-31.2-68.5c-8-23.8-13.8-48.3-18.1-73l3.5,0c-5,28-11.8,55.7-21.6,82.5c-9.8,26.7-22.5,52.5-39.1,75.8l-1.4,2
			l-1.3-2.1c-13.2-21.6-23.5-44.9-31.5-68.8c-8.1-24-13.9-48.6-18.3-73.4l2.9,0c-4.3,24.3-10,48.3-17.9,71.8
			c-7.8,23.4-17.7,46.2-30.4,67.4l-1.3,2.3l-1.1-2.4c-7.2-16.6-13.2-33.8-18.1-51.2c-4.9-17.4-8.8-35.1-11.9-52.9l2.5,0
			c-4,22.6-9.3,45-16.3,66.8c-7,21.9-15.8,43.2-26.9,63.3l-0.8,1.5l-1-1.3c-16.7-23.4-29.6-49.3-39.4-76.3
			c-9.8-27-16.7-54.9-21.6-83.1h1.5c-3,16.8-6.7,33.6-11.3,50c-4.6,16.5-10.1,32.7-16.7,48.5c-6.6,15.8-14.4,31.1-23.5,45.6
			c-9.1,14.5-19.5,28.2-31.3,40.6l-0.3-0.8l30.1,0l0.8,0l-0.4,0.7c-5.9,9-12.4,17.6-19.3,25.8l-0.3,0.4l-0.3-0.5
			c-12.1-20.9-21.6-43.3-29.1-66.2c-7.5-22.9-13-46.5-17.2-70.3h0.2c-2.2,12.2-4.7,24.4-7.7,36.5c2.9-12.1,5.4-24.3,7.6-36.5
			l0.1-0.4l0.1,0.4c4.2,23.7,9.8,47.3,17.4,70.2c7.6,22.9,17.2,45.1,29.3,66l-0.6-0.1c6.9-8.2,13.3-16.8,19.2-25.8l0.4,0.7l-30.1,0
			l-1.1,0l0.8-0.8c11.7-12.4,22-26.1,31.1-40.5c9-14.5,16.7-29.7,23.3-45.5c6.6-15.7,12-31.9,16.5-48.4c4.5-16.4,8.1-33.1,11.1-49.9
			l0.8-4.3l0.8,4.3c5,28.1,11.9,56,21.8,82.8c9.8,26.8,22.7,52.5,39.4,75.7l-1.8,0.1c10.9-20,19.6-41.3,26.5-63
			c6.9-21.8,12.1-44.1,16-66.6l1.2-7l1.2,7c3.1,17.7,7,35.3,12,52.6c4.9,17.3,10.9,34.3,18.1,50.8l-2.4-0.1
			c12.5-21.1,22.3-43.7,30-67c7.7-23.3,13.4-47.2,17.6-71.4l1.5-8.3l1.5,8.3c4.4,24.7,10.3,49.2,18.3,72.9
			c8,23.7,18.3,46.8,31.3,68.1l-2.7-0.1c16.3-23,28.9-48.6,38.5-75.1c9.6-26.6,16.4-54.1,21.3-82l1.8-10l1.8,10
			c4.4,24.5,10.2,48.8,18.1,72.4c7.9,23.6,18.1,46.4,30.9,67.7l-3.4,0.2c7.6-16.9,13.7-34.4,18.8-52.2c5.1-17.8,9.1-35.9,12.3-54.2
			l2-11.4l2,11.4c5.8,33.1,14.4,65.8,27.2,96.8l-3.7-0.4c16.4-23,29.1-48.6,38.8-75.2c9.7-26.6,16.5-54.3,21.5-82.2l2.2-12.2
			l2.2,12.2c4.3,24.1,9.9,48,17.7,71.2c7.7,23.2,17.5,45.7,30,66.7l-3.9-0.1c14.4-22.1,25.5-46.2,34.2-71.1
			c8.7-24.9,14.9-50.7,19.5-76.7l2.3-13.1l2.3,13.1c4,22.6,9.2,44.9,16.2,66.7c7,21.8,15.8,43,26.8,63l-3.9-0.4
			c10.9-12.2,20.5-25.5,29-39.5c8.4-14,15.7-28.8,21.9-44c12.4-30.4,20.6-62.4,26.3-94.8l2.4-13.5l2.4,13.5
			c3.5,20.1,8.1,40,13.9,59.4c5.9,19.5,13.1,38.6,22,56.8l-4.4,0c8.6-17.9,15.5-36.6,21.2-55.6c5.7-19.1,10.1-38.5,13.5-58.1
			l2.4-13.7l2.5,13.7c1.8,10,3.8,20,6.1,29.9c2.3,9.9,4.9,19.7,7.8,29.4c5.8,19.4,13.1,38.5,21.9,56.7l-4.1-0.5
			c10.3-12.1,19.4-25.2,27.4-38.9c8-13.7,14.9-28.2,20.7-43c11.8-29.6,19.7-60.7,25.3-92.1l2.5-13.8l2.4,13.8
			c3.2,18,7.1,35.9,12.1,53.4c5,17.6,11.1,34.8,18.5,51.5l-4.6,0.3c6-19.7,10.6-39.9,14.2-60.2l2.4-13.7l2.4,13.7
			c4.3,24.3,10,48.4,17.8,71.8c7.8,23.4,17.7,46,30.4,67.1l-3.9-0.3c8-9.2,15.3-18.8,22-29l2,3.8l-30.1,0l-5.6,0l3.9-4.1
			c11.6-12.3,21.9-25.8,30.9-40.2c9-14.4,16.7-29.5,23.2-45.2c6.5-15.7,12-31.8,16.5-48.2c4.5-16.4,8.2-33,11.2-49.8l2.4-13.2
			l2.3,13.2c4.9,27.7,11.6,55.2,21.2,81.6c9.6,26.4,22.1,51.8,38.3,74.7l-3.9,0.2c10.7-19.7,19.2-40.6,26-62
			c6.8-21.4,11.9-43.4,15.8-65.5l2.2-12.5l2.2,12.5c3.5,20.3,8.1,40.4,14,60l-4-0.5c12.8-21.2,22.8-44,30.7-67.4
			c7.9-23.5,13.7-47.7,18-72.1l2.1-11.9l2.1,11.9c3.1,17.9,7.1,35.8,12.1,53.3c5,17.5,11,34.7,18.3,51.4l-3.8,0.1
			c12.3-30.4,20.6-62.3,26.3-94.7l1.9-11l1.9,11c3.5,20,8,39.8,13.8,59.3c5.8,19.4,13,38.5,21.8,56.7l-3.3-0.1
			c10.7-19.8,19.3-40.7,26.1-62.2c6.8-21.5,12-43.5,15.9-65.7l1.7-9.6l1.7,9.6c3.5,20.2,8.1,40.2,14,59.9
			c5.9,19.6,13.2,38.9,22.2,57.2l-2.9,0.1c11.4-29.1,19.1-59.5,24.6-90.2l1.5-8.5l1.5,8.5c3.1,18,7.1,35.9,12.1,53.5
			c5,17.6,11.1,34.9,18.4,51.6l-2.5-0.2c14.8-22.3,26.3-46.7,35.2-72c4.5-12.6,8.3-25.5,11.6-38.5c3.3-13,6-26.1,8.4-39.3l1.2-6.9
			l1.3,6.9l1.9,10.3l0,0.1v0.1v0l0-0.2c3.5,18.2,7.9,36.3,13.4,54l-0.1-0.2l0,0l0.1,0.2c8.4,26.8,19.3,52.8,33.9,76.8l-1.9,0.1
			c9.7-18.9,17.4-38.8,23.7-59.1c6.3-20.3,11.1-41.1,14.8-62l0.9-4.9l0.8,4.9c5.1,29.5,12.4,58.8,23,86.8l-1.3-0.2
			c9.6-12,18-24.8,25.5-38.2c7.4-13.4,13.9-27.4,19.4-41.7c11.1-28.6,18.6-58.5,24.1-88.7l0.4-2.4l0.5,2.4l2,10.5l1,5.3l1.1,5.2
			l1.1,5.2c0.4,1.7,0.8,3.5,1.2,5.2c0.8,3.5,1.6,7,2.5,10.4c3.5,13.8,7.7,27.5,12.6,40.9c4.9,13.4,10.5,26.6,17,39.3
			c6.5,12.7,13.9,25,22.2,36.6l-0.2,0C7660.6,2896.6,7671.1,2878.6,7679.7,2859.8z"/>
	<linearGradient id="SVGID_30_" gradientUnits="userSpaceOnUse" x1="3356.8987" y1="552" x2="3356.8987" y2="273">
		<stop  offset="7.458905e-07" style="stop-color:#E8FAFF"/>
		<stop  offset="1" style="stop-color:#B1CFE6"/>
	</linearGradient>
	<path class="st31" d="M4093.6,520.9c0,10.7-1.1,21.1-3.3,31.1H2635.5c-9.8-19.9-15.3-42.3-15.3-66c0-82.5,66.9-149.5,149.5-149.5
		c38.1,0,72.8,14.2,99.2,37.7C2907.8,313.3,2976,273,3053.6,273c89.2,0,166,53.3,200.2,129.8c23.2-21.8,54.4-35.2,88.7-35.2
		c50.4,0,94.2,28.8,115.5,70.9c31.7-72.5,104.1-123.2,188.4-123.2c80.1,0,149.5,45.8,183.4,112.7c27.2-33.8,68.8-55.4,115.5-55.4
		C4027.3,372.6,4093.6,439,4093.6,520.9z"/>
	<linearGradient id="SVGID_31_" gradientUnits="userSpaceOnUse" x1="6559.4619" y1="895" x2="6559.4619" y2="589.9584">
		<stop  offset="7.458905e-07" style="stop-color:#E8FAFF"/>
		<stop  offset="1" style="stop-color:#B1CFE6"/>
	</linearGradient>
	<path class="st32" d="M7319,847.5c0,16.8-3.3,32.9-9.3,47.5H5815.8c-10.3-25.1-15.9-52.5-15.9-81.2c0-118.5,96.1-214.6,214.6-214.6
		c86.6,0,161.3,51.3,195.2,125.2c32.3-33.7,77.9-54.7,128.3-54.7c44.9,0,85.9,16.6,117.1,44c33.4-73,107-123.7,192.5-123.7
		c97.9,0,180.2,66.5,204.4,156.8c28.4-33.1,70.5-54,117.5-54c54.6,0,102.6,28.3,130.2,71c23-25.7,56.4-41.8,93.6-41.8
		C7262.7,721.8,7319,778.1,7319,847.5z"/>
	<linearGradient id="SVGID_32_" gradientUnits="userSpaceOnUse" x1="2733.5107" y1="1962" x2="2733.5107" y2="1466.7372">
		<stop  offset="7.458905e-07" style="stop-color:#E8FAFF"/>
		<stop  offset="1" style="stop-color:#B1CFE6"/>
	</linearGradient>
	<path class="st33" d="M4076,1914.2c0,16.2-1.1,32.1-3.1,47.8H1393.6c-1.7-15.7-2.5-31.6-2.5-47.8c0-247.2,200.3-447.5,447.5-447.5
		c176,0,328.2,101.6,401.3,249.3c46.2-45.3,109.6-73.3,179.4-73.3c63.1,0,120.8,22.8,165.5,60.6c55.3-57.5,133.1-93.3,219.2-93.3
		c123.1,0,229.2,73.1,277,178.3c48-46.6,113.4-75.3,185.6-75.3c42.7,0,83,10,118.8,27.9c61.8-115.4,183.6-193.8,323.7-193.8
		C3911.7,1547.2,4076,1711.5,4076,1914.2z"/>
</svg>
