<?xml version="1.0" encoding="utf-8"?>
<svg xmlns="http://www.w3.org/2000/svg" viewBox="0 0 7680 4320">
<style type="text/css">
	.st0{fill:url(#SVGID_1_);}
	.st1{fill:url(#SVGID_2_);}
	.st2{opacity:0.7;}
	.st3{fill:url(#SVGID_3_);}
	.st4{fill:url(#SVGID_4_);}
	.st5{fill:url(#SVGID_5_);}
	.st6{opacity:0.85;}
	.st7{fill:url(#SVGID_6_);}
	.st8{fill:url(#SVGID_7_);}
	.st9{fill:#AAC3E0;}
	.st10{display:none;fill:url(#SVGID_8_);}
	.st11{fill:url(#SVGID_9_);}
	.st12{fill:#8FAFC2;}
	.st13{fill:#8FA6B8;}
	.st14{fill:url(#SVGID_10_);}
	.st15{fill:url(#SVGID_11_);}
	.st16{fill:url(#SVGID_12_);}
	.st17{fill:url(#SVGID_13_);}
	.st18{fill:#C5DDEB;}
	.st19{fill:#ABC0CC;}
	.st20{fill:none;stroke:#AFCAF0;stroke-width:3;stroke-miterlimit:10;}
	.st21{fill:#BFDFF5;}
	.st22{fill:url(#SVGID_14_);}
	.st23{fill:url(#SVGID_15_);}
	.st24{fill:url(#SVGID_16_);}
	.st25{fill:url(#SVGID_17_);}
	.st26{fill:url(#SVGID_18_);}
	.st27{fill:#C9E2F0;}
	.st28{fill:url(#SVGID_19_);}
	.st29{fill:url(#SVGID_20_);}
	.st30{fill:url(#SVGID_21_);}
	.st31{fill:url(#SVGID_22_);}
	.st32{fill:url(#SVGID_23_);}
	.st33{opacity:0.7;fill:url(#SVGID_24_);}
	.st34{fill:none;stroke:#E3EFFF;stroke-width:3;stroke-miterlimit:10;}
</style>
	<linearGradient id="SVGID_1_" gradientUnits="userSpaceOnUse" x1="3840" y1="4320" x2="3840" y2="-9.094947e-13">
		<stop  offset="1.331947e-07" style="stop-color:#858E94"/>
		<stop  offset="1" style="stop-color:#556D99"/>
	</linearGradient>
	<rect class="st0" width="7680" height="4320"/>
	<linearGradient id="SVGID_2_" gradientUnits="userSpaceOnUse" x1="3840" y1="1072" x2="3840" y2="0">
		<stop  offset="2.466767e-06" style="stop-color:#657691"/>
		<stop  offset="1" style="stop-color:#677185"/>
	</linearGradient>
	<polygon class="st1" points="7680,0 7680,1034 7243,1034 6879,950 5714,895 5290,964 4632,989 3623,895 3118,1050 2598,964 
		1961,1072 1773,934 1189,959 416,989 0,891.93 0,0 	"/>
		<radialGradient id="SVGID_3_" cx="5061.085" cy="485.766" r="851.7502" gradientTransform="matrix(1 0 0 1.0008 0 0)" gradientUnits="userSpaceOnUse">
		<stop  offset="2.466767e-06" style="stop-color:#9EBFF0"/>
		<stop  offset="1" style="stop-color:#677185;stop-opacity:0"/>
	</radialGradient>
	<polygon class="st3" points="7680,0 7680,1034.827 7243,1034.827 6879,950.76 5714,895.716 5290,964.771 4632,989.791 
		3623,895.716 3118,1050.84 2598,964.771 1961,1072.858 1773,934.747 1189,959.767 416,989.791 0,892.644 0,0 	"/>
		<radialGradient id="SVGID_4_" cx="1347.7234" cy="570.5319" r="693.0157" gradientTransform="matrix(1 0 0 1.0008 0 0)" gradientUnits="userSpaceOnUse">
		<stop  offset="2.466767e-06" style="stop-color:#ABC9F5"/>
		<stop  offset="1" style="stop-color:#677185;stop-opacity:0"/>
	</radialGradient>
	<polygon class="st4" points="7680,0 7680,1034.827 7243,1034.827 6879,950.76 5714,895.716 5290,964.771 4632,989.791 
		3623,895.716 3118,1050.84 2598,964.771 1961,1072.858 1773,934.747 1189,959.767 416,989.791 0,892.644 0,0 	"/>
	<linearGradient id="SVGID_5_" gradientUnits="userSpaceOnUse" x1="3840" y1="895" x2="3840" y2="0">
		<stop  offset="2.466767e-06" style="stop-color:#61728C"/>
		<stop  offset="1" style="stop-color:#636D80"/>
	</linearGradient>
	<polygon class="st5" points="7680,0 7680,807 7323,807 6570,782 6179,804 5879,756 5548,826 5043,782 4675,895 4231,864 3986,782 
		3030,782 2641,829 2486,782 2071,742 1733,722 1361,678 1249,700 701,670 309,782 0,742 0,0 	"/>
		<radialGradient id="SVGID_6_" cx="5128.4893" cy="452.0638" r="1424.7731" gradientTransform="matrix(1 0 0 1.0008 0 0)" gradientUnits="userSpaceOnUse">
		<stop  offset="2.466767e-06" style="stop-color:#9EBFF0"/>
		<stop  offset="1" style="stop-color:#636D80;stop-opacity:0"/>
	</radialGradient>
	<polygon class="st7" points="7680,0 7680,807.646 7323,807.646 6570,782.626 6179,804.643 5879,756.605 5548,826.661 5043,782.626 
		4675,895.716 4231,864.691 3986,782.626 3030,782.626 2641,829.663 2486,782.626 2071,742.594 1733,722.578 1361,678.542 
		1249,700.56 701,670.536 309,782.626 0,742.594 0,0 	"/>
		<radialGradient id="SVGID_7_" cx="1369.1702" cy="556.2341" r="875.6016" gradientTransform="matrix(1 0 0 1.0008 0 0)" gradientUnits="userSpaceOnUse">
		<stop  offset="0" style="stop-color:#ABC9F5"/>
		<stop  offset="1" style="stop-color:#636D80;stop-opacity:0"/>
	</radialGradient>
	<polygon class="st8" points="7680,0 7680,807.646 7323,807.646 6570,782.626 6179,804.643 5879,756.605 5548,826.661 5043,782.626 
		4675,895.716 4231,864.691 3986,782.626 3030,782.626 2641,829.663 2486,782.626 2071,742.594 1733,722.578 1361,678.542 
		1249,700.56 701,670.536 309,782.626 0,742.594 0,0 	"/>
		<polygon class="st9" points="1429.991,588.988 1613.855,841.221 1617.894,846.763 1614.693,852.472 1560.19,949.659 
			1558.85,939.491 1697.565,1090.653 1699.13,1092.358 1699.097,1094.5 1697.287,1212.5 1696.076,1209.724 1874.5,1380.5 
			1690.924,1215.276 1689.739,1214.21 1689.713,1212.5 1687.903,1094.5 1689.435,1098.347 1546.15,951.509 1541.822,947.074 
			1544.81,941.341 1596.307,842.528 1597.145,853.779 1406.009,607.012 		"/>
		<polygon class="st9" points="1563.295,788.16 1514.616,848.258 1512.722,850.596 1510.321,850.795 1464.038,854.621 
			1467.531,851.508 1456.83,887.082 1456.547,888.022 1455.918,888.438 1413.5,916.5 1453.082,884.562 1452.17,885.917 
			1459.469,849.492 1459.986,846.912 1462.963,846.379 1508.679,838.205 1504.384,840.742 1547.177,776.32 		"/>
		<polygon class="st9" points="1600.137,854.227 1651.936,875.688 1655.896,877.329 1656.542,880.843 1662.863,915.238 
			1658.174,911.032 1730.73,923.637 1731.812,923.825 1732.179,924.661 1747.5,959.5 1728.821,926.34 1730.27,927.363 
			1656.826,921.968 1653.273,921.707 1652.137,917.762 1642.458,884.157 1647.064,889.312 1593.402,873.059 		"/>
		<polygon class="st9" points="1579.257,967.799 1556.512,1013.969 1556.252,1008.473 1573.661,1047.836 1574.763,1050.327 
			1573.159,1051.886 1535.5,1088.5 1567.841,1047.114 1567.339,1051.164 1544.749,1014.527 1543.39,1012.325 1544.488,1009.031 
			1560.756,960.201 		"/>
		<polygon class="st9" points="1673.681,1065.609 1724.512,1080.367 1725.78,1080.735 1726.444,1081.428 1749.468,1105.447 
			1747.5,1104.656 1814.5,1107.5 1747.5,1110.344 1746.48,1110.387 1745.532,1109.553 1720.556,1087.572 1722.488,1088.633 
			1670.589,1078.236 		"/>
		<polygon class="st9" points="1720.98,1233.825 1713.197,1295.739 1712.629,1293.828 1733.599,1322.636 1734.15,1323.394 
			1733.75,1324.125 1715.5,1357.5 1731.25,1322.875 1731.401,1324.364 1708.371,1297.173 1707.743,1296.431 1707.803,1295.261 
			1711.02,1232.943 		"/>
		<polygon class="st9" points="1794.169,1304.109 1824.795,1313.487 1824.377,1313.452 1858.432,1309.924 1858.583,1309.908 
			1858.708,1309.959 1897.5,1325.5 1858.292,1311.042 1858.568,1311.076 1824.623,1315.548 1824.426,1315.574 1824.205,1315.513 
			1793.331,1306.99 		"/>
	<linearGradient id="SVGID_8_" gradientUnits="userSpaceOnUse" x1="3745.5" y1="4263" x2="3745.5" y2="1831">
		<stop  offset="1.631956e-07" style="stop-color:#6A56CC"/>
		<stop  offset="0.454" style="stop-color:#A59ADE"/>
		<stop  offset="0.819" style="stop-color:#CFCAEA"/>
		<stop  offset="1" style="stop-color:#DFDCEF"/>
	</linearGradient>
	<polygon class="st10" points="-72,2378 279,1962 553,2256 1374,2346 1766,1984 2130,2362 2412,2078 2867,2415 4471,2462 4902,2008 
		5098,2205 5500,1831 5980,2107 6372,2096 6583,1902 6983,2178 7592,2417 7583,4263 -101,4080 	"/>
	<linearGradient id="SVGID_9_" gradientUnits="userSpaceOnUse" x1="3796" y1="4263" x2="3796" y2="1831">
		<stop  offset="2.285622e-06" style="stop-color:#416A80"/>
		<stop  offset="1" style="stop-color:#7F90AD"/>
	</linearGradient>
	<path class="st11" d="M7592,2417l-1.72,353.43l-1.61,330.21l-2.43,498.36c0,0.01,0,0.01,0,0.01l-1.05,214.46L7583,4263
		l-1979.65-47.15l-31.47-0.75l-80.03-1.9l-58.11-1.39l-66.08-1.57l-87.19-2.08l-23.47-0.56l-747.81-17.8l-4.87-0.12l-856.28-20.39
		l-671.11-15.99L0,4082.41V2292.67L279,1962l239.07,256.52L553,2256l522.09,57.23l64.65,7.09l26.93,2.95L1374,2346l75.25-69.5
		L1766,1984l364,378l282-284l302.87,224.32L2867,2415l498.09,14.59l19.92,0.59l78.48,2.3L4471,2462l116.78-123.01L4902,2008l196,197
		l402-374l375,215.62l105,60.38l83.86-2.35L6372,2096l36.21-33.29L6583,1902l304.26,209.94L6983,2178l199.91,78.45l37.52,14.73
		l55.41,21.74L7592,2417z"/>
		<path class="st12" d="M4602.775,2321.743l74.373-78.847l74.465-78.759l149.077-157.38l1.277-1.348l1.314,1.318l98.108,98.392
			l49.003,49.247l48.946,49.304l-2.624-0.051l187.003-173.595l93.543-86.753l93.683-86.603l1.362,1.464
			c-14.516,15.614-29.19,31.058-43.986,46.371l-11.074,11.51c-3.687,3.842-7.379,7.677-11.119,11.462l-22.357,22.794l-22.373,22.777
			l-22.571,22.564l-22.571,22.564c-7.526,7.518-15.027,15.064-22.627,22.503c-15.151,14.931-30.291,29.875-45.548,44.691
			l-22.848,22.266l-22.954,22.153l-22.976,22.129l-23.066,22.032c-7.699,7.333-15.355,14.712-23.088,22.008l-23.179,21.91
			l-12.257,11.585l-12.169-12.057l-24.677-24.449l-24.565-24.561l-24.559-24.567l-24.435-24.69l-24.435-24.69l-24.308-24.817
			l-24.3-24.823l-24.174-24.949l24.092-0.282l-18.916,19.405l-19.016,19.31c-12.675,12.876-25.345,25.757-38.119,38.539
			c-12.743,12.811-25.479,25.629-38.32,38.348l-19.221,19.116l-19.358,18.985l-38.734,37.954c-3.217,3.173-6.464,6.318-9.734,9.441
			l-9.781,9.396l-19.562,18.792c-12.988,12.579-26.197,24.948-39.363,37.357l-9.876,9.306l-9.96,9.226
			c-6.647,6.144-13.273,12.308-19.998,18.379L4602.775,2321.743z"/>
		<path class="st12" d="M1573.607,2160.303l95.541-88.861l95.733-88.653l1.183-1.096l1.123,1.164l182.233,188.776l181.809,189.184
			l-2.441-0.019l109.36-109.866l109.593-109.635l1.419,1.409l-6.271,7.427l-6.33,7.368c-4.23,4.902-8.417,9.846-12.683,14.713
			l-25.607,29.187l-25.885,28.911c-8.637,9.629-17.236,19.295-26.013,28.784l-26.204,28.594
			c-8.739,9.528-17.442,19.09-26.285,28.514c-8.824,9.443-17.591,18.942-26.461,28.339l-26.587,28.214l-10.486,11.128
			l-11.343-11.295l-23.245-23.148c-7.733-7.73-15.517-15.413-23.194-23.198l-23.096-23.292l-11.542-11.651l-11.479-11.712
			c-15.297-15.625-30.651-31.194-45.823-46.939c-15.206-15.712-30.462-31.376-45.542-47.209
			c-15.117-15.798-30.272-31.559-45.259-47.482l-22.54-23.827l-22.419-23.944l-22.382-23.979l-22.264-24.093l-11.128-12.05
			l-11.064-12.112l-22.123-24.229l19.608,0.575c-16.463,14.226-32.842,28.543-49.468,42.592l-24.857,21.163
			c-8.304,7.034-16.522,14.162-24.928,21.086l-25.101,20.898l-12.551,10.449c-4.189,3.477-8.437,6.89-12.653,10.338l-25.36,20.618
			c-8.543,6.776-17.002,13.642-25.629,20.327L1573.607,2160.303z"/>
	<polygon class="st13" points="6067.31,2187.31 5840.33,2625.24 5967.6,2556.43 5715.72,3443.23 5712.66,3454.01 5624.83,3471.02 
		5364.18,3521.51 5209.25,3037.2 5243.95,2966.84 5250.69,2975.77 5616,2235 5763,2220 5971,1898 6081.24,1886.57 6091.35,1885.52 	
		"/>
	<linearGradient id="SVGID_10_" gradientUnits="userSpaceOnUse" x1="6203.8599" y1="3509.9988" x2="6203.8599" y2="1864">
		<stop  offset="6.553180e-07" style="stop-color:#647B96"/>
		<stop  offset="1" style="stop-color:#93A9B8"/>
	</linearGradient>
	<polygon class="st14" points="6703,3252 6605.24,3270.93 6595.32,3272.85 5715.72,3443.23 5704.72,3445.36 5951.5,2576.5 
		5816.5,2649.5 6057.5,2184.5 6081.24,1886.57 6091.35,1885.52 6299,1864 6594,2400.74 6599.04,2409.91 6648,2499 	"/>
	<polygon class="st13" points="7495.37,3130.76 6597.54,3322.24 6595.32,3272.85 6594.87,3262.76 6692.38,3243.87 6638.19,2501.9 
		6586.72,2408.26 6594,2400.74 6599.04,2409.91 7197.76,1790.92 7208.11,1780.23 7192.16,2279.95 7268.54,2222.43 7492.95,3121.05 	
		"/>
	<linearGradient id="SVGID_11_" gradientUnits="userSpaceOnUse" x1="7430.75" y1="3123.1401" x2="7430.75" y2="1770">
		<stop  offset="6.553180e-07" style="stop-color:#647B96"/>
		<stop  offset="1" style="stop-color:#93A9B8"/>
	</linearGradient>
	<path class="st15" d="M7680,2392.86v688.3l-91.33,19.48l-95.72,20.41l-9.79,2.09l-60.46-242.13c-0.01-0.02-0.01-0.03-0.02-0.05
		l-13.52-54.15c0-0.01,0-0.01,0-0.02l-2.18-8.72l-131.14-525.15l-13.34-53.42l-42.07,31.68l-38.93,29.32l1.41-44.05l14.85-465.53
		l10.35-10.69L7218,1770l176,355l120,29L7680,2392.86z"/>
	<polygon class="st13" points="1935.71,3049.96 1761.2,3338.72 1661.89,3326.38 1590.56,3317.51 1585.76,3306.84 1268.4,2601.09 
		1115.97,2564.75 1042.82,2204.61 1156.57,2323.45 1080.54,1847.41 1092.1,1856.4 1282,2004 1840.07,2913.25 1845.85,2903.55 	"/>
	<linearGradient id="SVGID_12_" gradientUnits="userSpaceOnUse" x1="798.69" y1="3328" x2="798.69" y2="1833">
		<stop  offset="6.553180e-07" style="stop-color:#647B96"/>
		<stop  offset="1" style="stop-color:#93A9B8"/>
	</linearGradient>
	<polygon class="st16" points="1597.38,3308.28 1585.76,3306.84 0,3109.69 0,2838.01 404,2237 518.07,2218.52 657,2196 813,1874 
		1062,1833 1080.54,1847.41 1092.1,1856.4 1166.67,2323.27 1171.5,2353.5 1139.74,2320.32 1059.5,2236.5 1075.09,2313.23 
		1124.5,2556.5 1275.5,2592.5 1474.74,3035.56 1474.74,3035.57 	"/>
	<linearGradient id="SVGID_13_" gradientUnits="userSpaceOnUse" x1="2222" y1="3663" x2="2222" y2="2392">
		<stop  offset="6.553180e-07" style="stop-color:#647B96"/>
		<stop  offset="1" style="stop-color:#93A9B8"/>
	</linearGradient>
	<polygon class="st17" points="2839,2707 2709.74,3622.32 2708.35,3632.23 2704,3663 2526.72,3605.73 2526.71,3605.73 
		2469.64,3587.3 2469.62,3587.29 2186.82,3495.94 2177.26,3492.85 1661.89,3326.38 1611.18,3310 1605,3308 1840.07,2913.25 
		1845.85,2903.55 1948,2732 2103,2703 2234,2474 2492,2392 2614.91,2503.57 2622.71,2510.65 	"/>
		<path class="st18" d="M5462.653,2544.258l37.924-77.518l38.024-77.469l76.168-154.878l0.334-0.68l0.756-0.078l73.492-7.58
			l73.499-7.517l-1.084,0.664l104.174-160.888l52.087-80.444l52.201-80.37l0.241-0.371l0.436-0.044l53.419-5.368l0.155,1.492
			c-4.417,0.787-8.833,1.566-13.256,2.298l-13.262,2.236c-4.418,0.766-8.848,1.426-13.271,2.144l-13.275,2.113l2.964-1.818
			c-7.874,13.929-16.04,27.669-24.073,41.495c-8.007,13.843-16.237,27.541-24.429,41.265l-12.287,20.585l-6.144,10.293
			l-6.242,10.229l-24.973,40.913c-4.176,6.81-8.293,13.658-12.518,20.437l-12.689,20.325l-25.38,40.651
			c-8.417,13.578-17.006,27.044-25.57,40.528l-12.851,20.221l-12.948,20.159l-3.472,5.406l-6.441,0.665
			c-12.249,1.264-24.49,2.602-36.745,3.807l-36.759,3.654c-12.25,1.249-24.516,2.346-36.774,3.516
			c-12.261,1.141-24.515,2.353-36.789,3.371l10.154-7.054l-39.416,76.782l-20.078,38.209l-10.039,19.104l-5.029,9.547l-5.116,9.505
			l-20.463,38.019l-5.117,9.504l-5.21,9.458l-10.421,18.916l-10.442,18.906l-10.605,18.825c-3.532,6.276-7.057,12.557-10.676,18.79
			c-3.598,6.244-7.169,12.501-10.84,18.709L5462.653,2544.258z"/>
		<path class="st19" d="M781.172,1937.403l30.721-63.94l0.275-0.572l0.633-0.106l62.217-10.453l62.232-10.361l124.477-20.64
			l0.727-0.12l0.585,0.454l220.189,170.757l0.287,0.223l0.19,0.31l157.099,256.6l78.542,128.304l78.278,128.467l-1.705,1.046
			c-29.429-40.774-57.557-82.347-85.767-123.87l-41.721-62.648c-6.98-10.425-13.831-20.929-20.695-31.426
			c-6.855-10.502-13.767-20.969-20.553-31.513l-20.436-31.585l-20.293-31.672c-13.562-21.095-26.911-42.32-40.319-63.509
			c-6.724-10.582-13.349-21.226-19.993-31.857l-19.931-31.895l-39.544-63.985l4.293,4.795l-54.892-42.889l-54.666-43.18
			l-54.405-43.515l-27.1-21.89l-13.547-10.949l-13.494-11.017l11.567,2.938l-31.248,4.379l-31.271,4.237
			c-20.838,2.881-41.727,5.455-62.6,8.125c-20.881,2.62-41.733,5.418-62.659,7.769l-31.365,3.669l-15.683,1.832l-15.708,1.682
			l4.034-3.012l-8.636,15.522c-2.892,5.168-5.728,10.362-8.665,15.508l-8.788,15.448c-2.912,5.158-5.879,10.289-8.863,15.412
			L781.172,1937.403z"/>
	<line class="st20" x1="916.633" y1="1156.022" x2="1015.867" y2="1033.478"/>
	<line class="st20" x1="998.748" y1="1713.628" x2="1180.752" y2="1488.872"/>
	<line class="st20" x1="2382.998" y1="2330.152" x2="2520.502" y2="2160.348"/>
	<line class="st20" x1="2233.491" y1="1801.297" x2="2427.509" y2="1561.703"/>
	<line class="st20" x1="2714.491" y1="1592.297" x2="2908.509" y2="1352.703"/>
	<line class="st20" x1="3176.491" y1="2562.296" x2="3370.509" y2="2322.704"/>
	<line class="st20" x1="152.491" y1="2415.296" x2="346.509" y2="2175.704"/>
	<line class="st20" x1="4297.491" y1="3326.296" x2="4491.509" y2="3086.704"/>
	<line class="st20" x1="3867.491" y1="2509.296" x2="4061.509" y2="2269.704"/>
	<line class="st20" x1="2416.491" y1="3684.296" x2="2610.509" y2="3444.704"/>
	<line class="st20" x1="6502.491" y1="3565.296" x2="6696.509" y2="3325.704"/>
	<line class="st20" x1="4579.491" y1="2603.296" x2="4773.509" y2="2363.704"/>
	<line class="st20" x1="3355.491" y1="2670.296" x2="3549.509" y2="2430.704"/>
	<line class="st20" x1="3390.138" y1="3687.576" x2="3481.362" y2="3574.924"/>
	<line class="st20" x1="5521.155" y1="2962.492" x2="5628.845" y2="2829.508"/>
	<line class="st20" x1="4234.568" y1="914.864" x2="4348.932" y2="773.636"/>
	<line class="st20" x1="5889.721" y1="1740.603" x2="6071.279" y2="1516.397"/>
	<line class="st20" x1="5895.383" y1="2212.498" x2="6039.117" y2="2035.002"/>
	<line class="st20" x1="5066.968" y1="2516.826" x2="5252.532" y2="2287.674"/>
	<line class="st20" x1="6089.228" y1="3649.458" x2="6214.272" y2="3495.042"/>
	<line class="st20" x1="6976.105" y1="1104.95" x2="7163.895" y2="873.05"/>
	<line class="st20" x1="6204.35" y1="960.967" x2="6266.65" y2="884.033"/>
	<line class="st20" x1="3028.556" y1="2252.455" x2="3207.444" y2="2031.545"/>
	<line class="st20" x1="6669.043" y1="1731.093" x2="6823.457" y2="1540.407"/>
	<line class="st20" x1="6087.248" y1="4219.675" x2="6180.252" y2="4104.825"/>
	<line class="st20" x1="3969.181" y1="4271.216" x2="4125.819" y2="4077.783"/>
	<line class="st20" x1="530.19" y1="4212.325" x2="670.81" y2="4038.675"/>
	<line class="st20" x1="258.365" y1="3237.582" x2="385.635" y2="3080.418"/>
	<line class="st20" x1="669.263" y1="2559.291" x2="827.237" y2="2364.209"/>
	<line class="st20" x1="656.776" y1="1793.653" x2="839.224" y2="1568.347"/>
	<line class="st20" x1="395.891" y1="371.259" x2="661.109" y2="43.741"/>
	<line class="st20" x1="2109.568" y1="1441.864" x2="2223.932" y2="1300.636"/>
	<line class="st20" x1="6212.768" y1="492.845" x2="6362.732" y2="307.655"/>
	<line class="st20" x1="4757.595" y1="1178.889" x2="4872.405" y2="1037.111"/>
	<line class="st20" x1="4283.303" y1="419.725" x2="4377.197" y2="303.775"/>
	<line class="st20" x1="6949.565" y1="409.563" x2="7112.435" y2="208.437"/>
	<line class="st20" x1="7492.521" y1="1444.622" x2="7638.479" y2="1264.378"/>
	<line class="st20" x1="7295.463" y1="2797.272" x2="7489.037" y2="2558.228"/>
	<line class="st20" x1="7301.648" y1="4163.637" x2="7465.852" y2="3960.863"/>
	<line class="st20" x1="3616.861" y1="270.028" x2="3752.139" y2="102.972"/>
	<line class="st20" x1="2116.633" y1="295.022" x2="2215.867" y2="172.478"/>
	<line class="st20" x1="3661.896" y1="2107.86" x2="3830.104" y2="1900.14"/>
		<polygon class="st21" points="5258.655,468.788 4738.713,879.989 4743.732,861.794 4803.953,1033.725 4807.534,1043.947 
			4798.879,1049.832 4641.947,1156.544 4645.931,1142.901 4705.172,1291.656 4707.836,1298.345 4702.267,1302.513 
			4567.275,1403.556 4569.657,1400.198 4462.435,1708.848 4462.503,1707.872 4482,1827 4458.591,1708.578 4458.499,1708.114 
			4458.66,1707.602 4556.343,1395.802 4556.958,1393.842 4558.726,1392.444 4690.997,1287.864 4688.092,1298.72 4624.949,1151.58 
			4621.415,1143.345 4628.933,1137.937 4782.996,1027.124 4777.922,1043.23 4713.188,872.947 4709.147,862.316 4718.208,854.753 
			5227.125,429.983 		"/>
		<polygon class="st21" points="4925.682,708.932 5015.294,853.296 5018.371,858.252 5015.827,862.801 4965.811,952.243 
			4965.061,945.636 5023.674,1019.658 5024.382,1020.55 5024.35,1021.5 5021.5,1107.5 5018.65,1021.5 5019.325,1023.342 
			4955.939,953.364 4953.388,950.547 4955.189,946.757 4999.173,854.199 4999.706,863.704 4900.731,725.589 		"/>
		<polygon class="st21" points="4734.716,899.503 4590.5,893.571 4594.828,892.472 4523.266,927.594 4521.731,928.347 
			4520.5,928.297 4379.5,922.5 4520.5,916.703 4517.734,917.406 4586.172,876.528 4587.828,875.539 4590.5,875.429 
			4734.716,869.503 		"/>
		<polygon class="st21" points="4763.116,1058.115 4851.754,1198.915 4853.767,1202.112 4852.313,1205.083 4817.654,1275.902 
			4817.565,1272.912 4857.5,1357.5 4811.436,1276.088 4810.682,1274.755 4811.346,1273.098 4840.688,1199.917 4841.246,1206.085 
			4742.465,1072.205 		"/>
		<polygon class="st21" points="4653.126,1199.888 4558.255,1204.346 4565.604,1199.125 4547.154,1236.477 4545.203,1240.425 
			4541.368,1240.737 4440.911,1248.921 4442.675,1248.172 4370.5,1302.5 4438.325,1242.828 4438.975,1242.256 4440.09,1242.079 
			4539.631,1226.263 4533.846,1230.523 4549.396,1191.875 4551.221,1187.339 4556.746,1186.654 4651.001,1174.979 		"/>
		<polygon class="st21" points="4562.767,1409.598 4588.998,1462.136 4589.454,1463.051 4589.324,1463.853 4582.855,1503.669 
			4582.602,1502.692 4603.5,1533.5 4580.399,1504.308 4580.093,1503.921 4580.145,1503.33 4583.676,1463.147 4584.002,1464.864 
			4553.99,1414.391 		"/>
		<polygon class="st21" points="4511.979,1565.461 4455.727,1587.381 4457.631,1584.5 4456.423,1623.5 4456.375,1625.036 
			4454.996,1625.358 4394.5,1639.5 4454.004,1621.642 4452.577,1623.5 4451.369,1584.5 4451.308,1582.529 4453.273,1581.619 
			4508.062,1556.26 		"/>
	<linearGradient id="SVGID_14_" gradientUnits="userSpaceOnUse" x1="2973.5" y1="756" x2="2973.5" y2="-9.094947e-13">
		<stop  offset="2.200377e-06" style="stop-color:#5C6E87"/>
		<stop  offset="1" style="stop-color:#5F687A"/>
	</linearGradient>
	<polygon class="st22" points="5459,492 5243,571 4773,559 4524,657 3920,756 3585,706 3195,650 2970,706 2785,660 2507,612 
		2147,636 1859,584 1424,612 757,492 376,510 0,552.73 0,0 5947,0 5668.25,376.46 	"/>
		<radialGradient id="SVGID_15_" cx="5143.8086" cy="501.0851" r="1925.0436" gradientTransform="matrix(1 0 0 1.0008 0 0)" gradientUnits="userSpaceOnUse">
		<stop  offset="0.0045" style="stop-color:#9EBFF0"/>
		<stop  offset="1" style="stop-color:#5F687A;stop-opacity:0"/>
	</radialGradient>
	<polygon class="st23" points="5459,492.394 5243,571.457 4773,559.447 4524,657.526 3920,756.605 3585,706.565 3195,650.52 
		2970,706.565 2785,660.528 2507,612.49 2147,636.509 1859,584.467 1424,612.49 757,492.394 376,510.408 0,553.172 0,0 5947,0 
		5668.25,376.761 	"/>
		<radialGradient id="SVGID_16_" cx="1370.7021" cy="669.5958" r="746.8741" gradientTransform="matrix(1 0 0 1.0008 0 0)" gradientUnits="userSpaceOnUse">
		<stop  offset="0.0045" style="stop-color:#ABC9F5"/>
		<stop  offset="1" style="stop-color:#5F687A;stop-opacity:0"/>
	</radialGradient>
	<polygon class="st24" points="5459,492.394 5243,571.457 4773,559.447 4524,657.526 3920,756.605 3585,706.565 3195,650.52 
		2970,706.565 2785,660.528 2507,612.49 2147,636.509 1859,584.467 1424,612.49 757,492.394 376,510.408 0,553.172 0,0 5947,0 
		5668.25,376.761 	"/>
	<linearGradient id="SVGID_17_" gradientUnits="userSpaceOnUse" x1="2907.1599" y1="3701.8398" x2="2907.1599" y2="1040.25">
		<stop  offset="2.456111e-06" style="stop-color:#8BA2B0"/>
		<stop  offset="1" style="stop-color:#99AAC4"/>
	</linearGradient>
	<polygon class="st25" points="3439,2111.98 3376.39,2424.11 3515.64,2321.5 3220.39,3111.59 3186.11,3691.82 3185.52,3701.84 
		2708.35,3632.23 2526.72,3605.73 2526.71,3605.73 2151.53,3551 2177.26,3492.85 2614.91,2503.57 2622.71,2510.65 2742,2241 
		2959,2131 3238,1727 3431,1653 3627,1071 3651.72,1049.76 3662.79,1040.25 3575.23,1864.56 	"/>
	<linearGradient id="SVGID_18_" gradientUnits="userSpaceOnUse" x1="4465.0898" y1="4851.5654" x2="4465.0898" y2="1010">
		<stop  offset="2.269638e-06" style="stop-color:#5E8391"/>
		<stop  offset="1" style="stop-color:#95A5C2"/>
	</linearGradient>
	<polygon class="st26" points="5754,3642 3722,3770 3186.11,3691.82 3176.18,3690.37 3210.5,3109.5 3494.5,2349.5 3361.5,2447.5 
		3429.5,2108.5 3565.5,1861.5 3651.72,1049.76 3662.79,1040.25 3698,1010 4507,1999 4617,2462 4923,2542 5243.95,2966.84 
		5250.69,2975.77 5618.12,3462.13 5624.83,3471.02 	"/>
		<path class="st27" d="M4697.09,2483.972c-6.787-1.399-13.581-2.772-20.354-4.226l-20.333-4.306
			c-6.777-1.437-13.559-2.856-20.32-4.356l-20.297-4.443l-2.613-0.572l-0.84-2.96c-10.84-38.186-21.135-76.501-31.618-114.772
			l-3.914-14.355l-3.815-14.379l-7.63-28.758l-15.261-57.516l-3.814-14.379l-3.738-14.397l-7.475-28.795
			c-5.011-19.19-9.919-38.405-14.824-57.62c-9.887-38.412-19.494-76.891-29.188-115.349l3.26,6.588
			c-60.639-72.452-120.815-145.282-180.693-218.356c-59.754-73.175-119.235-146.574-178.244-220.359l-44.139-55.434l-43.969-55.574
			c-29.259-37.093-58.387-74.293-87.289-111.679l-43.412-56.03l-43.049-56.326c-28.625-37.611-57.071-75.37-85.085-113.482
			l1.548-1.266l89.976,109.481l89.899,109.544l179.622,219.232l179.62,219.234l179.273,219.517l0.259,0.317l0.094,0.396
			l54.815,231.544l27.387,115.777l27.232,115.813l-0.858-0.878l80.294,21.19L4697.09,2483.972z"/>
		<linearGradient id="SVGID_19_" gradientUnits="userSpaceOnUse" x1="3840" y1="4251" x2="3840" y2="2754.5">
			<stop  offset="1.385225e-07" style="stop-color:#263E42"/>
			<stop  offset="0.3776" style="stop-color:#344C54"/>
			<stop  offset="1" style="stop-color:#50687B"/>
		</linearGradient>
		<path class="st28" d="M7648.28,2913.22c-26.25-36.4-45.91-83.46-58-142.79c-1.07-5.21-2.07-10.52-3.021-15.93
			c-12.75,72.83-36.229,128.26-68.81,168.95c-9.75-25.71-17.53-54.61-23.19-86.95c-8.35,47.71-21.31,87.95-38.42,121.48
			c-13.54-22.17-24.98-47.72-34.14-76.97c-0.01-0.02-0.01-0.03-0.02-0.05c-5.27-16.82-9.79-34.85-13.52-54.15c0-0.01,0-0.01,0-0.02
			c-0.66-3.38-1.29-6.82-1.9-10.29c-0.09,0.52-0.18,1.05-0.28,1.57c-10.94,61.56-29.6,110.62-54.97,148.8
			c-13.35-30.1-23.7-65.06-30.75-105.37c-5.93,33.85-14.17,63.94-24.57,90.54c-16.13-32.73-28.41-71.68-36.43-117.54
			c-8.94,51.07-23.16,93.58-42.09,128.46c-15.87-32.5-27.98-71.1-35.91-116.46c-6.27,35.79-15.13,67.38-26.38,95.09
			c-13.29-30.04-23.59-64.91-30.62-105.09c-9.979,56.99-26.52,103.33-48.86,140.29c-5.63-18.62-10.36-38.68-14.14-60.29
			c-8.92,50.99-23.11,93.44-41.99,128.28c-28.04-39.42-48.45-91.18-60.01-157.28c-14.45,82.57-42.69,142.79-82.36,184.5h30.1
			c-6.9,10.46-14.33,20.19-22.22,29.24c-22.17-36.87-38.6-83.03-48.521-139.74c-3.8,21.68-8.55,41.81-14.21,60.48
			c-13.37-30.13-23.73-65.13-30.79-105.48c-13.41,76.64-38.71,134.01-74,175.21c-15.35-31.4-27.19-68.49-35.14-111.88
			c-0.29-1.58-0.58-3.18-0.86-4.78c-7.77,44.38-19.52,82.29-34.89,114.36c-15.98-32.6-28.16-71.35-36.13-116.91
			c-13.88,79.35-40.51,138.05-77.78,179.53c-19.5-35.26-34.11-78.44-43.22-130.53c-10.74,61.38-29.11,110.4-54.12,148.65
			c-21.84-36.68-38.05-82.49-47.88-138.65c-11.66,66.66-32.32,118.74-60.72,158.29c-11.68-28.24-20.85-60.54-27.28-97.29
			c-7.16,40.95-17.72,76.39-31.39,106.81c-22.49-37.04-39.15-83.55-49.17-140.81c-11.61,66.32-32.12,118.21-60.29,157.68
			c-22.77-37.19-39.61-83.97-49.71-141.68c-9.84,56.22-26.08,102.07-47.95,138.78c-13.02-29.74-23.12-64.19-30.05-103.78
			c-9.06,51.77-23.54,94.74-42.86,129.89c-28.62-39.62-49.42-91.9-61.14-158.89c-14.45,82.57-42.69,142.79-82.36,184.5h30.1
			c-6.03,9.15-12.46,17.73-19.25,25.79c-21.14-36.28-36.88-81.33-46.49-136.29c-5.83,33.32-13.91,63-24.08,89.29
			c-5.27-9.9-10.17-20.4-14.67-31.53c-11.2-27.62-20.01-59.1-26.25-94.76c-9.26,52.92-24.2,96.65-44.17,132.22
			c-24.86-38.2-43.13-87.07-53.83-148.22c-14.45,82.57-42.69,142.79-82.36,184.5h30.1c-10.73,16.27-22.69,30.79-35.81,43.68
			c-14.41-31.16-25.5-67.71-32.93-110.18c-5.78,33.07-13.79,62.55-23.86,88.69c-2.75,7.17-5.67,14.08-8.73,20.75
			c-14.34-22.83-26.4-49.36-35.97-79.92v-0.01c-6.21-19.79-11.37-41.26-15.44-64.51c-2.1,12-4.49,23.52-7.17,34.59
			c-10.28,42.55-24.77,78.29-43.05,107.9c-21.79-36.66-37.97-82.41-47.78-138.49c-8.18,46.72-20.77,86.28-37.34,119.38
			c-12.73,25.41-27.79,47.01-45.02,65.12h30.1c-10.41,15.79-21.98,29.91-34.65,42.52c-21.95-36.75-38.23-82.68-48.09-139.02
			c-8.23,47.01-20.93,86.77-37.66,120c-25.13-38.31-43.57-87.44-54.34-149c-11.2,63.99-30.68,114.55-57.35,153.48
			c-25.29-38.38-43.84-87.66-54.65-149.48c-14.45,82.57-42.69,142.79-82.36,184.5h30.1c-6.12,9.28-12.64,17.99-19.55,26.16
			c-18.98-34.92-33.24-77.49-42.19-128.66c-7.5,42.85-18.72,79.67-33.32,111.01c-22.25-36.91-38.74-83.16-48.68-140.01
			c-9.12,52.1-23.73,95.29-43.23,130.56c-24.33-37.95-42.23-86.29-52.77-146.56c-14.45,82.57-42.69,142.79-82.36,184.5h30.1
			c-7.79,11.82-16.23,22.72-25.3,32.75c-22.63-37.12-39.38-83.76-49.44-141.25c-7.71,44.06-19.35,81.75-34.55,113.67
			c-25.7-38.55-44.52-88.21-55.45-150.67c-14.45,82.57-42.69,142.79-82.36,184.5h30.1c-8.11,12.31-16.94,23.61-26.44,33.97
			c-20.04-35.62-35.02-79.42-44.3-132.47c-7.1,40.55-17.53,75.7-31,105.93c-24.44-38-42.42-86.47-53-146.93
			c-8.94,51.06-23.15,93.57-42.08,128.44c-10.56-26.82-18.93-57.2-24.92-91.44c-5.94,33.95-14.22,64.11-24.65,90.76
			c-28.21-39.48-48.74-91.4-60.35-157.76c-14.45,82.57-42.69,142.79-82.36,184.5h30.1c-6.35,9.64-13.14,18.66-20.34,27.09
			c-29.27-39.82-50.51-92.63-62.4-160.59c-9.68,55.34-25.57,100.62-46.93,137.04c-38.47-41.61-65.91-101.07-80.07-182.04
			c-14.45,82.57-42.69,142.79-82.36,184.5h30.1c-7.18,10.9-14.94,20.99-23.2,30.36c-32.97-40.78-56.7-96.49-69.54-169.86
			c-12.88,73.61-36.73,129.44-69.86,170.25c-13.55-13.15-25.86-28.03-36.88-44.75h30.1c-39.67-41.71-67.91-101.93-82.36-184.5
			c-14.45,82.57-42.69,142.79-82.36,184.5h30.1c-12.51,18.98-26.69,35.6-42.46,50h34.62c-11.37,15-23.96,28.5-37.68,40.62
			c-34.36-41.04-59.04-97.77-72.22-173.12c-8.28,47.29-21.08,87.23-37.96,120.58c-36.35-41.36-62.37-99.47-76.04-177.58
			c-14.45,82.57-42.69,142.79-82.36,184.5h30.1c-9.56,14.49-20.09,27.6-31.55,39.41c-6.68-7.96-13-16.41-18.93-25.41h30.1
			c-10.49-11.03-20.18-23.36-29.03-37.05c-24.61-38.07-42.7-86.72-53.33-147.45c-12.87,73.57-36.71,129.38-69.81,170.18
			c-14.35-13.62-27.36-29.13-38.93-46.68h30.1c-39.67-41.71-67.91-101.93-82.36-184.5c-10.89,62.22-29.61,111.75-55.16,150.23
			c-33.12-40.8-56.96-96.63-69.84-170.23c-14.45,82.57-42.69,142.79-82.36,184.5h30.1c-12.51,18.98-26.69,35.6-42.46,50h34.62
			c-8.18,10.79-17.01,20.8-26.41,30.09c-12.11-12.24-23.22-25.9-33.23-41.09h30.1c-10.44-10.98-20.09-23.24-28.9-36.85
			c-24.68-38.1-42.81-86.81-53.46-147.65c-9.01,51.48-23.38,94.26-42.53,129.3c-10.36-26.54-18.57-56.55-24.47-90.3
			c-5.08,29.02-11.87,55.26-20.25,78.93c-35.16-41.18-60.37-98.47-73.75-174.93c-11.34,64.79-31.17,115.81-58.35,154.93
			c-29.39-39.86-50.73-92.77-62.65-160.93c-5.41,30.93-12.76,58.73-21.92,83.59c-24.99-38.25-43.35-87.24-54.08-148.59
			c-11.94,68.25-33.32,121.22-62.78,161.1c-3.18-5.57-6.23-11.34-9.16-17.32c-15.95-32.56-28.1-71.27-36.06-116.78
			c-7.35,41.99-18.27,78.18-32.44,109.12c-21.68-36.6-37.78-82.24-47.56-138.12c-7.24,41.35-17.93,77.09-31.79,107.71
			c-8.55-9.6-16.55-19.98-23.95-31.21h30.1c-39.67-41.71-67.91-101.93-82.36-184.5c-10.77,61.56-29.22,110.69-54.34,149
			c-33.41-38.68-57.94-91.74-71.99-161.77c0,0,0,0,0-0.01c-0.94-4.66-1.83-9.4-2.67-14.22c-1.68,9.6-3.55,18.9-5.6,27.9v0.01
			c-7.11,31.23-16.42,58.88-27.78,83.24c-4.08-5.69-8-11.64-11.74-17.85c-22.36-36.96-38.91-83.3-48.88-140.3
			c-9.66,55.22-25.5,100.43-46.8,136.81c-10.51-19.64-19.54-41.68-27-66.27c-5.65-18.67-10.4-38.83-14.2-60.54
			c-6.95,39.72-17.1,74.25-30.17,104.05c-14.21-13.54-27.1-28.94-38.57-46.34h30.1c-39.67-41.71-67.91-101.93-82.36-184.5
			c-12.4,70.89-34.98,125.28-66.22,165.66c-14.56-31.32-25.76-68.09-33.24-110.87c-3.63,20.74-8.14,40.07-13.48,58.06v0.01
			c-7.35,24.81-16.3,47.05-26.73,66.88c-7.64-8.83-14.84-18.29-21.53-28.45h30.09c-39.67-41.71-67.91-101.93-82.35-184.5
			c-14.18,81.03-41.65,140.52-80.17,182.14c-31.56-40.45-54.35-95.11-66.83-166.46c-7.33,41.85-18.2,77.96-32.3,108.82
			c-27.03-39.06-46.75-89.95-58.05-154.5c-14.44,82.57-42.69,142.79-82.36,184.5h30.1c-7.67,11.64-15.98,22.39-24.9,32.29
			c-38.34-41.59-65.7-100.98-79.84-181.79c-6.79,38.82-16.63,72.7-29.28,102.03c-17.75-34.03-31.16-75.1-39.72-124.03
			c-7.93,45.34-20.03,83.93-35.89,116.42c-28.08-39.44-48.53-91.24-60.11-157.42c-10.53,60.18-28.39,108.48-52.67,146.4
			c-11.7-28.26-20.89-60.6-27.33-97.4c-10.1,57.75-26.96,104.55-49.75,141.75c-24.06-37.82-41.78-85.91-52.25-145.75
			c-4.48,25.65-10.31,49.13-17.38,70.58c-18.7-34.71-32.76-76.94-41.62-127.58c-13.54,77.38-39.19,135.14-75.02,176.42
			c-20.88-36.14-36.44-80.9-45.98-135.42c-11.77,67.27-32.7,119.7-61.5,159.38c-28.8-39.68-49.73-92.11-61.5-159.38
			c-6.58,37.61-16.03,70.57-28.11,99.27c-26.95-39.03-46.62-89.85-57.89-154.27c-13.34,76.25-38.45,133.42-73.46,174.58
			c-18.16-34.33-31.85-75.91-40.54-125.58c-8.86,50.64-22.92,92.86-41.61,127.58c-29.26-39.82-50.5-92.63-62.39-160.58
			c-6.17,35.26-14.85,66.44-25.87,93.85v1225.32L2827,4251l95.74-9.53l725.3-72.18l734.04-73.06l1.61-0.16l77.64-7.73l69.61-6.92
			l88.2-8.78l23.44-2.33l108.73-10.83l57.72-5.74l31.92-3.18l102.19-10.17l16.31-1.62l119.65-11.91l4.71-0.47l100.53-10l19.81-1.98
			L6193,3916l1392.19-102.53l94.81-6.98v-947.27C7670.79,2879.42,7660.18,2897.37,7648.28,2913.22z M7535,2939
			c-2.02,3.06-4.1,6.04-6.21,8.99c-1.38-2.95-2.73-5.94-4.05-8.99H7535z M6740,3101c-3.05,4.62-6.2,9.09-9.44,13.43
			c-2.6-4.34-5.12-8.83-7.56-13.43H6740z M6558.98,3157c-3.87,5.87-7.92,11.49-12.11,16.92c-3.67-5.42-7.21-11.05-10.6-16.92
			H6558.98z M5586.58,3336c-4.86,6.4-9.95,12.52-15.24,18.39c-3.39-5.9-6.63-12.03-9.73-18.39H5586.58z M5283.58,3423
			c-3.86,5.09-7.87,10-12.01,14.76c-3.5-4.73-6.89-9.65-10.16-14.76H5283.58z M4075.79,3578c-3.78,4.94-7.69,9.72-11.73,14.34
			c-3.49-4.62-6.86-9.4-10.12-14.34H4075.79z M3953.3,3533c-4,6.67-8.19,13.03-12.56,19.1c-4.8-6.08-9.41-12.44-13.8-19.1H3953.3z
			 M3814.58,3583c-4.88,6.43-9.99,12.57-15.31,18.47c-4.84-5.88-9.48-12.03-13.93-18.47H3814.58z M3785.27,3578
			c-0.67,0.65-1.36,1.27-2.03,1.91c-0.43-0.64-0.87-1.26-1.3-1.91H3785.27z M3655.44,3569c-2.65,3.09-5.36,6.09-8.12,9h30.1
			c-5.52,8.38-11.39,16.27-17.56,23.74c-10.42-10.02-20.13-20.92-29.08-32.74H3655.44z M3483.04,3621c-0.63-0.66-1.24-1.33-1.86-2
			h20.38c-8.91,10.23-18.5,19.75-28.68,28.63c-7.06-8.3-13.71-17.17-19.94-26.63H3483.04z M3359.11,3564
			c-2.91,5.4-5.92,10.61-9.05,15.65c-3.83-5.04-7.55-10.24-11.12-15.65H3359.11z M3226.58,3614c-2.09,2.76-4.24,5.45-6.41,8.11
			c-2.69-2.63-5.31-5.34-7.9-8.11H3226.58z M3215.25,3628c-4.04,4.68-8.22,9.19-12.52,13.55c-3.77-4.37-7.42-8.89-10.95-13.55
			H3215.25z M3059.14,3567c-3.2,3.8-6.46,7.47-9.82,11h30.1c-5.51,8.35-11.35,16.22-17.5,23.66c-11.2-10.55-21.6-22.07-31.14-34.66
			H3059.14z M2776.56,3597c-5.51,6.33-11.29,12.37-17.3,18.17c-5.78-5.77-11.34-11.83-16.67-18.17H2776.56z M2749.76,3586
			c-3.11,2.8-6.31,5.5-9.54,8.16c-2.18-2.68-4.34-5.39-6.44-8.16H2749.76z M2582.9,3479c-2.1,5.47-4.3,10.8-6.58,15.98
			c-3.93-5.14-7.73-10.45-11.38-15.98H2582.9z M1959.52,3271c-2.8,3.92-5.67,7.73-8.62,11.41c-2.72-3.71-5.38-7.5-7.96-11.41
			H1959.52z M1676.89,3157.21c-3.42,7.56-7.03,14.8-10.82,21.74c-6.4-6.88-12.51-14.11-18.29-21.74H1676.89z M1535.42,3107.21
			c-0.8,1.21-1.63,2.39-2.44,3.58c-0.67-1.19-1.34-2.37-2.01-3.58H1535.42z M1435.49,3124c-0.18,0.27-0.36,0.55-0.53,0.82
			c-0.21-0.28-0.43-0.54-0.64-0.82H1435.49z M1309.57,3089.68c-4.71-4.96-9.26-10.19-13.65-15.68h26.03
			c-8.55,12.98-17.91,24.83-28,35.65c-5.05-6.34-9.88-12.99-14.47-19.97H1309.57z M1076.77,3094c-5.38,7.1-11.03,13.87-16.95,20.32
			c-5.95-6.41-11.64-13.17-17.06-20.32H1076.77z M1057.22,3079c-4.75,5.12-9.64,10.02-14.71,14.67c-3.58-4.73-7.04-9.61-10.38-14.67
			H1057.22z M521.61,3004c-2.97,4.51-6.04,8.87-9.2,13.12c-2.99-4.23-5.89-8.6-8.7-13.12H521.61z M191.61,2990
			c-2.71,4.11-5.51,8.09-8.38,11.98c-2.51-3.89-4.96-7.87-7.33-11.98H191.61z"/>
		<linearGradient id="SVGID_20_" gradientUnits="userSpaceOnUse" x1="5290.1797" y1="4320" x2="5290.1797" y2="3407.5">
			<stop  offset="2.221688e-06" style="stop-color:#2D474E"/>
			<stop  offset="0.3776" style="stop-color:#3A5560"/>
			<stop  offset="1" style="stop-color:#567387"/>
		</linearGradient>
		<path class="st29" d="M7651.63,3636.35c-18.5-34.58-32.43-76.56-41.23-126.85c-5.84,33.41-13.95,63.16-24.16,89.5
			c0,0.01,0,0.01,0,0.01c-6.01,15.51-12.75,29.83-20.18,43.03c-9.5-25.36-17.1-53.79-22.66-85.54
			c-7.23,41.35-17.92,77.09-31.78,107.71c-24.04-37.82-41.75-85.9-52.22-145.71c-7.43,42.49-18.53,79.05-32.95,110.23
			c-19.41-35.21-33.96-78.29-43.05-130.23c-12.74,72.84-36.22,128.27-68.81,168.96c-15.51-32.19-27.37-70.3-35.19-114.96
			c-6.51,37.22-15.83,69.89-27.74,98.38c-20.01-35.6-34.98-79.38-44.26-132.38c-11.37,65.02-31.31,116.18-58.64,155.36
			c-17.08-33.51-30.02-73.7-38.36-121.36c-7.18,41.06-17.78,76.59-31.5,107.07c-13.71-30.48-24.31-66.01-31.5-107.07
			c-2.86,16.36-6.27,31.83-10.2,46.46c-8.63-24.06-15.61-50.81-20.8-80.46c-13.98,79.93-40.89,138.91-78.58,180.44
			c-17.6-33.92-30.9-74.8-39.42-123.44c-11,62.91-30.02,112.82-56,151.48c-25.97-38.66-44.99-88.57-56-151.48
			c-8.77,50.16-22.65,92.05-41.07,126.58c-28.51-39.58-49.23-91.76-60.93-158.58c-14.44,82.57-42.68,142.79-82.36,184.5h30.1
			c-5.37,8.16-11.08,15.86-17.07,23.15c-30.44-40.16-52.47-93.94-64.67-163.65c-4.87,27.88-11.33,53.2-19.26,76.14
			c-16.77-33.26-29.5-73.06-37.74-120.14c-6.95,39.74-17.1,74.28-30.18,104.09c-14.84-31.58-26.229-68.75-33.82-112.09
			c-8.5,48.6-21.78,89.44-39.36,123.34c-7.19-21.66-13.1-45.39-17.64-71.34c-5.73,32.78-13.65,62.02-23.58,87.99
			c-12.23-28.87-21.78-62.06-28.42-99.99c-8.63,49.34-22.19,90.69-40.17,124.89c-11.08-11.54-21.29-24.31-30.56-38.39h30.09
			c-39.67-41.71-67.91-101.93-82.36-184.5c-11.57,66.18-32.02,117.98-60.1,157.42c-15.86-32.49-27.96-71.08-35.9-116.42
			c-9.9,56.6-26.28,102.69-48.39,139.52c-28.86-39.69-49.82-92.17-61.61-159.52c-8.91,50.97-23.09,93.41-41.97,128.25
			c-35.3-41.2-60.61-98.59-74.03-175.25c-12.76,72.96-36.3,128.46-68.98,169.17c-19.4-35.2-33.93-78.26-43.02-130.17
			c-7.93,45.35-20.03,83.93-35.9,116.42v0.01c-1.84,3.78-3.73,7.48-5.68,11.09c-6.51-12.99-12.41-26.97-17.67-42v-0.01
			c-8.16-23.28-14.77-49.07-19.75-77.51c-2.45,14-5.3,27.35-8.53,40.08c-1.65,6.5-3.4,12.84-5.25,19.02
			c-10.54-18.47-19.71-39.17-27.4-62.24c-3.82-11.44-7.27-23.46-10.35-36.08c-2.8-11.43-5.29-23.35-7.47-35.78
			c-2.3,13.15-4.95,25.72-7.95,37.75c-0.08,0.35-0.16,0.71-0.26,1.06c-9.72,38.77-23.01,71.79-39.52,99.59
			c-1.91-8.54-3.68-17.33-5.27-26.4c-3.19,18.26-7.07,35.43-11.59,51.55c-4.84,6.4-9.91,12.45-15.18,18.17
			c-20.49-32.22-36.38-71.89-47.1-119.92c-1.87-8.34-3.58-16.94-5.13-25.8c-1.68,9.59-3.54,18.88-5.59,27.87
			c-8.21,36.09-19.37,67.42-33.22,94.39c-18.4-21.71-34.06-47.86-46.7-78.91c-11.31-27.76-20.2-59.45-26.49-95.35
			c-4.83,27.61-11.2,52.73-19.04,75.49c-15.57,45.29-36.91,81.25-63.32,109.01h30.1c-12.51,18.98-26.69,35.6-42.45,50h34.61
			c-7.81,10.3-16.19,19.91-25.11,28.84c-1.23,1.22-2.46,2.44-3.71,3.64c-0.65-1.09-1.3-2.19-1.93-3.29
			c-20.97-36.18-36.58-81.04-46.15-135.69c-9.43,53.94-24.76,98.33-45.31,134.27c-33.56-40.9-57.7-97.05-70.69-171.27
			c-12.05,68.91-33.73,122.25-63.63,162.26c-18.07-34.27-31.7-75.74-40.37-125.26c-7.91,45.26-19.99,83.79-35.8,116.25
			c-26.59-38.9-46.02-89.39-57.2-153.25c-8.16,46.67-20.74,86.19-37.29,119.27c-28.39-39.54-49.04-91.62-60.71-158.27
			c-14.44,82.57-42.68,142.79-82.36,184.5h30.1c-11,16.7-23.31,31.57-36.84,44.71c-23.88-37.74-41.48-85.66-51.9-145.21
			c-8.26,47.24-21.05,87.16-37.91,120.49c-31.17-40.36-53.7-94.7-66.09-165.49c-5.93,33.94-14.21,64.1-24.64,90.75
			c-21.58-36.53-37.61-82.05-47.36-137.75c-14.44,82.57-42.68,142.79-82.36,184.5h30.1c-6.1,9.25-12.6,17.94-19.48,26.09
			c-21.53-36.51-37.52-81.98-47.26-137.59c-9.87,56.45-26.2,102.45-48.22,139.23c-16.79-33.28-29.53-73.11-37.78-120.23
			c-10.78,61.62-29.24,110.79-54.41,149.11c-6.71-20.78-12.271-43.44-16.59-68.11c-7.82,44.7-19.68,82.85-35.22,115.06
			c-5.14,10.67-10.69,20.69-16.63,30.08c-5.65-8.78-10.97-18.12-15.91-28.03c-16.53-33.04-29.09-72.51-37.24-119.11
			c-7.51,42.96-18.77,79.86-33.42,111.26c-24.23-37.9-42.06-86.15-52.58-146.26c-12.44,71.12-35.12,125.66-66.52,166.07
			c-5.05,6.51-10.33,12.65-15.83,18.43h30.09c-10.3,15.64-21.76,29.65-34.29,42.16c-12.75-16.65-24.04-35.66-33.78-57.2
			c-13.8-30.56-24.46-66.22-31.67-107.46c-7.54,43.1-18.84,80.11-33.56,111.57c-7.22,15.45-15.28,29.56-24.12,42.41
			c-7.1-12.22-13.59-25.42-19.44-39.67c-11.5-27.99-20.52-59.99-26.88-96.31c-6.62,37.83-16.13,70.97-28.32,99.79
			c-14.4,34.08-32.54,62.11-54.03,84.71h30.09c-5.37,8.15-11.07,15.84-17.05,23.13c-26.67-28.99-48.01-66.6-63.28-114.06
			c-6.64-20.63-12.13-43.12-16.41-67.57c-3.96,22.65-8.96,43.63-14.96,63c-11.5,37.16-26.64,68.42-45.09,94.34
			c-15.86-29.78-28.33-65.03-37.08-106.33c-1.39-6.52-2.68-13.19-3.87-20.01c-1.13,6.44-2.33,12.74-3.63,18.91
			c-7.87,37.57-18.83,70.16-32.6,98.2c-19.38-29.79-34.75-66.08-45.64-109.61c-3.07-12.26-5.78-25.08-8.13-38.5
			c-2.2,12.58-4.72,24.65-7.56,36.21c-15.75,64.29-41.17,112.94-74.79,148.29h30.09c-12.51,18.98-26.69,35.6-42.45,50h34.61
			c-9.7,12.8-20.29,24.53-31.72,35.22c-2.49,2.35-5.03,4.64-7.61,6.87c-0.71,0.63-1.43,1.25-2.15,1.86
			c-17.6-33.92-30.9-74.8-39.42-123.45c-8.24,47.14-20.99,86.98-37.79,120.25c-2.25,4.45-4.56,8.78-6.95,12.99
			c-10.96-11.83-21.03-25.11-30.15-39.92c-22.98-37.28-39.95-84.28-50.11-142.32c-10.75,61.47-29.15,110.56-54.23,148.84
			c-8.6,13.14-17.99,25-28.12,35.66h30.09c-12.51,18.98-26.69,35.6-42.45,50h34.61c-7.9,10.42-16.4,20.11-25.44,29.13
			c-26.72-38.95-46.24-89.56-57.46-153.63c-14.44,82.57-42.68,142.79-82.35,184.5h30.09c-12.51,18.98-26.69,35.6-42.45,50h34.61
			c-2.4,3.17-4.85,6.27-7.37,9.3c-5.2,6.31-10.64,12.34-16.31,18.09L2936,4185l-1,9l10.63,29.47c-7.32,6.33-14.94,12.33-22.89,18
			c-1.19,0.85-2.39,1.69-3.6,2.53h33.89l3.05,8.47c-16.79,15.49-35.4,29.31-55.72,41.53H2953c-10.63,9.22-21.96,17.89-33.96,26H7680
			v-782.26C7673.32,3575.11,7663.79,3607.85,7651.63,3636.35z M6964.14,3703c-4.24,6.44-8.7,12.59-13.33,18.5
			c-3.77-5.91-7.38-12.08-10.83-18.5H6964.14z M6273.79,3712c-2.29,3.93-4.65,7.75-7.07,11.48c-3.15-3.73-6.229-7.54-9.21-11.48
			H6273.79z M5935.51,3686h1.59c-0.25,0.36-0.49,0.73-0.74,1.09C5936.08,3686.72,5935.79,3686.37,5935.51,3686z M5944.2,3636
			c-2.52,4.28-5.11,8.45-7.79,12.49c-2.99-4.05-5.92-8.2-8.74-12.49H5944.2z M5823.14,3636c-1.28,1.94-2.59,3.84-3.9,5.74
			c-1.271-1.89-2.521-3.8-3.75-5.74H5823.14z M5554.37,3608c-0.77,2.3-1.55,4.56-2.35,6.81c-1.56-2.23-3.09-4.5-4.6-6.81H5554.37z
			 M5449.08,3592c-2.29,4.08-4.65,8.06-7.08,11.92c-2.85-3.87-5.64-7.83-8.33-11.92H5449.08z M4644.03,3683
			c-0.53,0.88-1.061,1.73-1.6,2.6c-0.58-0.87-1.18-1.72-1.76-2.6H4644.03z M4747.74,3694h25.56c-2.67,3.52-5.4,6.94-8.21,10.29
			c-1.77,2.12-3.57,4.2-5.39,6.26c-1.45-1.85-2.89-3.74-4.3-5.65C4752.78,3701.37,4750.23,3697.73,4747.74,3694z M3989.3,3822
			c-3.1,4.1-6.31,8.06-9.59,11.94c-3.64-3.82-7.17-7.8-10.61-11.94H3989.3z M3979.65,3834c-5.38,6.36-11.02,12.43-16.88,18.21
			c-4.55-5.82-8.93-11.87-13.1-18.21H3979.65z M3721.73,3878c-4.54,5.38-9.26,10.5-14.13,15.4c-3.77-4.95-7.42-10.07-10.93-15.4
			H3721.73z M3384.29,3978c-4.92,5.64-10.06,11.07-15.37,16.3c-0.86,0.85-1.73,1.69-2.6,2.53c-3.92-6.01-7.69-12.28-11.27-18.83
			H3384.29z M3266.38,3984c-3.97,6.86-8.13,13.41-12.48,19.66c-4.96-6.25-9.71-12.8-14.23-19.66H3266.38z M3118.29,4084
			c-0.08,0.1-0.17,0.19-0.26,0.28c-0.08-0.09-0.15-0.19-0.24-0.28H3118.29z M3100.59,4094l-2.85,1.58
			c-0.36-0.53-0.72-1.05-1.07-1.58H3100.59z"/>
		<linearGradient id="SVGID_21_" gradientUnits="userSpaceOnUse" x1="2828.5701" y1="4320" x2="2828.5701" y2="3549">
			<stop  offset="0" style="stop-color:#36535B"/>
			<stop  offset="0.3776" style="stop-color:#44616D"/>
			<stop  offset="1" style="stop-color:#607D94"/>
		</linearGradient>
		<path class="st30" d="M5603.35,4215.85c-6.39-20.16-11.69-42.08-15.85-65.85c-4.11,23.48-9.33,45.15-15.62,65.1
			c-8.84,28.06-19.77,52.72-32.66,74.23c-18.54-20.91-34.42-46.15-47.37-76.13c-12.68-29.38-22.54-63.3-29.35-102.2
			c-6.7,38.28-16.36,71.76-28.76,100.81c-11.84,27.78-26.18,51.51-42.81,71.54c-5.3-6.61-10.36-13.55-15.17-20.85h30.1
			c-14.25-14.98-27.01-32.34-38.2-52.26c-19.97-35.57-34.9-79.31-44.16-132.24c-8.41,48.07-21.51,88.56-38.8,122.24
			c-13.96-13.4-26.64-28.6-37.94-45.74h30.1c-32.18-33.83-56.84-79.84-72.71-140.09c-3.7-14.02-6.92-28.82-9.65-44.41
			c-2.85,16.33-6.25,31.78-10.16,46.39c-13.99,52.15-34.62,93.54-61.05,125.52c-17.23-31.9-30.54-70.18-39.48-115.52
			c-0.81-4.07-1.58-8.2-2.31-12.39c-0.76,4.35-1.56,8.64-2.4,12.86c-11.89,60.04-31.45,107.65-57.66,144.49
			c-27.25-33.52-48.23-77.21-61.99-132.58c-3-12.03-5.65-24.62-7.95-37.77c-2.4,13.75-5.19,26.87-8.36,39.39
			c-11.56,45.86-28.1,83.64-49.09,114.24c-22.06-27.64-39.93-62.05-53.1-104.07c-6.21-19.8-11.38-41.29-15.45-64.56
			c-4.29,24.52-9.8,47.06-16.47,67.74c-9.26,28.76-20.75,53.9-34.32,75.69c-7.8-8.97-15.13-18.58-21.95-28.93h30.1
			c-11.5-12.09-22.03-25.73-31.55-41.02c-23.33-37.46-40.55-84.84-50.81-143.48c-11.27,64.45-30.96,115.27-57.92,154.31
			c-4.49,6.49-9.17,12.66-14.05,18.51c-3.25-5.2-6.38-10.59-9.39-16.18c-18.71-34.72-32.78-76.96-41.64-127.64
			c-9.63,55.02-25.38,100.12-46.56,136.42c-10.6,18.18-22.56,34.16-35.8,48.08h30.1c-5.8,8.8-11.98,17.08-18.49,24.88
			c-17.42-18.34-32.62-40.24-45.42-66.04c-16.33-32.89-28.74-72.11-36.83-118.34c-8.74,49.92-22.51,91.65-40.81,126.07
			c-0.21,0.41-0.43,0.82-0.65,1.23c-0.33-0.36-0.65-0.71-0.96-1.07c-9.08-10.02-17.53-20.91-25.32-32.73h30.1
			c-39.67-41.71-67.91-101.93-82.36-184.5c-14.45,82.57-42.69,142.79-82.36,184.5h30.1c-8.86,13.44-18.57,25.67-29.08,36.8
			c-29.91-40.02-51.6-93.36-63.66-162.3c-7.75,44.32-19.49,82.19-34.83,114.23c-39.04-41.66-66.87-101.49-81.17-183.23
			c-14.45,82.57-42.69,142.79-82.36,184.5h30.1c-5.25,7.97-10.81,15.49-16.65,22.64c-39-41.66-66.8-101.46-81.09-183.14
			c-14.45,82.57-42.69,142.79-82.36,184.5h30.1c-8.6,13.05-18.02,24.96-28.17,35.83c-26.26-38.78-45.48-88.97-56.57-152.33
			c-9.55,54.6-25.14,99.42-46.07,135.58c-28.51-39.58-49.24-91.76-60.93-158.58c-9.75,55.7-25.78,101.22-47.35,137.75
			c-32.5-40.67-55.93-96.04-68.65-168.75c-11.4,65.15-31.39,116.38-58.81,155.59c-14.05-30.82-24.89-66.84-32.19-108.59
			c-8.62,49.27-22.16,90.58-40.1,124.75c-13.56-24.26-24.79-52.3-33.48-84.45c-1.44-5.32-2.81-10.75-4.11-16.3
			c-1.13-4.84-2.21-9.76-3.23-14.78c-1.09-5.3-2.12-10.71-3.08-16.22c-1.38,7.9-2.89,15.6-4.53,23.09
			c-7.15,32.82-16.69,61.78-28.44,87.17c-20.45-23.87-37.55-53.17-50.92-88.51c-9.72-25.65-17.47-54.49-23.11-86.75
			c-3.75,21.43-8.43,41.34-13.99,59.82c-13.53,44.93-32.3,81.36-55.73,110.26c-20.27-28-36.62-62.34-48.61-103.74
			c-4.99-17.21-9.22-35.64-12.67-55.34c-6.84,39.1-16.78,73.17-29.55,102.66c-29.29-39.83-50.55-92.66-62.45-160.66
			c-14.45,82.57-42.69,142.79-82.36,184.5h30.1c-12.51,18.98-26.69,35.6-42.45,50h34.61c-6.38,8.42-13.16,16.34-20.29,23.84
			c-37.17-41.46-63.75-100.11-77.61-179.34c-12.18,69.63-34.18,123.37-64.56,163.52c-9.38-9.28-18.18-19.26-26.34-30.02h34.61
			c-15.76-14.4-29.94-31.02-42.45-50h30.1c-39.67-41.71-67.91-101.93-82.36-184.5c-14.45,82.57-42.69,142.79-82.36,184.5h30.1
			c-12.51,18.98-26.69,35.6-42.45,50h34.61c-12.77,16.85-27.06,31.82-42.78,45.05c-24-37.79-41.67-85.82-52.12-145.55
			c-9.75,55.7-25.78,101.22-47.35,137.76c-12.96-12.79-24.78-27.17-35.39-43.26h30.1c-39.67-41.71-67.91-101.93-82.36-184.5
			c-14.45,82.57-42.69,142.79-82.36,184.5h30.1c-8.09,12.27-16.89,23.54-26.35,33.88c-38.63-41.62-66.18-101.19-80.39-182.38
			c-11.14,63.69-30.5,114.07-56.97,152.92c-6.99-8.24-13.59-17.04-19.77-26.42h30.1c-39.67-41.71-67.91-101.93-82.36-184.5
			c-14.45,82.57-42.69,142.79-82.36,184.5h30.1c-5.65,8.57-11.66,16.64-17.98,24.26c-22.79-37.2-39.66-84.01-49.76-141.76
			c-5.55,31.72-13.14,60.13-22.63,85.47c-12.06-12.21-23.13-25.83-33.11-40.97h30.1c-39.67-41.71-67.91-101.93-82.36-184.5
			c-14.45,82.57-42.69,142.79-82.36,184.5h30.1c-12.51,18.98-26.69,35.6-42.45,50h34.61c-9.03,11.91-18.82,22.89-29.34,32.98
			c-18.67-34.69-32.71-76.88-41.56-127.48c-7.91,45.18-19.95,83.66-35.73,116.08c-15.58-14.3-29.62-30.78-42.01-49.58h30.1
			c-39.67-41.71-67.91-101.93-82.36-184.5c-14.45,82.57-42.69,142.79-82.36,184.5h30.1c-4.49,6.8-9.19,13.29-14.11,19.5
			c-13.66-12.09-26.2-25.55-37.53-40.5h34.61c-15.76-14.4-29.94-31.02-42.45-50h30.1c-39.67-41.71-67.91-101.93-82.36-184.5
			c-14.45,82.57-42.69,142.79-82.36,184.5h30.1c-11.21,17-23.76,32.09-37.58,45.41c-28.63-39.62-49.44-91.91-61.16-158.91
			c-7.83,44.73-19.71,82.88-35.25,115.1c-35.68-41.26-61.24-98.91-74.75-176.1c-11.07,63.25-30.24,113.38-56.43,152.12
			c-21.69-36.6-37.79-82.23-47.57-138.12c-10.49,59.96-28.26,108.12-52.4,145.98c-6.08-7.39-11.88-15.2-17.34-23.48h30.1
			c-39.67-41.71-67.91-101.93-82.36-184.5c-14.45,82.57-42.69,142.79-82.36,184.5h30.1c-12.51,18.98-26.69,35.6-42.45,50h34.61
			c-12.19,16.08-25.78,30.46-40.67,43.24c-8.56-9.62-16.56-20-23.97-31.24h30.1c-39.67-41.71-67.91-101.93-82.36-184.5
			c-12.26,70.08-34.47,124.06-65.16,164.29c-8.41-9.49-16.29-19.73-23.58-30.79h30.1c-39.67-41.71-67.91-101.93-82.36-184.5
			c-9.55,54.6-25.14,99.42-46.08,135.59c-12.61-11.46-24.24-24.13-34.82-38.09h34.61c-15.76-14.4-29.94-31.02-42.45-50h30.1
			c-39.67-41.71-67.91-101.93-82.36-184.5c-14.45,82.57-42.69,142.79-82.36,184.5h30.1c-11.08,16.81-23.48,31.76-37.12,44.97
			c-19.2-35.07-33.6-77.91-42.62-129.47c-4.21,24.05-9.6,46.2-16.09,66.55c-31.6-40.46-54.42-95.14-66.91-166.55
			c-14.45,82.57-42.69,142.79-82.36,184.5h30.1c-9.37,14.22-19.69,27.12-30.9,38.75c-15.35-32.04-27.08-69.92-34.84-114.25
			c-6.27,35.81-15.13,67.41-26.39,95.13c-28.34-39.53-48.96-91.56-60.61-158.13c-11.47,65.55-31.64,117-59.31,156.3
			C36.2,3720.85,14.87,3681.25,0,3631.19V4320h5657.14C5634.81,4292.42,5616.71,4257.98,5603.35,4215.85z M4506.65,4154.5
			c-5.36,6.41-10.94,12.48-16.77,18.23c-4.55-5.83-8.94-11.88-13.12-18.23H4506.65z M4124.06,4053.5
			c-3.77,7.78-7.75,15.2-11.94,22.29c-5.73-7.04-11.19-14.45-16.36-22.29H4124.06z M3973.47,4077.5
			c-4.95,5.98-10.11,11.68-15.46,17.09c-4.24-5.47-8.34-11.15-12.25-17.09H3973.47z M2943.09,4098.5
			c-3.98,3.98-8.07,7.83-12.27,11.54c-2.75-3.75-5.45-7.58-8.06-11.54H2943.09z M2818.24,4098.5c-3.93,5.97-8.05,11.68-12.31,17.18
			c-5.69-5.5-11.17-11.21-16.41-17.18H2818.24z M2789.07,4097.5c-0.08,0.08-0.15,0.17-0.23,0.25c-0.07-0.09-0.15-0.17-0.22-0.25
			H2789.07z M2650.38,4097.5c-5.51,6.33-11.29,12.37-17.3,18.17c-4.6-5.76-9.01-11.81-13.24-18.17H2650.38z M2513.05,4091.5
			c-3.41,5.43-6.96,10.65-10.64,15.67c-4.42-5.04-8.7-10.25-12.81-15.67H2513.05z M2348.91,4077.5c-4.56,4.87-9.26,9.56-14.12,14
			h34.61c-5.82,7.68-11.98,14.96-18.42,21.88c-10.18-10.88-19.6-22.81-28.22-35.88H2348.91z M1995.36,3996.5
			c-2.4,5.93-4.91,11.69-7.52,17.27c-4.93-5.53-9.69-11.27-14.24-17.27H1995.36z M1746.57,4018.5c-4.16,8.52-8.57,16.62-13.24,24.31
			c-7.29-7.64-14.22-15.72-20.73-24.31H1746.57z M1578.23,3997.5c-3.35,3.85-6.78,7.58-10.31,11.18c-3.51-3.64-6.97-7.35-10.3-11.18
			H1578.23z M1428.4,3947.5c-4.21,5.55-8.6,10.87-13.13,16.02c-4.56-5.08-8.98-10.41-13.22-16.02H1428.4z M1410.81,3968.5
			c-3.98,4.31-8.08,8.47-12.3,12.49c-3-4.05-5.92-8.2-8.75-12.49H1410.81z M1298.05,3907.5c-2.59,4.99-5.27,9.82-8.05,14.5
			c-3.52-4.67-6.94-9.5-10.24-14.5H1298.05z M772.24,3921.5c-0.26,0.39-0.52,0.76-0.78,1.14l-1.47-1.14H772.24z M482.4,3783.5
			c-4.8,6.34-9.84,12.39-15.07,18.21c-3.95-5.81-7.75-11.88-11.38-18.21H482.4z M388.24,3733.5c-1,2.67-2.02,5.31-3.05,7.92
			c-1.84-2.6-3.66-5.23-5.43-7.92H388.24z M267.4,3783.5c-3.32,4.38-6.75,8.61-10.26,12.74c-2.45-4.13-4.83-8.38-7.14-12.74H267.4z
			 M70.24,3779.5c-2.24,3.4-4.55,6.69-6.89,9.94c-2.89-3.22-5.71-6.54-8.47-9.94H70.24z M58.69,3757.5
			c-3.44,4.59-6.98,9-10.64,13.24c-3.19-4.28-6.29-8.69-9.29-13.24H58.69z M49.11,3807.5c-0.44,0.51-0.89,1.01-1.33,1.51
			c-0.39-0.51-0.79-1-1.18-1.51H49.11z M4506.94,4192.47c-0.88-0.92-1.76-1.85-2.62-2.79c-3.06-3.29-6.05-6.69-8.97-10.18h22.05
			c-2.67,3.52-5.41,6.95-8.21,10.3C4508.45,4190.7,4507.7,4191.59,4506.94,4192.47z M5270.98,4224.18
			c-4.84-5.31-9.51-10.83-13.98-16.58c-0.81-1.02-1.61-2.06-2.4-3.1h27.86c-0.66,1.23-1.32,2.45-1.99,3.66
			C5277.43,4213.69,5274.26,4219.03,5270.98,4224.18z M5525.28,4310.36c-3.63-4.79-7.14-9.73-10.521-14.86h20.66
			C5532.15,4300.64,5528.77,4305.59,5525.28,4310.36z"/>
	<linearGradient id="SVGID_22_" gradientUnits="userSpaceOnUse" x1="4461.3501" y1="414.5" x2="4461.3501" y2="0">
		<stop  offset="1.667598e-06" style="stop-color:#586A82"/>
		<stop  offset="1" style="stop-color:#5B6375"/>
	</linearGradient>
	<polygon class="st31" points="7680,0 7680,257.53 7528.5,361.5 7149.5,414.5 6675.5,400.5 6412.5,308.5 5772.5,391.5 
		5668.25,376.46 5377.5,334.5 5055.5,271.5 4530.5,300.5 4184.5,391.5 3391.5,414.5 2818.5,296.5 2533.5,356.5 1649.5,325.5 
		1323,162 1242.7,0 	"/>
		<radialGradient id="SVGID_23_" cx="5159.1274" cy="456.1489" r="1497.5579" gradientTransform="matrix(1 0 0 1.0008 0 0)" gradientUnits="userSpaceOnUse">
		<stop  offset="0" style="stop-color:#9EBFF0"/>
		<stop  offset="1" style="stop-color:#5B6375;stop-opacity:0"/>
	</radialGradient>
	<polygon class="st32" points="7680,0 7680,257.736 7528.5,361.789 7149.5,414.832 6675.5,400.82 6412.5,308.747 5772.5,391.813 
		5668.25,376.761 5377.5,334.768 5055.5,271.717 4530.5,300.74 4184.5,391.813 3391.5,414.832 2818.5,296.737 2533.5,356.785 
		1649.5,325.76 1323,162.13 1242.7,0 	"/>
		<radialGradient id="SVGID_24_" cx="1387.5532" cy="602.1915" r="718.1659" gradientTransform="matrix(1 0 0 1.0008 0 0)" gradientUnits="userSpaceOnUse">
		<stop  offset="0" style="stop-color:#ABC9F5"/>
		<stop  offset="1" style="stop-color:#5B6375;stop-opacity:0"/>
	</radialGradient>
	<polygon class="st33" points="7680,0 7680,257.736 7528.5,361.789 7149.5,414.832 6675.5,400.82 6412.5,308.747 5772.5,391.813 
		5668.25,376.761 5377.5,334.768 5055.5,271.717 4530.5,300.74 4184.5,391.813 3391.5,414.832 2818.5,296.737 2533.5,356.785 
		1649.5,325.76 1323,162.13 1242.7,0 	"/>
	<line class="st34" x1="2999.058" y1="1660.708" x2="3218.442" y2="1389.792"/>
	<line class="st34" x1="3043.728" y1="2911.411" x2="3257.772" y2="2647.089"/>
	<line class="st34" x1="1997.096" y1="3356.841" x2="2200.904" y2="3105.159"/>
	<line class="st34" x1="988.309" y1="3522.137" x2="1341.191" y2="3086.363"/>
	<line class="st34" x1="520.689" y1="3422.977" x2="798.811" y2="3079.523"/>
	<line class="st34" x1="633.211" y1="2963.447" x2="919.789" y2="2609.553"/>
	<line class="st34" x1="1505.113" y1="2878.758" x2="1725.387" y2="2606.742"/>
	<line class="st34" x1="2464.428" y1="3055.439" x2="2625.072" y2="2857.061"/>
	<line class="st34" x1="2752.043" y1="3605.093" x2="2906.457" y2="3414.407"/>
	<line class="st34" x1="2526.893" y1="4015.559" x2="2743.607" y2="3747.941"/>
	<line class="st34" x1="3850.198" y1="3417.133" x2="4023.302" y2="3203.367"/>
	<line class="st34" x1="3699.529" y1="3143.335" x2="4055.971" y2="2703.165"/>
	<line class="st34" x1="4128.036" y1="2468.19" x2="4427.964" y2="2097.81"/>
	<line class="st34" x1="4958.518" y1="1897.321" x2="5152.982" y2="1657.179"/>
	<line class="st34" x1="4290.903" y1="1692.668" x2="4491.597" y2="1444.832"/>
	<line class="st34" x1="3352.903" y1="2083.668" x2="3553.597" y2="1835.832"/>
	<line class="st34" x1="3658.903" y1="2363.668" x2="3859.597" y2="2115.832"/>
	<line class="st34" x1="2887.903" y1="2493.668" x2="3088.597" y2="2245.832"/>
	<line class="st34" x1="3863.903" y1="1847.668" x2="4064.597" y2="1599.832"/>
	<line class="st34" x1="3717.896" y1="1447.765" x2="4064.104" y2="1020.235"/>
	<line class="st34" x1="2834.588" y1="1023.986" x2="3094.912" y2="702.514"/>
	<line class="st34" x1="2257.983" y1="1063.441" x2="2508.517" y2="754.059"/>
	<line class="st34" x1="1721.438" y1="831.548" x2="1866.062" y2="652.952"/>
	<line class="st34" x1="960.5" y1="780.5" x2="1218.5" y2="460.5"/>
	<line class="st34" x1="1089.5" y1="259.5" x2="1282.5" y2="20.5"/>
	<line class="st34" x1="1587.548" y1="504.647" x2="1733.952" y2="323.853"/>
	<line class="st34" x1="2844.928" y1="510.392" x2="3094.572" y2="202.108"/>
	<line class="st34" x1="2397.928" y1="356.392" x2="2600.5" y2="105.5"/>
	<line class="st34" x1="3446.171" y1="596.108" x2="3618.829" y2="382.892"/>
	<line class="st34" x1="3854.856" y1="755.426" x2="4087.144" y2="468.574"/>
	<line class="st34" x1="4464.856" y1="374.426" x2="4697.144" y2="87.574"/>
	<line class="st34" x1="4990.006" y1="1103.959" x2="5159.994" y2="894.041"/>
	<line class="st34" x1="5304.471" y1="1246.079" x2="5530.529" y2="966.921"/>
	<line class="st34" x1="5600.553" y1="1538.154" x2="5827.947" y2="1257.346"/>
	<line class="st34" x1="3363.553" y1="325.154" x2="3590.947" y2="44.346"/>
	<line class="st34" x1="5280.326" y1="2765.148" x2="5471.674" y2="2528.852"/>
	<line class="st34" x1="4656.188" y1="3356.024" x2="4845.312" y2="3122.476"/>
	<line class="st34" x1="4760.951" y1="3788.91" x2="4930.049" y2="3580.09"/>
	<line class="st34" x1="5056.891" y1="4045.259" x2="5322.109" y2="3717.741"/>
	<line class="st34" x1="4068.891" y1="4148.258" x2="4334.109" y2="3820.741"/>
	<line class="st34" x1="5767.333" y1="4042.956" x2="5991.167" y2="3766.544"/>
	<line class="st34" x1="6466.781" y1="3350.159" x2="6730.219" y2="3024.841"/>
	<line class="st34" x1="5909.781" y1="2707.159" x2="6173.219" y2="2381.841"/>
	<line class="st34" x1="6494.164" y1="2974.205" x2="6812.336" y2="2581.295"/>
	<line class="st34" x1="6314.601" y1="2709.396" x2="6510.399" y2="2467.604"/>
	<line class="st34" x1="6425.948" y1="2232.609" x2="6643.552" y2="1963.891"/>
	<line class="st34" x1="6569.638" y1="792.529" x2="6749.862" y2="569.971"/>
	<line class="st34" x1="4786.673" y1="658.361" x2="4999.827" y2="395.139"/>
	<line class="st34" x1="5029.077" y1="765.529" x2="5442.923" y2="254.471"/>
	<line class="st34" x1="5719.076" y1="1179.624" x2="5954.924" y2="888.376"/>
	<line class="st34" x1="6291.156" y1="1444.398" x2="6576.844" y2="1091.602"/>
	<line class="st34" x1="7014.221" y1="1941.556" x2="7284.779" y2="1607.444"/>
	<line class="st34" x1="6978.993" y1="2536.55" x2="7213.507" y2="2246.95"/>
	<line class="st34" x1="7108.628" y1="3115.42" x2="7304.872" y2="2873.08"/>
	<line class="st34" x1="7294.628" y1="3551.42" x2="7490.872" y2="3309.08"/>
	<line class="st34" x1="6561.801" y1="3906.376" x2="6793.199" y2="3620.624"/>
	<line class="st34" x1="7033.801" y1="4179.376" x2="7265.199" y2="3893.624"/>
	<line class="st34" x1="5671.306" y1="3370.931" x2="5894.694" y2="3095.069"/>
	<line class="st34" x1="3406.034" y1="4214.889" x2="3754.466" y2="3784.611"/>
	<line class="st34" x1="2971.241" y1="4265.773" x2="3209.759" y2="3971.227"/>
	<line class="st34" x1="2527.553" y1="4263.154" x2="2754.947" y2="3982.346"/>
	<line class="st34" x1="1617.221" y1="3983.556" x2="1887.779" y2="3649.444"/>
	<line class="st34" x1="1409.384" y1="3652.403" x2="1731.116" y2="3255.097"/>
	<line class="st34" x1="810.656" y1="4261.445" x2="1007.344" y2="4018.555"/>
	<line class="st34" x1="211.824" y1="1495.8" x2="540.676" y2="1089.7"/>
	<line class="st34" x1="265.406" y1="659.921" x2="506.594" y2="362.079"/>
	<line class="st34" x1="588.346" y1="700.27" x2="925.654" y2="283.73"/>
	<line class="st34" x1="1180.176" y1="1120.615" x2="1433.824" y2="807.385"/>
	<line class="st34" x1="1516.197" y1="1419.737" x2="1915.803" y2="926.263"/>
	<line class="st34" x1="1324.811" y1="2424.39" x2="1718.189" y2="1938.61"/>
	<line class="st34" x1="1252.763" y1="2112.243" x2="1499.737" y2="1807.257"/>
	<line class="st34" x1="1767.791" y1="2296.268" x2="2015.209" y2="1990.732"/>
	<line class="st34" x1="7168.586" y1="663.685" x2="7477.414" y2="282.315"/>
	<line class="st34" x1="6914.5" y1="388.5" x2="7103.5" y2="155.5"/>
</svg>
