<?xml-stylesheet type="text/css" href="/css/style.css"?>
<svg xmlns="http://www.w3.org/2000/svg" viewBox="0 0 2000 2000">
	<path class="svgStroke" d="M632.6,601.4L436.9,940.3l-22.9,39.6l-272.3,471.6c-73-138.6-111.5-294-111.5-451.8
		c0-139.1,28.7-273.1,85.3-398.3H632.6z"/>
	<path class="svgStroke" d="M1161.1,482.6H179.6c157.9-248.5,431-418,723.1-447.5L1161.1,482.6z"/>
	<path class="svgStroke" d="M1786.5,433.4l-258.4,447.5L1332.5,542l-22.9-39.6L1037.5,31C1334.8,42.6,1611.9,191.1,1786.5,433.4z"/>
	<path class="svgStroke" d="M1969.1,999.7c0,139.1-28.7,273.1-85.3,398.3h-517l195.7-338.9l22.9-39.6l272.3-471.6
		C1930.6,686.5,1969.1,841.9,1969.1,999.7z"/>
	<path class="svgStroke" d="M1819.7,1516.7c-157.9,248.5-431,418-723.1,447.5l-258.4-447.5H1819.7z"/>
	<path class="svgStroke" d="M961.9,1968.3c-297.3-11.6-574.5-160.1-749.1-402.3l258.4-447.6l195.7,338.9l22.9,39.6L961.9,1968.3z"/>
	<polygon class="svgStroke" points="1459.6,999.7 1229.6,1398 769.7,1398 539.7,999.7 769.7,601.4 1229.6,601.4 	"/>
</svg>
