<?xml version="1.0" encoding="utf-8"?>
<svg xmlns="http://www.w3.org/2000/svg" viewBox="0 0 7680 4320">
<style type="text/css">
	.st0{fill:url(#SVGID_1_);}
	.st1{opacity:0.15;fill:url(#SVGID_2_);}
	.st2{opacity:0.15;fill:url(#SVGID_3_);}
	.st3{fill:url(#SVGID_4_);}
	.st4{display:none;fill:url(#SVGID_5_);}
	.st5{fill:url(#SVGID_6_);}
	.st6{fill:url(#SVGID_7_);}
	.st7{fill:#A38C79;}
	.st8{fill:url(#SVGID_8_);}
	.st9{fill:url(#SVGID_9_);}
	.st10{fill:url(#SVGID_10_);}
	.st11{fill:url(#SVGID_11_);}
	.st12{fill:url(#SVGID_12_);}
	.st13{fill:url(#SVGID_13_);}
	.st14{fill:url(#SVGID_14_);}
	.st15{fill:url(#SVGID_15_);}
	.st16{fill:url(#SVGID_16_);}
	.st17{fill:url(#SVGID_17_);}
	.st18{fill:url(#SVGID_18_);}
	.st19{fill:url(#SVGID_19_);}
	.st20{fill:url(#SVGID_20_);}
	.st21{fill:url(#SVGID_21_);}
	.st22{fill:url(#SVGID_22_);}
	.st23{opacity:0.59;fill:url(#SVGID_23_);}
	.st24{opacity:0.59;fill:url(#SVGID_24_);}
	.st25{fill:url(#SVGID_25_);}
	.st26{fill:url(#SVGID_26_);}
	.st27{fill:url(#SVGID_27_);}
	.st28{opacity:0.59;fill:url(#SVGID_28_);}
	.st29{opacity:0.59;fill:url(#SVGID_29_);}
	.st30{opacity:0.59;fill:url(#SVGID_30_);}
	.st31{fill:url(#SVGID_31_);}
	.st32{fill:url(#SVGID_32_);}
	.st33{fill:url(#SVGID_33_);}
	.st34{opacity:0.22;fill:url(#SVGID_34_);}
	.st35{opacity:0.22;fill:url(#SVGID_35_);}
</style>
	<linearGradient id="SVGID_1_" gradientUnits="userSpaceOnUse" x1="3840" y1="4320" x2="3840" y2="-9.094947e-13">
		<stop  offset="6.629821e-08" style="stop-color:#5B67F5"/>
		<stop  offset="1" style="stop-color:#FFC863"/>
	</linearGradient>
	<rect class="st0" width="7680" height="4320"/>
		<linearGradient id="SVGID_2_" gradientUnits="userSpaceOnUse" x1="3840" y1="4096.5" x2="3840" y2="223.5">
			<stop  offset="1.223967e-06" style="stop-color:#FFBB3D"/>
			<stop  offset="1" style="stop-color:#FFE04D"/>
		</linearGradient>
		<circle class="st1" cx="3840" cy="2160" r="1936.5"/>
		<linearGradient id="SVGID_3_" gradientUnits="userSpaceOnUse" x1="3840" y1="3773.75" x2="3840" y2="546.25">
			<stop  offset="1.223967e-06" style="stop-color:#FFBB3D"/>
			<stop  offset="1" style="stop-color:#FFE04D"/>
		</linearGradient>
		<circle class="st2" cx="3840" cy="2160" r="1613.75"/>
		<linearGradient id="SVGID_4_" gradientUnits="userSpaceOnUse" x1="3840" y1="3451" x2="3840" y2="869">
			<stop  offset="1.223967e-06" style="stop-color:#FFBB3D"/>
			<stop  offset="1" style="stop-color:#FFE04D"/>
		</linearGradient>
		<circle class="st3" cx="3840" cy="2160" r="1291"/>
	<linearGradient id="SVGID_5_" gradientUnits="userSpaceOnUse" x1="3745.5" y1="4263" x2="3745.5" y2="1831">
		<stop  offset="1.631956e-07" style="stop-color:#6A56CC"/>
		<stop  offset="0.454" style="stop-color:#A59ADE"/>
		<stop  offset="0.819" style="stop-color:#CFCAEA"/>
		<stop  offset="1" style="stop-color:#DFDCEF"/>
	</linearGradient>
	<polygon class="st4" points="-72,2378 279,1962 553,2256 1374,2346 1766,1984 2130,2362 2412,2078 2867,2415 4471,2462 4902,2008 
		5098,2205 5500,1831 5980,2107 6372,2096 6583,1902 6983,2178 7592,2417 7583,4263 -101,4080 	"/>
	<linearGradient id="SVGID_6_" gradientUnits="userSpaceOnUse" x1="3796" y1="4263" x2="3796" y2="1831">
		<stop  offset="2.131743e-06" style="stop-color:#1B2042"/>
		<stop  offset="1" style="stop-color:#485070"/>
	</linearGradient>
	<path class="st5" d="M7592,2417l-1.72,353.43l-1.61,330.21l-2.43,498.36c0,0.01,0,0.01,0,0.01l-1.05,214.46L7583,4263
		l-1979.65-47.15l-31.47-0.75l-80.03-1.9l-58.11-1.39l-66.08-1.57l-87.19-2.08l-23.47-0.56l-747.81-17.8l-4.87-0.12l-856.28-20.39
		l-671.11-15.99L0,4082.41V2292.67L279,1962l239.07,256.52L553,2256l522.09,57.23l64.65,7.09l26.93,2.95L1374,2346l75.25-69.5
		L1766,1984l364,378l282-284l302.87,224.32L2867,2415l498.09,14.59l19.92,0.59l78.48,2.3L4471,2462l116.78-123.01L4902,2008l196,197
		l402-374l375,215.62l105,60.38l83.86-2.35L6372,2096l36.21-33.29L6583,1902l304.26,209.94L6983,2178l199.91,78.45l37.52,14.73
		l55.41,21.74L7592,2417z"/>
		<linearGradient id="SVGID_7_" gradientUnits="userSpaceOnUse" x1="4023.3655" y1="2472.1267" x2="4023.3655" y2="1818.6538">
			<stop  offset="5.114678e-07" style="stop-color:#E0CAAA"/>
			<stop  offset="1" style="stop-color:#B8C5DB"/>
		</linearGradient>
		<polygon class="st6" points="1573.607,2160.303 1765.204,1983.138 1766.047,1982.358 1766.845,1983.186 2131.086,2360.954 
			2128.93,2360.938 2410.865,2076.873 2411.84,2075.891 2412.952,2076.715 2868.029,2413.611 2867.051,2413.272 4471.056,2460.096 
			4469.619,2460.689 4900.722,2006.787 4901.971,2005.472 4903.249,2006.757 5099.204,2203.802 5096.843,2203.756 
			5498.928,1829.848 5499.779,1829.057 5500.785,1829.636 5980.672,2105.831 5979.962,2105.652 6371.969,2094.91 6371.262,2095.198 
			6471.77,2002.911 6473.124,2004.384 6373.973,2098.146 6373.209,2098.868 6372.082,2098.914 6274.116,2102.898 6176.148,2106.775 
			6078.18,2110.648 5980.206,2114.325 5978.209,2114.4 5976.347,2113.353 5855.694,2045.489 5735.087,1977.544 5494.058,1841.335 
			5508.121,1839.729 5408.272,1933.929 5308.325,2028.024 5108.28,2216.049 5097.69,2226.002 5087.302,2215.644 4890.514,2019.428 
			4913.751,2019.156 4698.917,2246.788 4483.832,2474.182 4478.412,2479.912 4470.482,2479.686 4069.473,2468.233 3668.48,2456.246 
			3267.501,2443.709 3067.018,2437.281 2866.542,2430.642 2861.567,2430.477 2857.686,2427.575 2630.962,2258.028 
			2404.427,2088.225 2421.029,2086.966 2136.918,2368.869 2129.782,2375.95 2122.978,2368.762 2077.88,2321.125 2032.831,2273.44 
			1942.734,2178.071 1852.686,2082.654 1762.779,1987.102 1769.034,1987.285 1720.593,2030.99 1672.073,2074.61 1574.964,2161.772 
					"/>
		<polygon class="st7" points="1935.71,3049.96 1761.2,3338.72 1661.89,3326.38 1590.56,3317.51 1585.76,3306.84 1268.4,2601.09 
			1115.97,2564.75 1042.82,2204.61 1156.57,2323.45 1080.54,1847.41 1092.1,1856.4 1282,2004 1840.07,2913.25 1845.85,2903.55 		"/>
		<linearGradient id="SVGID_8_" gradientUnits="userSpaceOnUse" x1="798.69" y1="3328" x2="798.69" y2="1833">
			<stop  offset="5.099863e-07" style="stop-color:#29305A"/>
			<stop  offset="1" style="stop-color:#606489"/>
		</linearGradient>
		<polygon class="st8" points="1597.38,3308.28 1585.76,3306.84 0,3109.69 0,2838.01 404,2237 518.07,2218.52 657,2196 813,1874 
			1062,1833 1080.54,1847.41 1092.1,1856.4 1166.67,2323.27 1171.5,2353.5 1139.74,2320.32 1059.5,2236.5 1075.09,2313.23 
			1124.5,2556.5 1275.5,2592.5 1474.74,3035.56 1474.74,3035.57 		"/>
		<linearGradient id="SVGID_9_" gradientUnits="userSpaceOnUse" x1="1353.2854" y1="3137.729" x2="1353.2854" y2="1822.423">
			<stop  offset="5.114678e-07" style="stop-color:#E0CAAA"/>
			<stop  offset="1" style="stop-color:#B8C5DB"/>
		</linearGradient>
		<path class="st9" d="M781.172,1937.403l30.799-63.902l0.257-0.533l0.587-0.098l248.933-41.405l0.668-0.111l0.538,0.418
			l220.12,170.846l0.25,0.194l0.167,0.272l160.683,261.388l160.379,261.574l160.318,261.612l80.159,130.806l79.989,130.911
			l0.381,0.623l-0.376,0.62l-50.057,82.456l-1.712-1.034l11.553-21.195l11.625-21.152c3.872-7.052,7.742-14.106,11.674-21.122
			l11.747-21.078l0.017,5.041l-21.212-31.982l-21.039-32.088l-42.011-64.217l-41.616-64.46l-20.808-32.23l-10.404-16.115
			l-10.328-16.161c-55.145-86.157-109.792-172.62-163.928-259.396l-20.323-32.528l-20.227-32.587l-40.419-65.194
			c-26.806-43.549-53.711-87.037-80.323-130.706c-53.429-87.21-106.332-174.743-158.861-262.506l3.815,4.261l-54.471-43.431
			l-54.359-43.574l-54.225-43.748c-18.07-14.589-36.03-29.319-54.051-43.971l8.751,2.223l-62.485,8.821l-15.623,2.196l-15.637,2.108
			l-31.275,4.215l-62.555,8.399l-62.613,8.047l2.923-2.183c-5.501,10.472-11.163,20.866-16.737,31.303l-8.392,15.64l-8.467,15.604
			L781.172,1937.403z"/>
	<linearGradient id="SVGID_10_" gradientUnits="userSpaceOnUse" x1="2222" y1="3663" x2="2222" y2="2392">
		<stop  offset="5.099863e-07" style="stop-color:#29305A"/>
		<stop  offset="1" style="stop-color:#606489"/>
	</linearGradient>
	<polygon class="st10" points="2839,2707 2704,3663 1661.89,3326.38 1611.18,3310 1605,3308 1840.07,2913.25 1845.85,2903.55 
		1948,2732 2103,2703 2234,2474 2492,2392 	"/>
		<linearGradient id="SVGID_11_" gradientUnits="userSpaceOnUse" x1="2499.1252" y1="2925.9902" x2="2499.1252" y2="2380.7258">
			<stop  offset="5.114678e-07" style="stop-color:#E0CAAA"/>
			<stop  offset="1" style="stop-color:#B8C5DB"/>
		</linearGradient>
		<path class="st11" d="M2157.554,2605.62l75.133-132.371l0.29-0.51l0.565-0.18l257.9-82.313l1.008-0.322l0.788,0.713l86.845,78.645
			l86.677,78.83l173.31,157.709l0.626,0.57l-0.119,0.833l-15.57,108.767l-15.744,108.742l-1.98-0.28
			c0.515-9.174,1.197-18.325,1.822-27.484c0.593-9.164,1.383-18.299,2.096-27.446l2.2-27.431l2.472-27.392l2.472-27.392
			c0.804-9.134,1.811-18.238,2.707-27.359l5.532-54.701l3.988,11.037c-29.788-25.29-59.46-50.708-88.898-76.383l-22.084-19.25
			l-21.992-19.352l-21.972-19.374l-21.877-19.479c-14.57-13.002-29.171-25.97-43.635-39.089l-21.744-19.625l-10.872-9.812
			l-10.818-9.872l-43.233-39.531l-43.015-39.771l16.784,3.66l-32.399,9.781c-10.798,3.266-21.596,6.531-32.423,9.705l-32.458,9.596
			c-10.818,3.202-21.672,6.293-32.506,9.445c-21.66,6.328-43.399,12.411-65.112,18.575l-65.315,17.935l5.599-4.523l-5.052,8.069
			l-5.135,8.022l-10.284,16.036c-6.873,10.681-13.673,21.404-20.607,32.05l-20.919,31.871l-10.611,15.849l-5.315,7.919l-5.387,7.878
			L2157.554,2605.62z"/>
		<polygon class="st7" points="7495.37,3130.76 6597.54,3322.24 6595.32,3272.85 6594.87,3262.76 6692.38,3243.87 6638.19,2501.9 
			6586.72,2408.26 6594,2400.74 6599.04,2409.91 7197.76,1790.92 7208.11,1780.23 7192.16,2279.95 7268.54,2222.43 7492.95,3121.05 
					"/>
		<linearGradient id="SVGID_12_" gradientUnits="userSpaceOnUse" x1="7430.75" y1="3123.1401" x2="7430.75" y2="1770">
			<stop  offset="5.099863e-07" style="stop-color:#29305A"/>
			<stop  offset="1" style="stop-color:#606489"/>
		</linearGradient>
		<path class="st12" d="M7680,2392.86v688.3l-91.33,19.48l-95.72,20.41l-9.79,2.09l-60.46-242.13c-0.01-0.02-0.01-0.03-0.02-0.05
			l-13.52-54.15c0-0.01,0-0.01,0-0.02l-2.18-8.72l-131.14-525.15l-13.34-53.42l-42.07,31.68l-38.93,29.32l1.41-44.05l14.85-465.53
			l10.35-10.69L7218,1770l176,355l120,29L7680,2392.86z"/>
		<linearGradient id="SVGID_13_" gradientUnits="userSpaceOnUse" x1="6424.146" y1="2179.9617" x2="7287.0151" y2="2179.9617">
			<stop  offset="5.114678e-07" style="stop-color:#E0CAAA"/>
			<stop  offset="1" style="stop-color:#B8C5DB"/>
		</linearGradient>
		<path class="st13" d="M6430.764,2590.992l96.052-104.849l48.103-52.356c8.035-8.709,16.016-17.47,24.095-26.137l24.686-25.576
			l197.492-204.61l49.382-51.145l49.481-51.049l98.963-102.098l197.966-204.155l1.398-1.442l0.884,1.797l59.686,121.318
			l-1.792,0.888c-5.75-9.725-11.324-19.537-16.971-29.313c-2.833-4.883-5.612-9.794-8.374-14.712l-8.313-14.742l-8.313-14.743
			l-4.153-7.373l-4.086-7.406l-16.345-29.624l13.325,2.072l-11.793,13.316c-3.928,4.442-7.854,8.885-11.842,13.269l-23.827,26.398
			c-15.9,17.584-31.713,35.25-47.772,52.679c-31.963,35.006-64.257,69.69-96.622,104.305
			c-64.806,69.155-130.382,137.563-196.573,205.389c-66.2,67.818-133.029,135.036-200.806,201.373l-25.44,24.854
			c-8.382,8.372-16.666,16.835-25.004,25.249l-24.979,25.278c-4.171,4.206-8.309,8.443-12.508,12.623l-12.615,12.526l-25.232,25.054
			c-4.215,4.167-8.391,8.372-12.639,12.509l-12.74,12.417c-8.51,8.263-16.951,16.592-25.52,24.803
			c-8.589,8.193-17.106,16.455-25.784,24.569L6430.764,2590.992z"/>
		<polygon class="st7" points="6067.31,2187.31 5840.33,2625.24 5967.6,2556.43 5715.72,3443.23 5704.72,3445.36 5371,3510 
			5220,3038 5616,2235 5763,2220 5971,1898 6081.24,1886.57 6091.35,1885.52 		"/>
		<linearGradient id="SVGID_14_" gradientUnits="userSpaceOnUse" x1="6203.8599" y1="3509.9988" x2="6203.8599" y2="1864">
			<stop  offset="5.099863e-07" style="stop-color:#29305A"/>
			<stop  offset="1" style="stop-color:#606489"/>
		</linearGradient>
		<polygon class="st14" points="6703,3252 6605.24,3270.93 6595.32,3272.85 5715.72,3443.23 5704.72,3445.36 5951.5,2576.5 
			5816.5,2649.5 6057.5,2184.5 6081.24,1886.57 6091.35,1885.52 6299,1864 6594,2400.74 6599.04,2409.91 6648,2499 		"/>
		<linearGradient id="SVGID_15_" gradientUnits="userSpaceOnUse" x1="5787.6211" y1="3133.8799" x2="5787.6211" y2="1853.3693">
			<stop  offset="5.114678e-07" style="stop-color:#E0CAAA"/>
			<stop  offset="1" style="stop-color:#B8C5DB"/>
		</linearGradient>
		<path class="st15" d="M5248.746,3131.137l-29.883-92.774l-0.147-0.457l0.214-0.435l98.682-200.906l98.863-200.818l197.738-401.629
			l0.487-0.99l1.098-0.111l147.01-14.9l-1.397,0.856l208.219-321.859l0.425-0.658l0.777-0.08l164.011-16.889l164.03-16.714
			l0.815-0.083l0.391,0.715l56.447,103.186l-1.753,0.963c-5.119-8.371-10.22-16.751-15.27-25.16l-15.197-25.2l-15.074-25.267
			l-15.048-25.282l5.381,2.818c-27.229,3.847-54.493,7.344-81.743,10.98c-27.254,3.599-54.499,7.28-81.777,10.65l-81.811,10.327
			c-27.265,3.497-54.554,6.754-81.836,10.081l10.002-6.136c-16.818,27.166-33.834,54.204-50.757,81.303l-25.489,40.58
			l-25.543,40.545l-25.619,40.497l-25.672,40.462c-17.073,27.001-34.352,53.87-51.532,80.802l-4.499,7.053l-8.504,0.91l-36.731,3.93
			l-36.742,3.823l-73.488,7.62l14.303-9.936l-49.634,100.309l-49.952,100.152l-50.288,99.987l-50.682,99.792
			c-16.999,33.212-33.936,66.455-51.078,99.597l-12.822,24.874c-4.262,8.297-8.553,16.58-12.879,24.845l-25.875,49.633
			l-25.875,49.633l-6.471,12.407l-6.546,12.37l-13.091,24.74l-26.184,49.48c-4.343,8.257-8.767,16.474-13.184,24.695l-13.242,24.666
			l0.268-3.603l6.623,23.465c2.226,7.816,4.378,15.655,6.54,23.491l6.487,23.508l6.408,23.533L5248.746,3131.137z"/>
		<linearGradient id="SVGID_16_" gradientUnits="userSpaceOnUse" x1="4619.5635" y1="1650.1958" x2="4619.5635" y2="1599.2716" gradientTransform="matrix(0.9832 -0.1825 0.1825 0.9832 -202.5401 876.2744)">
		<stop  offset="2.663895e-07" style="stop-color:#2A2D42"/>
		<stop  offset="1" style="stop-color:#515B61"/>
	</linearGradient>
	<path class="st16" d="M4673.789,1597.797c-15.096,2.802-28.65,9.835-40.216,20.137c-14.492-5.465-29.667-7.166-44.764-4.364
		c-24.358,4.521-44.709,20.063-59.159,42.569c11.122-7.3,23.403-12.394,36.642-14.851c25.373-4.709,50.935,0.879,74.3,14.465
		c16.934-21.065,38.788-35.455,64.161-40.164c13.239-2.457,26.53-2.109,39.531,0.714
		C4722.72,1600.48,4698.147,1593.276,4673.789,1597.797z"/>
	
		<linearGradient id="SVGID_17_" gradientUnits="userSpaceOnUse" x1="4783.7461" y1="1573.2891" x2="4783.7461" y2="1522.3649" gradientTransform="matrix(0.9832 -0.1825 0.1825 0.9832 -202.5401 876.2744)">
		<stop  offset="2.663895e-07" style="stop-color:#2A2D42"/>
		<stop  offset="1" style="stop-color:#515B61"/>
	</linearGradient>
	<path class="st17" d="M4821.179,1492.221c-15.096,2.802-28.65,9.835-40.216,20.137c-14.492-5.465-29.667-7.166-44.763-4.365
		c-24.358,4.521-44.71,20.063-59.159,42.569c11.122-7.3,23.403-12.394,36.642-14.851c25.372-4.709,50.935,0.879,74.3,14.465
		c16.933-21.065,38.788-35.455,64.16-40.164c13.239-2.457,26.531-2.109,39.531,0.714
		C4870.111,1494.904,4845.538,1487.7,4821.179,1492.221z"/>
	
		<linearGradient id="SVGID_18_" gradientUnits="userSpaceOnUse" x1="4876.8506" y1="1483.5219" x2="4876.8506" y2="1432.5978" gradientTransform="matrix(0.9832 -0.1825 0.1825 0.9832 -202.5401 876.2744)">
		<stop  offset="2.663895e-07" style="stop-color:#2A2D42"/>
		<stop  offset="1" style="stop-color:#515B61"/>
	</linearGradient>
	<path class="st18" d="M4896.339,1386.971c-15.096,2.802-28.65,9.835-40.216,20.137c-14.492-5.465-29.667-7.166-44.763-4.364
		c-24.359,4.521-44.71,20.063-59.159,42.569c11.122-7.3,23.403-12.394,36.642-14.851c25.373-4.709,50.936,0.879,74.3,14.465
		c16.934-21.065,38.789-35.455,64.161-40.164c13.239-2.457,26.53-2.109,39.531,0.714
		C4945.271,1389.654,4920.698,1382.45,4896.339,1386.971z"/>
	
		<linearGradient id="SVGID_19_" gradientUnits="userSpaceOnUse" x1="4443.6968" y1="1448.9242" x2="4443.6968" y2="1398" gradientTransform="matrix(0.9832 -0.1825 0.1825 0.9832 -202.5401 876.2744)">
		<stop  offset="2.663895e-07" style="stop-color:#2A2D42"/>
		<stop  offset="1" style="stop-color:#515B61"/>
	</linearGradient>
	<path class="st19" d="M4464.146,1431.999c-15.096,2.802-28.65,9.835-40.216,20.137c-14.492-5.465-29.667-7.166-44.764-4.364
		c-24.358,4.521-44.709,20.063-59.159,42.569c11.122-7.3,23.403-12.394,36.642-14.851c25.373-4.709,50.935,0.879,74.3,14.465
		c16.933-21.065,38.788-35.455,64.161-40.164c13.239-2.457,26.53-2.109,39.531,0.714
		C4513.077,1434.682,4488.504,1427.478,4464.146,1431.999z"/>
	
		<linearGradient id="SVGID_20_" gradientUnits="userSpaceOnUse" x1="2833.7188" y1="896.4276" x2="2833.7188" y2="860.4966" gradientTransform="matrix(0.9874 0.158 -0.158 0.9874 82.1178 -118.1829)">
		<stop  offset="2.663895e-07" style="stop-color:#2A2D42"/>
		<stop  offset="1" style="stop-color:#515B61"/>
	</linearGradient>
	<path class="st20" d="M2774.34,1184.159c-10.697-1.712-21.371-0.247-31.498,3.862c-8.338-7.064-18.022-11.788-28.719-13.5
		c-17.261-2.763-34.467,2.749-49.4,14.286c9.121-2.219,18.49-2.697,27.871-1.195c17.979,2.878,33.646,12.645,45.959,27.207
		c16.243-9.992,34.176-14.381,52.155-11.504c9.381,1.502,18.133,4.88,26.106,9.834
		C2806.228,1197.528,2791.601,1186.922,2774.34,1184.159z"/>
	
		<linearGradient id="SVGID_21_" gradientUnits="userSpaceOnUse" x1="2910.7134" y1="971.3112" x2="2910.7134" y2="935.3803" gradientTransform="matrix(0.9874 0.158 -0.158 0.9874 82.1178 -118.1829)">
		<stop  offset="2.663895e-07" style="stop-color:#2A2D42"/>
		<stop  offset="1" style="stop-color:#515B61"/>
	</linearGradient>
	<path class="st21" d="M2838.533,1270.27c-10.697-1.712-21.371-0.247-31.498,3.862c-8.338-7.064-18.022-11.788-28.719-13.5
		c-17.261-2.763-34.467,2.749-49.4,14.286c9.121-2.218,18.49-2.697,27.871-1.195c17.979,2.878,33.646,12.645,45.959,27.207
		c16.243-9.992,34.176-14.381,52.155-11.504c9.381,1.501,18.133,4.88,26.106,9.834
		C2870.42,1283.639,2855.793,1273.032,2838.533,1270.27z"/>
	
		<linearGradient id="SVGID_22_" gradientUnits="userSpaceOnUse" x1="3062.3479" y1="833.0899" x2="3062.3479" y2="797.1589" gradientTransform="matrix(0.9874 0.158 -0.158 0.9874 82.1178 -118.1829)">
		<stop  offset="2.663895e-07" style="stop-color:#2A2D42"/>
		<stop  offset="1" style="stop-color:#515B61"/>
	</linearGradient>
	<path class="st22" d="M3010.106,1157.75c-10.697-1.712-21.371-0.247-31.498,3.862c-8.338-7.064-18.022-11.788-28.719-13.5
		c-17.261-2.763-34.468,2.749-49.4,14.286c9.121-2.219,18.49-2.697,27.871-1.195c17.979,2.878,33.646,12.645,45.959,27.207
		c16.243-9.992,34.176-14.381,52.155-11.504c9.381,1.501,18.133,4.88,26.106,9.834
		C3041.994,1171.119,3027.367,1160.512,3010.106,1157.75z"/>
	<linearGradient id="SVGID_23_" gradientUnits="userSpaceOnUse" x1="4491.665" y1="2077" x2="4491.665" y2="1695.2782">
		<stop  offset="0" style="stop-color:#7A79A3"/>
		<stop  offset="1" style="stop-color:#E6DCD3"/>
	</linearGradient>
	<path class="st23" d="M5537,2034.519c0,14.468-1.177,28.656-3.453,42.481H3449.959c-2.361-7.677-3.629-15.827-3.629-24.275
		c0-45.582,36.952-82.534,82.534-82.534c11.609,0,22.655,2.397,32.674,6.724c27.254-51.639,81.478-86.831,143.925-86.831
		c58.272,0,109.388,30.647,138.106,76.708c11.233-12.404,24.87-22.6,40.169-29.846c28.553-123.844,139.508-216.179,272.024-216.179
		c106.288,0,198.696,59.4,245.85,146.814c45.752-38.955,105.055-62.459,169.857-62.459c14.838,0,29.391,1.232,43.555,3.605
		c59.765-69.462,148.313-113.448,247.136-113.448c106.269,0,200.649,50.862,260.141,129.567
		c43.191-31.849,96.578-50.674,154.352-50.674C5420.438,1774.171,5537,1890.733,5537,2034.519z"/>
	<linearGradient id="SVGID_24_" gradientUnits="userSpaceOnUse" x1="2582.8298" y1="1858" x2="2582.8298" y2="1454">
		<stop  offset="0" style="stop-color:#7A79A3"/>
		<stop  offset="1" style="stop-color:#E6DCD3"/>
	</linearGradient>
	<path class="st24" d="M3788.33,1817c0,14.26-2.1,28.02-6.02,41h-2402.2c-1.83-13.4-2.78-27.09-2.78-41c0-165.69,134.31-300,300-300
		c99.41,0,187.52,48.35,242.1,122.82c41.58-36.61,96.15-58.82,155.9-58.82c24.81,0,48.73,3.83,71.19,10.93
		c66.47-84.02,169.35-137.93,284.81-137.93c139.17,0,260.04,78.31,320.96,193.27c32.9-24.66,73.76-39.27,118.04-39.27
		c41.96,0,80.85,13.12,112.8,35.47c54.65-77.7,144.99-128.47,247.2-128.47c142.08,0,261.24,98.11,293.43,230.27
		c24.65-42.04,70.32-70.27,122.57-70.27C3724.75,1675,3788.33,1738.58,3788.33,1817z"/>
	<linearGradient id="SVGID_25_" gradientUnits="userSpaceOnUse" x1="2914.395" y1="3691.8201" x2="2914.395" y2="1040.25">
		<stop  offset="3.095617e-06" style="stop-color:#937373"/>
		<stop  offset="1" style="stop-color:#9F8E8E"/>
	</linearGradient>
	<polygon class="st25" points="3439,2111.98 3376.39,2424.11 3515.64,2321.5 3220.39,3111.59 3186.11,3691.82 3176.18,3690.37 
		2166,3543 2742,2241 2959,2131 3238,1727 3431,1653 3627,1071 3651.72,1049.76 3662.79,1040.25 3575.23,1864.56 	"/>
	<linearGradient id="SVGID_26_" gradientUnits="userSpaceOnUse" x1="4465.0898" y1="4851.5654" x2="4465.0898" y2="1010">
		<stop  offset="2.333572e-06" style="stop-color:#2B3156"/>
		<stop  offset="1" style="stop-color:#535880"/>
	</linearGradient>
	<polygon class="st26" points="5754,3642 3722,3770 3186.11,3691.82 3176.18,3690.37 3210.5,3109.5 3494.5,2349.5 3361.5,2447.5 
		3429.5,2108.5 3565.5,1861.5 3651.72,1049.76 3662.79,1040.25 3698,1010 4507,1999 4617,2462 4923,2542 	"/>
		<linearGradient id="SVGID_27_" gradientUnits="userSpaceOnUse" x1="3660.2783" y1="2512.0571" x2="3660.2783" y2="995.7389">
			<stop  offset="1.704893e-07" style="stop-color:#BED8F0"/>
			<stop  offset="1" style="stop-color:#E6D1B3"/>
		</linearGradient>
		<path class="st27" d="M4697.09,2483.972l-40.414-9.575l-40.393-9.656l-1.594-0.381l-0.446-1.706
			c-10.032-38.377-19.826-76.812-29.703-115.226l-14.794-57.627l-14.648-57.662l-29.225-115.34
			c-9.795-38.434-19.363-76.922-28.987-115.397l2.067,4.179l-102.571-122.442l-51.194-61.296l-51.137-61.343
			c-68.118-81.843-136.141-163.763-204.008-245.812l-101.728-123.132l-101.566-123.264l-101.421-123.383l-101.231-123.538
			l25.606,2.251l-71,60.999l5.316-7.89l-49.124,145.458l-49.335,145.387l-24.686,72.687l-24.804,72.648l-49.666,145.276
			l-2.503,7.323l-7.083,2.668l-96.719,36.428l-96.751,36.346l6.946-5.461l-70.525,100.465l-70.682,100.356l-35.409,50.131
			l-35.462,50.094l-70.924,100.189l-1.548,2.186l-2.189,1.076l-54.585,26.838l-54.657,26.697L2745,2246.917l3.067-3.233
			c-10.145,22.118-20.458,44.161-30.678,66.245l-30.728,66.223c-10.212,22.088-20.566,44.113-30.865,66.163l-31.005,66.101
			l-1.829-0.809l117.85-267.133l0.187-0.423l0.415-0.211l216.902-110.193l-0.563,0.491l278.857-404.099l0.297-0.431l0.49-0.188
			l192.974-74.068l-1.041,1.085l195.793-582.069l0.174-0.516l0.414-0.355l71-61l1.542-1.325l1.286,1.573l808.647,989.289
			l0.223,0.273l0.081,0.341l109.571,463.102l-0.782-0.8l80.321,21.088L4697.09,2483.972z"/>
	<linearGradient id="SVGID_28_" gradientUnits="userSpaceOnUse" x1="2073.2124" y1="2962" x2="2073.2124" y2="2390">
		<stop  offset="0" style="stop-color:#7A79A3"/>
		<stop  offset="1" style="stop-color:#E6DCD3"/>
	</linearGradient>
	<path class="st28" d="M3447.425,2941.756c0,6.817-0.282,13.568-0.838,20.244H708.067c-5.904-19.839-9.067-40.854-9.067-62.614
		c0-121.16,98.224-219.384,219.384-219.384c35.535,0,69.092,8.446,98.779,23.454c69.469-127.29,204.536-213.65,359.762-213.65
		c159.444,0,297.61,91.106,365.27,224.111c65.834-54.14,150.142-86.643,242.038-86.643c33.746,0,66.474,4.387,97.631,12.617
		c94.91-150.17,262.404-249.891,453.184-249.891c238.903,0,441.283,156.365,510.365,372.341
		c42.681-38.312,99.1-61.625,160.97-61.625C3339.502,2700.716,3447.425,2808.638,3447.425,2941.756z"/>
	<linearGradient id="SVGID_29_" gradientUnits="userSpaceOnUse" x1="5104.5806" y1="2575" x2="5104.5806" y2="2160">
		<stop  offset="0" style="stop-color:#7A79A3"/>
		<stop  offset="1" style="stop-color:#E6DCD3"/>
	</linearGradient>
	<path class="st29" d="M6468.691,2503.502c0,24.519-2.564,48.432-7.461,71.498H3740.47
		c29.47-117.436,135.73-204.391,262.313-204.391c36.231,0,70.791,7.126,102.367,20.051
		c52.613-90.523,150.651-151.389,262.896-151.389c98.551,0,186.144,46.917,241.664,119.627
		c37.731-30.123,85.557-48.129,137.587-48.129c43.66,0,84.368,12.683,118.625,34.56c47.702-62.569,123.023-102.95,207.78-102.95
		c72.703,0,138.458,29.711,185.794,77.646c41.764-41.733,99.437-67.542,163.147-67.542c90.655,0,169.101,52.256,206.855,128.293
		c39.519-36.698,92.458-59.126,150.636-59.126c17.237,0,34.008,1.966,50.111,5.697C5890.232,2227.107,5999.873,2160,6125.189,2160
		C6314.9,2160,6468.691,2313.791,6468.691,2503.502z"/>
	<linearGradient id="SVGID_30_" gradientUnits="userSpaceOnUse" x1="5108" y1="3341" x2="5108" y2="2853">
		<stop  offset="0" style="stop-color:#7A79A3"/>
		<stop  offset="1" style="stop-color:#E6DCD3"/>
	</linearGradient>
	<path class="st30" d="M6589,3314c0,9.15-0.6,18.17-1.76,27H3649.49c-14.4-29.26-22.49-62.18-22.49-97c0-121.5,98.5-220,220-220
		c48.13,0,92.65,15.45,128.87,41.69c44.02-51.24,109.28-83.69,182.13-83.69c106.86,0,197.4,69.83,228.49,166.35
		c41.82-48.15,102.59-79.41,170.71-82.15C4639.07,2938,4782.61,2853,4946,2853c131.24,0,249.68,54.85,333.64,142.86
		c55.34-34.15,120.55-53.86,190.36-53.86c116.71,0,220.56,55.08,286.96,140.67c38.76-36.97,91.25-59.67,149.04-59.67
		c106,0,194.17,76.36,212.5,177.08c10.24-3.3,21.16-5.08,32.5-5.08c19.81,0,38.35,5.43,54.21,14.9
		c35.77-60.97,102-101.9,177.79-101.9C6496.77,3108,6589,3200.23,6589,3314z"/>
		<linearGradient id="SVGID_31_" gradientUnits="userSpaceOnUse" x1="3840" y1="4251" x2="3840" y2="2754.5">
			<stop  offset="2.453034e-06" style="stop-color:#1F2035"/>
			<stop  offset="0.3776" style="stop-color:#2C2E47"/>
			<stop  offset="1" style="stop-color:#474C6E"/>
		</linearGradient>
		<path class="st31" d="M7648.28,2913.22c-26.25-36.4-45.91-83.46-58-142.79c-1.07-5.21-2.07-10.52-3.021-15.93
			c-12.75,72.83-36.229,128.26-68.81,168.95c-9.75-25.71-17.53-54.61-23.19-86.95c-8.35,47.71-21.31,87.95-38.42,121.48
			c-13.54-22.17-24.98-47.72-34.14-76.97c-0.01-0.02-0.01-0.03-0.02-0.05c-5.27-16.82-9.79-34.85-13.52-54.15c0-0.01,0-0.01,0-0.02
			c-0.66-3.38-1.29-6.82-1.9-10.29c-0.09,0.52-0.18,1.05-0.28,1.57c-10.94,61.56-29.6,110.62-54.97,148.8
			c-13.35-30.1-23.7-65.06-30.75-105.37c-5.93,33.85-14.17,63.94-24.57,90.54c-16.13-32.73-28.41-71.68-36.43-117.54
			c-8.94,51.07-23.16,93.58-42.09,128.46c-15.87-32.5-27.98-71.1-35.91-116.46c-6.27,35.79-15.13,67.38-26.38,95.09
			c-13.29-30.04-23.59-64.91-30.62-105.09c-9.979,56.99-26.52,103.33-48.86,140.29c-5.63-18.62-10.36-38.68-14.14-60.29
			c-8.92,50.99-23.11,93.44-41.99,128.28c-28.04-39.42-48.45-91.18-60.01-157.28c-14.45,82.57-42.69,142.79-82.36,184.5h30.1
			c-6.9,10.46-14.33,20.19-22.22,29.24c-22.17-36.87-38.6-83.03-48.521-139.74c-3.8,21.68-8.55,41.81-14.21,60.48
			c-13.37-30.13-23.73-65.13-30.79-105.48c-13.41,76.64-38.71,134.01-74,175.21c-15.35-31.4-27.19-68.49-35.14-111.88
			c-0.29-1.58-0.58-3.18-0.86-4.78c-7.77,44.38-19.52,82.29-34.89,114.36c-15.98-32.6-28.16-71.35-36.13-116.91
			c-13.88,79.35-40.51,138.05-77.78,179.53c-19.5-35.26-34.11-78.44-43.22-130.53c-10.74,61.38-29.11,110.4-54.12,148.65
			c-21.84-36.68-38.05-82.49-47.88-138.65c-11.66,66.66-32.32,118.74-60.72,158.29c-11.68-28.24-20.85-60.54-27.28-97.29
			c-7.16,40.95-17.72,76.39-31.39,106.81c-22.49-37.04-39.15-83.55-49.17-140.81c-11.61,66.32-32.12,118.21-60.29,157.68
			c-22.77-37.19-39.61-83.97-49.71-141.68c-9.84,56.22-26.08,102.07-47.95,138.78c-13.02-29.74-23.12-64.19-30.05-103.78
			c-9.06,51.77-23.54,94.74-42.86,129.89c-28.62-39.62-49.42-91.9-61.14-158.89c-14.45,82.57-42.69,142.79-82.36,184.5h30.1
			c-6.03,9.15-12.46,17.73-19.25,25.79c-21.14-36.28-36.88-81.33-46.49-136.29c-5.83,33.32-13.91,63-24.08,89.29
			c-5.27-9.9-10.17-20.4-14.67-31.53c-11.2-27.62-20.01-59.1-26.25-94.76c-9.26,52.92-24.2,96.65-44.17,132.22
			c-24.86-38.2-43.13-87.07-53.83-148.22c-14.45,82.57-42.69,142.79-82.36,184.5h30.1c-10.73,16.27-22.69,30.79-35.81,43.68
			c-14.41-31.16-25.5-67.71-32.93-110.18c-5.78,33.07-13.79,62.55-23.86,88.69c-2.75,7.17-5.67,14.08-8.73,20.75
			c-14.34-22.83-26.4-49.36-35.97-79.92v-0.01c-6.21-19.79-11.37-41.26-15.44-64.51c-2.1,12-4.49,23.52-7.17,34.59
			c-10.28,42.55-24.77,78.29-43.05,107.9c-21.79-36.66-37.97-82.41-47.78-138.49c-8.18,46.72-20.77,86.28-37.34,119.38
			c-12.73,25.41-27.79,47.01-45.02,65.12h30.1c-10.41,15.79-21.98,29.91-34.65,42.52c-21.95-36.75-38.23-82.68-48.09-139.02
			c-8.23,47.01-20.93,86.77-37.66,120c-25.13-38.31-43.57-87.44-54.34-149c-11.2,63.99-30.68,114.55-57.35,153.48
			c-25.29-38.38-43.84-87.66-54.65-149.48c-14.45,82.57-42.69,142.79-82.36,184.5h30.1c-6.12,9.28-12.64,17.99-19.55,26.16
			c-18.98-34.92-33.24-77.49-42.19-128.66c-7.5,42.85-18.72,79.67-33.32,111.01c-22.25-36.91-38.74-83.16-48.68-140.01
			c-9.12,52.1-23.73,95.29-43.23,130.56c-24.33-37.95-42.23-86.29-52.77-146.56c-14.45,82.57-42.69,142.79-82.36,184.5h30.1
			c-7.79,11.82-16.23,22.72-25.3,32.75c-22.63-37.12-39.38-83.76-49.44-141.25c-7.71,44.06-19.35,81.75-34.55,113.67
			c-25.7-38.55-44.52-88.21-55.45-150.67c-14.45,82.57-42.69,142.79-82.36,184.5h30.1c-8.11,12.31-16.94,23.61-26.44,33.97
			c-20.04-35.62-35.02-79.42-44.3-132.47c-7.1,40.55-17.53,75.7-31,105.93c-24.44-38-42.42-86.47-53-146.93
			c-8.94,51.06-23.15,93.57-42.08,128.44c-10.56-26.82-18.93-57.2-24.92-91.44c-5.94,33.95-14.22,64.11-24.65,90.76
			c-28.21-39.48-48.74-91.4-60.35-157.76c-14.45,82.57-42.69,142.79-82.36,184.5h30.1c-6.35,9.64-13.14,18.66-20.34,27.09
			c-29.27-39.82-50.51-92.63-62.4-160.59c-9.68,55.34-25.57,100.62-46.93,137.04c-38.47-41.61-65.91-101.07-80.07-182.04
			c-14.45,82.57-42.69,142.79-82.36,184.5h30.1c-7.18,10.9-14.94,20.99-23.2,30.36c-32.97-40.78-56.7-96.49-69.54-169.86
			c-12.88,73.61-36.73,129.44-69.86,170.25c-13.55-13.15-25.86-28.03-36.88-44.75h30.1c-39.67-41.71-67.91-101.93-82.36-184.5
			c-14.45,82.57-42.69,142.79-82.36,184.5h30.1c-12.51,18.98-26.69,35.6-42.46,50h34.62c-11.37,15-23.96,28.5-37.68,40.62
			c-34.36-41.04-59.04-97.77-72.22-173.12c-8.28,47.29-21.08,87.23-37.96,120.58c-36.35-41.36-62.37-99.47-76.04-177.58
			c-14.45,82.57-42.69,142.79-82.36,184.5h30.1c-9.56,14.49-20.09,27.6-31.55,39.41c-6.68-7.96-13-16.41-18.93-25.41h30.1
			c-10.49-11.03-20.18-23.36-29.03-37.05c-24.61-38.07-42.7-86.72-53.33-147.45c-12.87,73.57-36.71,129.38-69.81,170.18
			c-14.35-13.62-27.36-29.13-38.93-46.68h30.1c-39.67-41.71-67.91-101.93-82.36-184.5c-10.89,62.22-29.61,111.75-55.16,150.23
			c-33.12-40.8-56.96-96.63-69.84-170.23c-14.45,82.57-42.69,142.79-82.36,184.5h30.1c-12.51,18.98-26.69,35.6-42.46,50h34.62
			c-8.18,10.79-17.01,20.8-26.41,30.09c-12.11-12.24-23.22-25.9-33.23-41.09h30.1c-10.44-10.98-20.09-23.24-28.9-36.85
			c-24.68-38.1-42.81-86.81-53.46-147.65c-9.01,51.48-23.38,94.26-42.53,129.3c-10.36-26.54-18.57-56.55-24.47-90.3
			c-5.08,29.02-11.87,55.26-20.25,78.93c-35.16-41.18-60.37-98.47-73.75-174.93c-11.34,64.79-31.17,115.81-58.35,154.93
			c-29.39-39.86-50.73-92.77-62.65-160.93c-5.41,30.93-12.76,58.73-21.92,83.59c-24.99-38.25-43.35-87.24-54.08-148.59
			c-11.94,68.25-33.32,121.22-62.78,161.1c-3.18-5.57-6.23-11.34-9.16-17.32c-15.95-32.56-28.1-71.27-36.06-116.78
			c-7.35,41.99-18.27,78.18-32.44,109.12c-21.68-36.6-37.78-82.24-47.56-138.12c-7.24,41.35-17.93,77.09-31.79,107.71
			c-8.55-9.6-16.55-19.98-23.95-31.21h30.1c-39.67-41.71-67.91-101.93-82.36-184.5c-10.77,61.56-29.22,110.69-54.34,149
			c-33.41-38.68-57.94-91.74-71.99-161.77c0,0,0,0,0-0.01c-0.94-4.66-1.83-9.4-2.67-14.22c-1.68,9.6-3.55,18.9-5.6,27.9v0.01
			c-7.11,31.23-16.42,58.88-27.78,83.24c-4.08-5.69-8-11.64-11.74-17.85c-22.36-36.96-38.91-83.3-48.88-140.3
			c-9.66,55.22-25.5,100.43-46.8,136.81c-10.51-19.64-19.54-41.68-27-66.27c-5.65-18.67-10.4-38.83-14.2-60.54
			c-6.95,39.72-17.1,74.25-30.17,104.05c-14.21-13.54-27.1-28.94-38.57-46.34h30.1c-39.67-41.71-67.91-101.93-82.36-184.5
			c-12.4,70.89-34.98,125.28-66.22,165.66c-14.56-31.32-25.76-68.09-33.24-110.87c-3.63,20.74-8.14,40.07-13.48,58.06v0.01
			c-7.35,24.81-16.3,47.05-26.73,66.88c-7.64-8.83-14.84-18.29-21.53-28.45h30.09c-39.67-41.71-67.91-101.93-82.35-184.5
			c-14.18,81.03-41.65,140.52-80.17,182.14c-31.56-40.45-54.35-95.11-66.83-166.46c-7.33,41.85-18.2,77.96-32.3,108.82
			c-27.03-39.06-46.75-89.95-58.05-154.5c-14.44,82.57-42.69,142.79-82.36,184.5h30.1c-7.67,11.64-15.98,22.39-24.9,32.29
			c-38.34-41.59-65.7-100.98-79.84-181.79c-6.79,38.82-16.63,72.7-29.28,102.03c-17.75-34.03-31.16-75.1-39.72-124.03
			c-7.93,45.34-20.03,83.93-35.89,116.42c-28.08-39.44-48.53-91.24-60.11-157.42c-10.53,60.18-28.39,108.48-52.67,146.4
			c-11.7-28.26-20.89-60.6-27.33-97.4c-10.1,57.75-26.96,104.55-49.75,141.75c-24.06-37.82-41.78-85.91-52.25-145.75
			c-4.48,25.65-10.31,49.13-17.38,70.58c-18.7-34.71-32.76-76.94-41.62-127.58c-13.54,77.38-39.19,135.14-75.02,176.42
			c-20.88-36.14-36.44-80.9-45.98-135.42c-11.77,67.27-32.7,119.7-61.5,159.38c-28.8-39.68-49.73-92.11-61.5-159.38
			c-6.58,37.61-16.03,70.57-28.11,99.27c-26.95-39.03-46.62-89.85-57.89-154.27c-13.34,76.25-38.45,133.42-73.46,174.58
			c-18.16-34.33-31.85-75.91-40.54-125.58c-8.86,50.64-22.92,92.86-41.61,127.58c-29.26-39.82-50.5-92.63-62.39-160.58
			c-6.17,35.26-14.85,66.44-25.87,93.85v1225.32L2827,4251l95.74-9.53l725.3-72.18l734.04-73.06l1.61-0.16l77.64-7.73l69.61-6.92
			l88.2-8.78l23.44-2.33l108.73-10.83l57.72-5.74l31.92-3.18l102.19-10.17l16.31-1.62l119.65-11.91l4.71-0.47l100.53-10l19.81-1.98
			L6193,3916l1392.19-102.53l94.81-6.98v-947.27C7670.79,2879.42,7660.18,2897.37,7648.28,2913.22z M7535,2939
			c-2.02,3.06-4.1,6.04-6.21,8.99c-1.38-2.95-2.73-5.94-4.05-8.99H7535z M6740,3101c-3.05,4.62-6.2,9.09-9.44,13.43
			c-2.6-4.34-5.12-8.83-7.56-13.43H6740z M6558.98,3157c-3.87,5.87-7.92,11.49-12.11,16.92c-3.67-5.42-7.21-11.05-10.6-16.92
			H6558.98z M5586.58,3336c-4.86,6.4-9.95,12.52-15.24,18.39c-3.39-5.9-6.63-12.03-9.73-18.39H5586.58z M5283.58,3423
			c-3.86,5.09-7.87,10-12.01,14.76c-3.5-4.73-6.89-9.65-10.16-14.76H5283.58z M4075.79,3578c-3.78,4.94-7.69,9.72-11.73,14.34
			c-3.49-4.62-6.86-9.4-10.12-14.34H4075.79z M3953.3,3533c-4,6.67-8.19,13.03-12.56,19.1c-4.8-6.08-9.41-12.44-13.8-19.1H3953.3z
			 M3814.58,3583c-4.88,6.43-9.99,12.57-15.31,18.47c-4.84-5.88-9.48-12.03-13.93-18.47H3814.58z M3785.27,3578
			c-0.67,0.65-1.36,1.27-2.03,1.91c-0.43-0.64-0.87-1.26-1.3-1.91H3785.27z M3655.44,3569c-2.65,3.09-5.36,6.09-8.12,9h30.1
			c-5.52,8.38-11.39,16.27-17.56,23.74c-10.42-10.02-20.13-20.92-29.08-32.74H3655.44z M3483.04,3621c-0.63-0.66-1.24-1.33-1.86-2
			h20.38c-8.91,10.23-18.5,19.75-28.68,28.63c-7.06-8.3-13.71-17.17-19.94-26.63H3483.04z M3359.11,3564
			c-2.91,5.4-5.92,10.61-9.05,15.65c-3.83-5.04-7.55-10.24-11.12-15.65H3359.11z M3226.58,3614c-2.09,2.76-4.24,5.45-6.41,8.11
			c-2.69-2.63-5.31-5.34-7.9-8.11H3226.58z M3215.25,3628c-4.04,4.68-8.22,9.19-12.52,13.55c-3.77-4.37-7.42-8.89-10.95-13.55
			H3215.25z M3059.14,3567c-3.2,3.8-6.46,7.47-9.82,11h30.1c-5.51,8.35-11.35,16.22-17.5,23.66c-11.2-10.55-21.6-22.07-31.14-34.66
			H3059.14z M2776.56,3597c-5.51,6.33-11.29,12.37-17.3,18.17c-5.78-5.77-11.34-11.83-16.67-18.17H2776.56z M2749.76,3586
			c-3.11,2.8-6.31,5.5-9.54,8.16c-2.18-2.68-4.34-5.39-6.44-8.16H2749.76z M2582.9,3479c-2.1,5.47-4.3,10.8-6.58,15.98
			c-3.93-5.14-7.73-10.45-11.38-15.98H2582.9z M1959.52,3271c-2.8,3.92-5.67,7.73-8.62,11.41c-2.72-3.71-5.38-7.5-7.96-11.41
			H1959.52z M1676.89,3157.21c-3.42,7.56-7.03,14.8-10.82,21.74c-6.4-6.88-12.51-14.11-18.29-21.74H1676.89z M1535.42,3107.21
			c-0.8,1.21-1.63,2.39-2.44,3.58c-0.67-1.19-1.34-2.37-2.01-3.58H1535.42z M1435.49,3124c-0.18,0.27-0.36,0.55-0.53,0.82
			c-0.21-0.28-0.43-0.54-0.64-0.82H1435.49z M1309.57,3089.68c-4.71-4.96-9.26-10.19-13.65-15.68h26.03
			c-8.55,12.98-17.91,24.83-28,35.65c-5.05-6.34-9.88-12.99-14.47-19.97H1309.57z M1076.77,3094c-5.38,7.1-11.03,13.87-16.95,20.32
			c-5.95-6.41-11.64-13.17-17.06-20.32H1076.77z M1057.22,3079c-4.75,5.12-9.64,10.02-14.71,14.67c-3.58-4.73-7.04-9.61-10.38-14.67
			H1057.22z M521.61,3004c-2.97,4.51-6.04,8.87-9.2,13.12c-2.99-4.23-5.89-8.6-8.7-13.12H521.61z M191.61,2990
			c-2.71,4.11-5.51,8.09-8.38,11.98c-2.51-3.89-4.96-7.87-7.33-11.98H191.61z"/>
		<linearGradient id="SVGID_32_" gradientUnits="userSpaceOnUse" x1="5290.1797" y1="4320" x2="5290.1797" y2="3407.5">
			<stop  offset="2.453034e-06" style="stop-color:#262741"/>
			<stop  offset="0.3719" style="stop-color:#333553"/>
			<stop  offset="1" style="stop-color:#4F547B"/>
		</linearGradient>
		<path class="st32" d="M7651.63,3636.35c-18.5-34.58-32.43-76.56-41.23-126.85c-5.84,33.41-13.95,63.16-24.16,89.5
			c0,0.01,0,0.01,0,0.01c-6.01,15.51-12.75,29.83-20.18,43.03c-9.5-25.36-17.1-53.79-22.66-85.54
			c-7.23,41.35-17.92,77.09-31.78,107.71c-24.04-37.82-41.75-85.9-52.22-145.71c-7.43,42.49-18.53,79.05-32.95,110.23
			c-19.41-35.21-33.96-78.29-43.05-130.23c-12.74,72.84-36.22,128.27-68.81,168.96c-15.51-32.19-27.37-70.3-35.19-114.96
			c-6.51,37.22-15.83,69.89-27.74,98.38c-20.01-35.6-34.98-79.38-44.26-132.38c-11.37,65.02-31.31,116.18-58.64,155.36
			c-17.08-33.51-30.02-73.7-38.36-121.36c-7.18,41.06-17.78,76.59-31.5,107.07c-13.71-30.48-24.31-66.01-31.5-107.07
			c-2.86,16.36-6.27,31.83-10.2,46.46c-8.63-24.06-15.61-50.81-20.8-80.46c-13.98,79.93-40.89,138.91-78.58,180.44
			c-17.6-33.92-30.9-74.8-39.42-123.44c-11,62.91-30.02,112.82-56,151.48c-25.97-38.66-44.99-88.57-56-151.48
			c-8.77,50.16-22.65,92.05-41.07,126.58c-28.51-39.58-49.23-91.76-60.93-158.58c-14.44,82.57-42.68,142.79-82.36,184.5h30.1
			c-5.37,8.16-11.08,15.86-17.07,23.15c-30.44-40.16-52.47-93.94-64.67-163.65c-4.87,27.88-11.33,53.2-19.26,76.14
			c-16.77-33.26-29.5-73.06-37.74-120.14c-6.95,39.74-17.1,74.28-30.18,104.09c-14.84-31.58-26.229-68.75-33.82-112.09
			c-8.5,48.6-21.78,89.44-39.36,123.34c-7.19-21.66-13.1-45.39-17.64-71.34c-5.73,32.78-13.65,62.02-23.58,87.99
			c-12.23-28.87-21.78-62.06-28.42-99.99c-8.63,49.34-22.19,90.69-40.17,124.89c-11.08-11.54-21.29-24.31-30.56-38.39h30.09
			c-39.67-41.71-67.91-101.93-82.36-184.5c-11.57,66.18-32.02,117.98-60.1,157.42c-15.86-32.49-27.96-71.08-35.9-116.42
			c-9.9,56.6-26.28,102.69-48.39,139.52c-28.86-39.69-49.82-92.17-61.61-159.52c-8.91,50.97-23.09,93.41-41.97,128.25
			c-35.3-41.2-60.61-98.59-74.03-175.25c-12.76,72.96-36.3,128.46-68.98,169.17c-19.4-35.2-33.93-78.26-43.02-130.17
			c-7.93,45.35-20.03,83.93-35.9,116.42v0.01c-1.84,3.78-3.73,7.48-5.68,11.09c-6.51-12.99-12.41-26.97-17.67-42v-0.01
			c-8.16-23.28-14.77-49.07-19.75-77.51c-2.45,14-5.3,27.35-8.53,40.08c-1.65,6.5-3.4,12.84-5.25,19.02
			c-10.54-18.47-19.71-39.17-27.4-62.24c-3.82-11.44-7.27-23.46-10.35-36.08c-2.8-11.43-5.29-23.35-7.47-35.78
			c-2.3,13.15-4.95,25.72-7.95,37.75c-0.08,0.35-0.16,0.71-0.26,1.06c-9.72,38.77-23.01,71.79-39.52,99.59
			c-1.91-8.54-3.68-17.33-5.27-26.4c-3.19,18.26-7.07,35.43-11.59,51.55c-4.84,6.4-9.91,12.45-15.18,18.17
			c-20.49-32.22-36.38-71.89-47.1-119.92c-1.87-8.34-3.58-16.94-5.13-25.8c-1.68,9.59-3.54,18.88-5.59,27.87
			c-8.21,36.09-19.37,67.42-33.22,94.39c-18.4-21.71-34.06-47.86-46.7-78.91c-11.31-27.76-20.2-59.45-26.49-95.35
			c-4.83,27.61-11.2,52.73-19.04,75.49c-15.57,45.29-36.91,81.25-63.32,109.01h30.1c-12.51,18.98-26.69,35.6-42.45,50h34.61
			c-7.81,10.3-16.19,19.91-25.11,28.84c-1.23,1.22-2.46,2.44-3.71,3.64c-0.65-1.09-1.3-2.19-1.93-3.29
			c-20.97-36.18-36.58-81.04-46.15-135.69c-9.43,53.94-24.76,98.33-45.31,134.27c-33.56-40.9-57.7-97.05-70.69-171.27
			c-12.05,68.91-33.73,122.25-63.63,162.26c-18.07-34.27-31.7-75.74-40.37-125.26c-7.91,45.26-19.99,83.79-35.8,116.25
			c-26.59-38.9-46.02-89.39-57.2-153.25c-8.16,46.67-20.74,86.19-37.29,119.27c-28.39-39.54-49.04-91.62-60.71-158.27
			c-14.44,82.57-42.68,142.79-82.36,184.5h30.1c-11,16.7-23.31,31.57-36.84,44.71c-23.88-37.74-41.48-85.66-51.9-145.21
			c-8.26,47.24-21.05,87.16-37.91,120.49c-31.17-40.36-53.7-94.7-66.09-165.49c-5.93,33.94-14.21,64.1-24.64,90.75
			c-21.58-36.53-37.61-82.05-47.36-137.75c-14.44,82.57-42.68,142.79-82.36,184.5h30.1c-6.1,9.25-12.6,17.94-19.48,26.09
			c-21.53-36.51-37.52-81.98-47.26-137.59c-9.87,56.45-26.2,102.45-48.22,139.23c-16.79-33.28-29.53-73.11-37.78-120.23
			c-10.78,61.62-29.24,110.79-54.41,149.11c-6.71-20.78-12.271-43.44-16.59-68.11c-7.82,44.7-19.68,82.85-35.22,115.06
			c-5.14,10.67-10.69,20.69-16.63,30.08c-5.65-8.78-10.97-18.12-15.91-28.03c-16.53-33.04-29.09-72.51-37.24-119.11
			c-7.51,42.96-18.77,79.86-33.42,111.26c-24.23-37.9-42.06-86.15-52.58-146.26c-12.44,71.12-35.12,125.66-66.52,166.07
			c-5.05,6.51-10.33,12.65-15.83,18.43h30.09c-10.3,15.64-21.76,29.65-34.29,42.16c-12.75-16.65-24.04-35.66-33.78-57.2
			c-13.8-30.56-24.46-66.22-31.67-107.46c-7.54,43.1-18.84,80.11-33.56,111.57c-7.22,15.45-15.28,29.56-24.12,42.41
			c-7.1-12.22-13.59-25.42-19.44-39.67c-11.5-27.99-20.52-59.99-26.88-96.31c-6.62,37.83-16.13,70.97-28.32,99.79
			c-14.4,34.08-32.54,62.11-54.03,84.71h30.09c-5.37,8.15-11.07,15.84-17.05,23.13c-26.67-28.99-48.01-66.6-63.28-114.06
			c-6.64-20.63-12.13-43.12-16.41-67.57c-3.96,22.65-8.96,43.63-14.96,63c-11.5,37.16-26.64,68.42-45.09,94.34
			c-15.86-29.78-28.33-65.03-37.08-106.33c-1.39-6.52-2.68-13.19-3.87-20.01c-1.13,6.44-2.33,12.74-3.63,18.91
			c-7.87,37.57-18.83,70.16-32.6,98.2c-19.38-29.79-34.75-66.08-45.64-109.61c-3.07-12.26-5.78-25.08-8.13-38.5
			c-2.2,12.58-4.72,24.65-7.56,36.21c-15.75,64.29-41.17,112.94-74.79,148.29h30.09c-12.51,18.98-26.69,35.6-42.45,50h34.61
			c-9.7,12.8-20.29,24.53-31.72,35.22c-2.49,2.35-5.03,4.64-7.61,6.87c-0.71,0.63-1.43,1.25-2.15,1.86
			c-17.6-33.92-30.9-74.8-39.42-123.45c-8.24,47.14-20.99,86.98-37.79,120.25c-2.25,4.45-4.56,8.78-6.95,12.99
			c-10.96-11.83-21.03-25.11-30.15-39.92c-22.98-37.28-39.95-84.28-50.11-142.32c-10.75,61.47-29.15,110.56-54.23,148.84
			c-8.6,13.14-17.99,25-28.12,35.66h30.09c-12.51,18.98-26.69,35.6-42.45,50h34.61c-7.9,10.42-16.4,20.11-25.44,29.13
			c-26.72-38.95-46.24-89.56-57.46-153.63c-14.44,82.57-42.68,142.79-82.35,184.5h30.09c-12.51,18.98-26.69,35.6-42.45,50h34.61
			c-2.4,3.17-4.85,6.27-7.37,9.3c-5.2,6.31-10.64,12.34-16.31,18.09L2936,4185l-1,9l10.63,29.47c-7.32,6.33-14.94,12.33-22.89,18
			c-1.19,0.85-2.39,1.69-3.6,2.53h33.89l3.05,8.47c-16.79,15.49-35.4,29.31-55.72,41.53H2953c-10.63,9.22-21.96,17.89-33.96,26H7680
			v-782.26C7673.32,3575.11,7663.79,3607.85,7651.63,3636.35z M6964.14,3703c-4.24,6.44-8.7,12.59-13.33,18.5
			c-3.77-5.91-7.38-12.08-10.83-18.5H6964.14z M6273.79,3712c-2.29,3.93-4.65,7.75-7.07,11.48c-3.15-3.73-6.229-7.54-9.21-11.48
			H6273.79z M5935.51,3686h1.59c-0.25,0.36-0.49,0.73-0.74,1.09C5936.08,3686.72,5935.79,3686.37,5935.51,3686z M5944.2,3636
			c-2.52,4.28-5.11,8.45-7.79,12.49c-2.99-4.05-5.92-8.2-8.74-12.49H5944.2z M5823.14,3636c-1.28,1.94-2.59,3.84-3.9,5.74
			c-1.271-1.89-2.521-3.8-3.75-5.74H5823.14z M5554.37,3608c-0.77,2.3-1.55,4.56-2.35,6.81c-1.56-2.23-3.09-4.5-4.6-6.81H5554.37z
			 M5449.08,3592c-2.29,4.08-4.65,8.06-7.08,11.92c-2.85-3.87-5.64-7.83-8.33-11.92H5449.08z M4644.03,3683
			c-0.53,0.88-1.061,1.73-1.6,2.6c-0.58-0.87-1.18-1.72-1.76-2.6H4644.03z M4747.74,3694h25.56c-2.67,3.52-5.4,6.94-8.21,10.29
			c-1.77,2.12-3.57,4.2-5.39,6.26c-1.45-1.85-2.89-3.74-4.3-5.65C4752.78,3701.37,4750.23,3697.73,4747.74,3694z M3989.3,3822
			c-3.1,4.1-6.31,8.06-9.59,11.94c-3.64-3.82-7.17-7.8-10.61-11.94H3989.3z M3979.65,3834c-5.38,6.36-11.02,12.43-16.88,18.21
			c-4.55-5.82-8.93-11.87-13.1-18.21H3979.65z M3721.73,3878c-4.54,5.38-9.26,10.5-14.13,15.4c-3.77-4.95-7.42-10.07-10.93-15.4
			H3721.73z M3384.29,3978c-4.92,5.64-10.06,11.07-15.37,16.3c-0.86,0.85-1.73,1.69-2.6,2.53c-3.92-6.01-7.69-12.28-11.27-18.83
			H3384.29z M3266.38,3984c-3.97,6.86-8.13,13.41-12.48,19.66c-4.96-6.25-9.71-12.8-14.23-19.66H3266.38z M3118.29,4084
			c-0.08,0.1-0.17,0.19-0.26,0.28c-0.08-0.09-0.15-0.19-0.24-0.28H3118.29z M3100.59,4094l-2.85,1.58
			c-0.36-0.53-0.72-1.05-1.07-1.58H3100.59z"/>
		<linearGradient id="SVGID_33_" gradientUnits="userSpaceOnUse" x1="2828.5701" y1="4320" x2="2828.5701" y2="3549">
			<stop  offset="2.453034e-06" style="stop-color:#2E2F4E"/>
			<stop  offset="0.3719" style="stop-color:#3B3E60"/>
			<stop  offset="1" style="stop-color:#575D88"/>
		</linearGradient>
		<path class="st33" d="M5603.35,4215.85c-6.39-20.16-11.69-42.08-15.85-65.85c-4.11,23.48-9.33,45.15-15.62,65.1
			c-8.84,28.06-19.77,52.72-32.66,74.23c-18.54-20.91-34.42-46.15-47.37-76.13c-12.68-29.38-22.54-63.3-29.35-102.2
			c-6.7,38.28-16.36,71.76-28.76,100.81c-11.84,27.78-26.18,51.51-42.81,71.54c-5.3-6.61-10.36-13.55-15.17-20.85h30.1
			c-14.25-14.98-27.01-32.34-38.2-52.26c-19.97-35.57-34.9-79.31-44.16-132.24c-8.41,48.07-21.51,88.56-38.8,122.24
			c-13.96-13.4-26.64-28.6-37.94-45.74h30.1c-32.18-33.83-56.84-79.84-72.71-140.09c-3.7-14.02-6.92-28.82-9.65-44.41
			c-2.85,16.33-6.25,31.78-10.16,46.39c-13.99,52.15-34.62,93.54-61.05,125.52c-17.23-31.9-30.54-70.18-39.48-115.52
			c-0.81-4.07-1.58-8.2-2.31-12.39c-0.76,4.35-1.56,8.64-2.4,12.86c-11.89,60.04-31.45,107.65-57.66,144.49
			c-27.25-33.52-48.23-77.21-61.99-132.58c-3-12.03-5.65-24.62-7.95-37.77c-2.4,13.75-5.19,26.87-8.36,39.39
			c-11.56,45.86-28.1,83.64-49.09,114.24c-22.06-27.64-39.93-62.05-53.1-104.07c-6.21-19.8-11.38-41.29-15.45-64.56
			c-4.29,24.52-9.8,47.06-16.47,67.74c-9.26,28.76-20.75,53.9-34.32,75.69c-7.8-8.97-15.13-18.58-21.95-28.93h30.1
			c-11.5-12.09-22.03-25.73-31.55-41.02c-23.33-37.46-40.55-84.84-50.81-143.48c-11.27,64.45-30.96,115.27-57.92,154.31
			c-4.49,6.49-9.17,12.66-14.05,18.51c-3.25-5.2-6.38-10.59-9.39-16.18c-18.71-34.72-32.78-76.96-41.64-127.64
			c-9.63,55.02-25.38,100.12-46.56,136.42c-10.6,18.18-22.56,34.16-35.8,48.08h30.1c-5.8,8.8-11.98,17.08-18.49,24.88
			c-17.42-18.34-32.62-40.24-45.42-66.04c-16.33-32.89-28.74-72.11-36.83-118.34c-8.74,49.92-22.51,91.65-40.81,126.07
			c-0.21,0.41-0.43,0.82-0.65,1.23c-0.33-0.36-0.65-0.71-0.96-1.07c-9.08-10.02-17.53-20.91-25.32-32.73h30.1
			c-39.67-41.71-67.91-101.93-82.36-184.5c-14.45,82.57-42.69,142.79-82.36,184.5h30.1c-8.86,13.44-18.57,25.67-29.08,36.8
			c-29.91-40.02-51.6-93.36-63.66-162.3c-7.75,44.32-19.49,82.19-34.83,114.23c-39.04-41.66-66.87-101.49-81.17-183.23
			c-14.45,82.57-42.69,142.79-82.36,184.5h30.1c-5.25,7.97-10.81,15.49-16.65,22.64c-39-41.66-66.8-101.46-81.09-183.14
			c-14.45,82.57-42.69,142.79-82.36,184.5h30.1c-8.6,13.05-18.02,24.96-28.17,35.83c-26.26-38.78-45.48-88.97-56.57-152.33
			c-9.55,54.6-25.14,99.42-46.07,135.58c-28.51-39.58-49.24-91.76-60.93-158.58c-9.75,55.7-25.78,101.22-47.35,137.75
			c-32.5-40.67-55.93-96.04-68.65-168.75c-11.4,65.15-31.39,116.38-58.81,155.59c-14.05-30.82-24.89-66.84-32.19-108.59
			c-8.62,49.27-22.16,90.58-40.1,124.75c-13.56-24.26-24.79-52.3-33.48-84.45c-1.44-5.32-2.81-10.75-4.11-16.3
			c-1.13-4.84-2.21-9.76-3.23-14.78c-1.09-5.3-2.12-10.71-3.08-16.22c-1.38,7.9-2.89,15.6-4.53,23.09
			c-7.15,32.82-16.69,61.78-28.44,87.17c-20.45-23.87-37.55-53.17-50.92-88.51c-9.72-25.65-17.47-54.49-23.11-86.75
			c-3.75,21.43-8.43,41.34-13.99,59.82c-13.53,44.93-32.3,81.36-55.73,110.26c-20.27-28-36.62-62.34-48.61-103.74
			c-4.99-17.21-9.22-35.64-12.67-55.34c-6.84,39.1-16.78,73.17-29.55,102.66c-29.29-39.83-50.55-92.66-62.45-160.66
			c-14.45,82.57-42.69,142.79-82.36,184.5h30.1c-12.51,18.98-26.69,35.6-42.45,50h34.61c-6.38,8.42-13.16,16.34-20.29,23.84
			c-37.17-41.46-63.75-100.11-77.61-179.34c-12.18,69.63-34.18,123.37-64.56,163.52c-9.38-9.28-18.18-19.26-26.34-30.02h34.61
			c-15.76-14.4-29.94-31.02-42.45-50h30.1c-39.67-41.71-67.91-101.93-82.36-184.5c-14.45,82.57-42.69,142.79-82.36,184.5h30.1
			c-12.51,18.98-26.69,35.6-42.45,50h34.61c-12.77,16.85-27.06,31.82-42.78,45.05c-24-37.79-41.67-85.82-52.12-145.55
			c-9.75,55.7-25.78,101.22-47.35,137.76c-12.96-12.79-24.78-27.17-35.39-43.26h30.1c-39.67-41.71-67.91-101.93-82.36-184.5
			c-14.45,82.57-42.69,142.79-82.36,184.5h30.1c-8.09,12.27-16.89,23.54-26.35,33.88c-38.63-41.62-66.18-101.19-80.39-182.38
			c-11.14,63.69-30.5,114.07-56.97,152.92c-6.99-8.24-13.59-17.04-19.77-26.42h30.1c-39.67-41.71-67.91-101.93-82.36-184.5
			c-14.45,82.57-42.69,142.79-82.36,184.5h30.1c-5.65,8.57-11.66,16.64-17.98,24.26c-22.79-37.2-39.66-84.01-49.76-141.76
			c-5.55,31.72-13.14,60.13-22.63,85.47c-12.06-12.21-23.13-25.83-33.11-40.97h30.1c-39.67-41.71-67.91-101.93-82.36-184.5
			c-14.45,82.57-42.69,142.79-82.36,184.5h30.1c-12.51,18.98-26.69,35.6-42.45,50h34.61c-9.03,11.91-18.82,22.89-29.34,32.98
			c-18.67-34.69-32.71-76.88-41.56-127.48c-7.91,45.18-19.95,83.66-35.73,116.08c-15.58-14.3-29.62-30.78-42.01-49.58h30.1
			c-39.67-41.71-67.91-101.93-82.36-184.5c-14.45,82.57-42.69,142.79-82.36,184.5h30.1c-4.49,6.8-9.19,13.29-14.11,19.5
			c-13.66-12.09-26.2-25.55-37.53-40.5h34.61c-15.76-14.4-29.94-31.02-42.45-50h30.1c-39.67-41.71-67.91-101.93-82.36-184.5
			c-14.45,82.57-42.69,142.79-82.36,184.5h30.1c-11.21,17-23.76,32.09-37.58,45.41c-28.63-39.62-49.44-91.91-61.16-158.91
			c-7.83,44.73-19.71,82.88-35.25,115.1c-35.68-41.26-61.24-98.91-74.75-176.1c-11.07,63.25-30.24,113.38-56.43,152.12
			c-21.69-36.6-37.79-82.23-47.57-138.12c-10.49,59.96-28.26,108.12-52.4,145.98c-6.08-7.39-11.88-15.2-17.34-23.48h30.1
			c-39.67-41.71-67.91-101.93-82.36-184.5c-14.45,82.57-42.69,142.79-82.36,184.5h30.1c-12.51,18.98-26.69,35.6-42.45,50h34.61
			c-12.19,16.08-25.78,30.46-40.67,43.24c-8.56-9.62-16.56-20-23.97-31.24h30.1c-39.67-41.71-67.91-101.93-82.36-184.5
			c-12.26,70.08-34.47,124.06-65.16,164.29c-8.41-9.49-16.29-19.73-23.58-30.79h30.1c-39.67-41.71-67.91-101.93-82.36-184.5
			c-9.55,54.6-25.14,99.42-46.08,135.59c-12.61-11.46-24.24-24.13-34.82-38.09h34.61c-15.76-14.4-29.94-31.02-42.45-50h30.1
			c-39.67-41.71-67.91-101.93-82.36-184.5c-14.45,82.57-42.69,142.79-82.36,184.5h30.1c-11.08,16.81-23.48,31.76-37.12,44.97
			c-19.2-35.07-33.6-77.91-42.62-129.47c-4.21,24.05-9.6,46.2-16.09,66.55c-31.6-40.46-54.42-95.14-66.91-166.55
			c-14.45,82.57-42.69,142.79-82.36,184.5h30.1c-9.37,14.22-19.69,27.12-30.9,38.75c-15.35-32.04-27.08-69.92-34.84-114.25
			c-6.27,35.81-15.13,67.41-26.39,95.13c-28.34-39.53-48.96-91.56-60.61-158.13c-11.47,65.55-31.64,117-59.31,156.3
			C36.2,3720.85,14.87,3681.25,0,3631.19V4320h5657.14C5634.81,4292.42,5616.71,4257.98,5603.35,4215.85z M4506.65,4154.5
			c-5.36,6.41-10.94,12.48-16.77,18.23c-4.55-5.83-8.94-11.88-13.12-18.23H4506.65z M4124.06,4053.5
			c-3.77,7.78-7.75,15.2-11.94,22.29c-5.73-7.04-11.19-14.45-16.36-22.29H4124.06z M3973.47,4077.5
			c-4.95,5.98-10.11,11.68-15.46,17.09c-4.24-5.47-8.34-11.15-12.25-17.09H3973.47z M2943.09,4098.5
			c-3.98,3.98-8.07,7.83-12.27,11.54c-2.75-3.75-5.45-7.58-8.06-11.54H2943.09z M2818.24,4098.5c-3.93,5.97-8.05,11.68-12.31,17.18
			c-5.69-5.5-11.17-11.21-16.41-17.18H2818.24z M2789.07,4097.5c-0.08,0.08-0.15,0.17-0.23,0.25c-0.07-0.09-0.15-0.17-0.22-0.25
			H2789.07z M2650.38,4097.5c-5.51,6.33-11.29,12.37-17.3,18.17c-4.6-5.76-9.01-11.81-13.24-18.17H2650.38z M2513.05,4091.5
			c-3.41,5.43-6.96,10.65-10.64,15.67c-4.42-5.04-8.7-10.25-12.81-15.67H2513.05z M2348.91,4077.5c-4.56,4.87-9.26,9.56-14.12,14
			h34.61c-5.82,7.68-11.98,14.96-18.42,21.88c-10.18-10.88-19.6-22.81-28.22-35.88H2348.91z M1995.36,3996.5
			c-2.4,5.93-4.91,11.69-7.52,17.27c-4.93-5.53-9.69-11.27-14.24-17.27H1995.36z M1746.57,4018.5c-4.16,8.52-8.57,16.62-13.24,24.31
			c-7.29-7.64-14.22-15.72-20.73-24.31H1746.57z M1578.23,3997.5c-3.35,3.85-6.78,7.58-10.31,11.18c-3.51-3.64-6.97-7.35-10.3-11.18
			H1578.23z M1428.4,3947.5c-4.21,5.55-8.6,10.87-13.13,16.02c-4.56-5.08-8.98-10.41-13.22-16.02H1428.4z M1410.81,3968.5
			c-3.98,4.31-8.08,8.47-12.3,12.49c-3-4.05-5.92-8.2-8.75-12.49H1410.81z M1298.05,3907.5c-2.59,4.99-5.27,9.82-8.05,14.5
			c-3.52-4.67-6.94-9.5-10.24-14.5H1298.05z M772.24,3921.5c-0.26,0.39-0.52,0.76-0.78,1.14l-1.47-1.14H772.24z M482.4,3783.5
			c-4.8,6.34-9.84,12.39-15.07,18.21c-3.95-5.81-7.75-11.88-11.38-18.21H482.4z M388.24,3733.5c-1,2.67-2.02,5.31-3.05,7.92
			c-1.84-2.6-3.66-5.23-5.43-7.92H388.24z M267.4,3783.5c-3.32,4.38-6.75,8.61-10.26,12.74c-2.45-4.13-4.83-8.38-7.14-12.74H267.4z
			 M70.24,3779.5c-2.24,3.4-4.55,6.69-6.89,9.94c-2.89-3.22-5.71-6.54-8.47-9.94H70.24z M58.69,3757.5
			c-3.44,4.59-6.98,9-10.64,13.24c-3.19-4.28-6.29-8.69-9.29-13.24H58.69z M49.11,3807.5c-0.44,0.51-0.89,1.01-1.33,1.51
			c-0.39-0.51-0.79-1-1.18-1.51H49.11z M4506.94,4192.47c-0.88-0.92-1.76-1.85-2.62-2.79c-3.06-3.29-6.05-6.69-8.97-10.18h22.05
			c-2.67,3.52-5.41,6.95-8.21,10.3C4508.45,4190.7,4507.7,4191.59,4506.94,4192.47z M5270.98,4224.18
			c-4.84-5.31-9.51-10.83-13.98-16.58c-0.81-1.02-1.61-2.06-2.4-3.1h27.86c-0.66,1.23-1.32,2.45-1.99,3.66
			C5277.43,4213.69,5274.26,4219.03,5270.98,4224.18z M5525.28,4310.36c-3.63-4.79-7.14-9.73-10.521-14.86h20.66
			C5532.15,4300.64,5528.77,4305.59,5525.28,4310.36z"/>
	<linearGradient id="SVGID_34_" gradientUnits="userSpaceOnUse" x1="5087.5249" y1="4320" x2="5087.5249" y2="3356.9399">
		<stop  offset="0" style="stop-color:#7A79A3"/>
		<stop  offset="1" style="stop-color:#E6DCD3"/>
	</linearGradient>
	<path class="st34" d="M7680,3502.11V4320H2495.05c25.28-298.56,205.88-552.84,460.68-681.75c114.4-57.88,243.76-90.49,380.74-90.49
		c379.73,0,700.92,250.62,807.16,595.52c136.87-172.39,348.23-282.9,585.41-282.9c98.74,0,192.97,19.16,279.25,53.95
		c233.81-336.85,623.44-557.39,1064.6-557.39c345.99,0,660.27,135.64,892.58,356.71c175.72-134.63,395.48-214.61,633.97-214.61
		C7626.55,3499.04,7653.42,3500.07,7680,3502.11z"/>
	<linearGradient id="SVGID_35_" gradientUnits="userSpaceOnUse" x1="1613.5" y1="4320" x2="1613.5" y2="2832.52">
		<stop  offset="0" style="stop-color:#7A79A3"/>
		<stop  offset="1" style="stop-color:#E6DCD3"/>
	</linearGradient>
	<path class="st35" d="M3227,4275.07c0,15.07-0.38,30.05-1.13,44.93H0V2877.38c114.58-29.29,234.65-44.86,358.35-44.86
		c589.91,0,1097.16,354.11,1320.68,861.41c161.86-185.06,399.69-301.95,664.89-301.95c237.5,0,453.1,93.75,611.81,246.27
		C3122.94,3798.93,3227,4024.85,3227,4275.07z"/>
</svg>
